<?xml version="1.0" standalone="no"?>
<!DOCTYPE svg PUBLIC "-//W3C//DTD SVG 20010904//EN"
 "http://www.w3.org/TR/2001/REC-SVG-20010904/DTD/svg10.dtd">
<svg version="1.0" xmlns="http://www.w3.org/2000/svg"
 width="256.000000pt" height="256.000000pt" viewBox="0 0 256.000000 256.000000"
 preserveAspectRatio="xMidYMid meet">

<g transform="translate(0.000000,256.000000) scale(0.100000,-0.100000)"
fill="#f0f0f0" stroke="none">
<path d="M1625 2507 c-157 -52 -264 -174 -296 -336 -15 -78 0 -180 38 -258
l27 -54 -22 -83 c-40 -151 -33 -159 105 -120 84 24 118 27 238 28 136 1 142 2
207 33 274 130 333 490 113 691 -87 80 -150 105 -270 109 -64 2 -115 -2 -140
-10z m266 -95 c74 -36 125 -87 161 -160 30 -60 33 -76 33 -152 0 -67 -5 -95
-23 -134 -34 -75 -84 -129 -153 -166 -52 -27 -77 -34 -139 -38 -41 -2 -91 0
-110 5 -27 7 -56 4 -125 -14 -49 -12 -90 -23 -91 -23 -1 0 7 32 18 70 l19 70
-35 70 c-44 89 -53 157 -32 241 31 120 117 212 236 250 14 5 63 7 110 6 65 -2
96 -7 131 -25z"/>
<path d="M1684 2360 c-27 -11 -72 -65 -80 -95 -11 -46 -1 -70 30 -70 16 0 32
7 36 15 34 73 36 75 71 78 25 2 40 -3 53 -17 32 -35 23 -68 -32 -119 -51 -48
-70 -92 -57 -131 14 -46 75 -32 75 16 0 14 11 34 26 46 94 78 111 139 64 226
-27 51 -123 77 -186 51z"/>
<path d="M1715 1929 c-10 -30 18 -58 43 -43 9 6 17 22 17 35 0 34 -50 41 -60
8z"/>
<path d="M823 2242 c-217 -78 -283 -345 -126 -513 l44 -47 -48 -22 c-26 -11
-69 -34 -94 -51 -34 -21 -58 -29 -92 -29 -38 0 -49 -5 -67 -27 -18 -22 -21
-37 -17 -73 4 -36 -1 -56 -25 -104 -24 -47 -57 -160 -58 -198 0 -21 36 -38 81
-38 49 0 49 0 49 -32 0 -18 3 -43 6 -55 l6 -23 -210 0 c-167 0 -212 -3 -221
-14 -8 -9 -11 -51 -9 -122 l3 -109 548 -3 547 -2 63 -64 63 -65 -45 -17 c-206
-76 -369 -270 -416 -493 -24 -112 -93 -102 663 -99 l657 3 3 31 c4 46 -24 148
-64 230 -67 136 -178 243 -325 313 l-77 36 48 47 c26 26 61 73 76 105 26 51
29 69 29 153 0 82 -4 103 -27 152 -48 103 -159 186 -268 203 -44 7 -46 9 -73
69 -22 50 -27 70 -21 103 5 36 3 45 -19 67 -20 20 -36 26 -71 26 -34 0 -57 8
-98 35 -29 19 -72 42 -94 51 l-42 16 39 35 c21 19 51 60 66 91 38 78 40 192 3
267 -71 145 -241 219 -387 167z m180 -78 c182 -62 209 -316 44 -418 -199 -123
-435 93 -331 302 54 109 170 156 287 116z m13 -545 c32 -6 70 -17 84 -25 22
-11 -1 -13 -180 -13 -212 0 -230 5 -113 33 72 18 132 19 209 5z m330 -141 c-3
-13 -8 -45 -11 -73 -13 -109 -14 -112 -65 -143 -60 -38 -123 -117 -145 -182
l-17 -50 -273 0 -273 0 -6 38 c-3 20 -15 111 -26 202 -11 91 -22 180 -25 198
l-6 32 426 0 425 0 -4 -22z m-900 -256 c-12 -11 -17 7 -9 34 l8 29 3 -28 c2
-16 1 -31 -2 -35z m1101 3 c60 -18 135 -80 166 -139 31 -59 31 -193 0 -252
-47 -88 -156 -154 -252 -154 -171 0 -306 167 -271 334 34 165 194 259 357 211z
m-447 -282 c0 -5 4 -25 9 -45 l9 -38 -499 0 -499 0 0 45 0 45 490 0 c270 0
490 -3 490 -7z m485 -358 c193 -41 365 -188 431 -369 13 -37 24 -73 24 -81 0
-13 -79 -15 -580 -15 l-580 0 6 28 c74 305 388 502 699 437z"/>
<path d="M885 1374 c-103 -35 -110 -170 -12 -218 67 -32 137 -3 161 69 33 96
-53 182 -149 149z m70 -108 c0 -40 -27 -56 -54 -32 -12 11 -21 24 -21 31 0 20
24 36 50 33 20 -2 25 -8 25 -32z"/>
<path d="M1854 1640 c-12 -4 -31 -21 -43 -36 -20 -25 -21 -37 -21 -246 l0
-220 28 -28 c16 -16 45 -32 65 -35 l37 -7 0 -64 c0 -61 1 -64 27 -70 24 -7 34
0 93 64 l67 72 157 0 c260 0 256 -5 256 292 l0 218 -29 32 -29 33 -294 2
c-161 1 -303 -2 -314 -7z m584 -274 c2 -153 -1 -201 -10 -208 -7 -4 -90 -8
-184 -8 l-170 0 -34 -35 -34 -35 -10 32 c-9 28 -16 33 -46 36 -87 6 -80 -12
-80 211 0 109 3 201 7 204 4 4 131 6 282 5 l276 -3 3 -199z"/>
<path d="M1930 1491 c-13 -25 -13 -27 6 -45 13 -13 46 -16 210 -16 200 0 234
6 234 38 0 39 -17 42 -232 42 -195 0 -208 -1 -218 -19z"/>
<path d="M1930 1380 c-8 -14 -8 -26 0 -40 10 -20 19 -20 222 -18 188 3 212 5
222 21 8 12 8 22 0 35 -10 15 -34 17 -222 20 -203 2 -212 2 -222 -18z"/>
<path d="M1936 1274 c-19 -19 -20 -25 -3 -47 11 -16 33 -17 221 -15 186 3 210
5 220 21 8 12 8 22 0 35 -10 15 -34 17 -217 20 -177 2 -207 0 -221 -14z"/>
</g>
</svg>
