<?xml version="1.0" encoding="UTF-8"?>
<!-- Generator: visioncortex VTracer 0.6.3 -->
<svg version="1.1" xmlns="http://www.w3.org/2000/svg" width="1280" height="1280">
<path d="M0 0 C1.27 -0 2.55 -0 3.86 -0 C7.38 -0.01 10.89 -0.01 14.41 -0 C18.25 -0 22.08 -0 25.91 -0.01 C32.63 -0.01 39.34 -0.01 46.06 -0.01 C56.04 -0 66.03 -0 76.01 -0.01 C93.84 -0.01 111.67 -0.01 129.5 -0.01 C145.11 -0.01 160.71 -0.01 176.32 -0.01 C177.35 -0.01 178.39 -0.01 179.45 -0.01 C183.65 -0.01 187.85 -0.01 192.05 -0.01 C231.46 -0.01 270.87 -0.01 310.28 -0 C345.3 0 380.32 0 415.34 -0 C454.67 -0.01 494.01 -0.01 533.35 -0.01 C537.55 -0.01 541.74 -0.01 545.93 -0.01 C546.96 -0.01 548 -0.01 549.06 -0.01 C564.66 -0.01 580.25 -0.01 595.85 -0.01 C613.58 -0.01 631.31 -0.01 649.04 -0.01 C658.96 -0 668.89 -0 678.81 -0.01 C685.44 -0.01 692.07 -0.01 698.69 -0 C702.47 -0 706.25 -0 710.03 -0 C714.09 -0.01 718.16 -0 722.23 0 C723.99 -0 723.99 -0 725.79 -0.01 C742.69 0.03 742.69 0.03 748.99 4.13 C750.5 4.66 752.02 5.15 753.55 5.63 C756.93 6.7 759.24 7.85 761.99 10.13 C762.92 10.58 763.85 11.03 764.8 11.5 C772.01 15.18 776.89 19.89 781.99 26.13 C782.79 27.07 783.6 28.02 784.43 29 C785.99 31.13 785.99 31.13 785.99 33.13 C786.65 33.13 787.31 33.13 787.99 33.13 C791.49 39.23 794.46 45.27 797.05 51.81 C797.92 54.09 797.92 54.09 799.02 56 C800.07 58.3 800.29 59.92 800.4 62.43 C800.44 63.26 800.48 64.09 800.51 64.95 C800.55 65.84 800.58 66.74 800.61 67.66 C800.64 68.59 800.68 69.53 800.72 70.49 C801.07 79.87 801.13 89.23 801.12 98.61 C801.12 100.48 801.12 102.35 801.12 104.22 C801.12 109.32 801.12 114.41 801.12 119.51 C801.12 125.07 801.12 130.63 801.12 136.19 C801.13 145.92 801.13 155.65 801.12 165.38 C801.12 179.17 801.12 192.96 801.12 206.75 C801.13 231.77 801.13 256.8 801.13 281.83 C801.13 282.57 801.13 283.31 801.13 284.07 C801.13 284.81 801.13 285.55 801.13 286.32 C801.12 308.94 801.12 331.55 801.12 354.17 C801.12 355.69 801.12 357.2 801.12 358.72 C801.12 364.81 801.12 370.91 801.12 377 C801.13 394.03 801.13 411.07 801.13 428.1 C801.13 428.87 801.13 429.65 801.13 430.45 C801.13 455.15 801.13 479.85 801.12 504.55 C801.12 505.75 801.12 505.75 801.12 506.98 C801.12 519.98 801.12 532.99 801.12 545.99 C801.12 597.56 801.12 649.13 801.12 700.71 C801.12 713.7 801.12 726.7 801.12 739.7 C801.12 740.9 801.12 740.9 801.12 742.12 C801.13 766.8 801.13 791.48 801.13 816.15 C801.13 817.32 801.13 817.32 801.13 818.5 C801.13 835.52 801.13 852.53 801.12 869.54 C801.12 875.63 801.12 881.72 801.12 887.81 C801.12 889.32 801.12 890.84 801.12 892.35 C801.12 914.96 801.12 937.57 801.13 960.18 C801.13 961.29 801.13 961.29 801.13 962.42 C801.13 963.16 801.13 963.9 801.13 964.66 C801.13 989.62 801.13 1014.58 801.12 1039.53 C801.12 1053.91 801.12 1068.29 801.12 1082.67 C801.13 1092.28 801.12 1101.89 801.12 1111.5 C801.12 1116.98 801.12 1122.45 801.12 1127.92 C801.12 1132.91 801.12 1137.9 801.12 1142.89 C801.12 1144.67 801.12 1146.45 801.12 1148.24 C801.13 1153.87 801.09 1159.5 800.99 1165.13 C800.98 1166.03 800.96 1166.94 800.95 1167.87 C800.9 1170.7 800.82 1173.52 800.73 1176.34 C800.71 1177.63 800.71 1177.63 800.69 1178.95 C800.49 1184.14 799.54 1187.84 796.94 1192.35 C795.77 1194.38 795.77 1194.38 794.93 1197.88 C794 1201.08 793.04 1202.58 790.99 1205.13 C789.96 1207.11 788.95 1209.11 787.99 1211.13 C787.33 1211.13 786.67 1211.13 785.99 1211.13 C785.78 1211.81 785.58 1212.49 785.36 1213.19 C780.41 1223.78 769.19 1231.14 758.99 1236.13 C758.33 1236.79 757.67 1237.45 756.99 1238.13 C755.55 1238.68 754.09 1239.18 752.61 1239.63 C750.32 1240.33 748.24 1240.99 746.12 1242.14 C738.86 1245.51 728.95 1244.27 721.12 1244.25 C719.85 1244.25 718.58 1244.25 717.28 1244.26 C713.76 1244.26 710.25 1244.26 706.74 1244.25 C702.91 1244.25 699.08 1244.26 695.26 1244.26 C688.55 1244.26 681.85 1244.26 675.15 1244.26 C665.18 1244.25 655.21 1244.26 645.24 1244.26 C627.44 1244.26 609.64 1244.26 591.83 1244.26 C576.25 1244.26 560.67 1244.26 545.09 1244.26 C544.06 1244.26 543.02 1244.26 541.96 1244.26 C537.76 1244.26 533.57 1244.26 529.37 1244.26 C490.02 1244.26 450.67 1244.26 411.32 1244.26 C376.35 1244.25 341.39 1244.25 306.42 1244.26 C267.14 1244.26 227.86 1244.26 188.59 1244.26 C184.4 1244.26 180.21 1244.26 176.02 1244.26 C174.99 1244.26 173.96 1244.26 172.9 1244.26 C157.33 1244.26 141.76 1244.26 126.19 1244.26 C108.48 1244.26 90.78 1244.26 73.07 1244.26 C63.17 1244.26 53.26 1244.26 43.35 1244.26 C36.73 1244.26 30.11 1244.26 23.49 1244.26 C19.72 1244.25 15.95 1244.25 12.18 1244.26 C8.11 1244.26 4.05 1244.26 -0.02 1244.25 C-1.19 1244.25 -2.35 1244.26 -3.55 1244.26 C-23.04 1244.21 -23.04 1244.21 -28.01 1240.13 C-30.35 1239.28 -32.69 1238.63 -35.08 1237.97 C-35.72 1237.69 -36.36 1237.41 -37.01 1237.13 C-37.51 1235.64 -37.51 1235.64 -38.01 1234.13 C-39.68 1234 -39.68 1234 -41.39 1233.88 C-42.58 1233.63 -43.78 1233.38 -45.01 1233.13 C-46.14 1231.19 -46.14 1231.19 -47.01 1229.13 C-48.67 1228.44 -50.33 1227.77 -52.01 1227.13 C-52.34 1226.14 -52.67 1225.15 -53.01 1224.13 C-55.03 1223.39 -55.03 1223.39 -57.01 1223.13 C-57.09 1222.51 -57.18 1221.89 -57.26 1221.25 C-57.8 1218.94 -57.8 1218.94 -60.01 1218.13 C-60.67 1217.8 -61.33 1217.47 -62.01 1217.13 C-62.34 1215.79 -62.68 1214.46 -63.01 1213.13 C-63.63 1212.84 -64.25 1212.55 -64.89 1212.25 C-68.05 1210.58 -68.56 1208.38 -70.01 1205.13 C-70.86 1203.41 -71.71 1201.71 -72.57 1200 C-73.39 1198.38 -74.2 1196.75 -75.01 1195.13 C-75.55 1194.19 -75.55 1194.19 -76.1 1193.24 C-77.35 1190.33 -77.63 1187.52 -78.01 1184.38 C-78.48 1180.6 -79.03 1177.07 -80.03 1173.39 C-81.07 1169.3 -81.29 1165.35 -81.26 1161.13 C-81.26 1160.37 -81.27 1159.6 -81.27 1158.81 C-81.28 1156.24 -81.27 1153.67 -81.26 1151.1 C-81.27 1149.23 -81.27 1147.36 -81.27 1145.49 C-81.28 1140.33 -81.28 1135.17 -81.27 1130.02 C-81.27 1124.41 -81.28 1118.81 -81.28 1113.21 C-81.29 1103.38 -81.29 1093.55 -81.29 1083.73 C-81.29 1073.18 -81.29 1062.64 -81.29 1052.09 C-81.29 1051.43 -81.29 1050.76 -81.29 1050.07 C-81.29 1047.36 -81.3 1044.65 -81.3 1041.94 C-81.31 1014.4 -81.32 986.86 -81.31 959.32 C-81.31 955.51 -81.31 951.7 -81.31 947.9 C-81.31 947.14 -81.31 946.39 -81.31 945.61 C-81.31 928.86 -81.31 912.1 -81.32 895.35 C-81.32 891.53 -81.32 887.7 -81.32 883.88 C-81.32 882.34 -81.32 880.81 -81.32 879.27 C-81.32 878.51 -81.32 877.75 -81.32 876.97 C-81.32 875.43 -81.32 873.89 -81.32 872.35 C-81.33 828.68 -81.33 785 -81.33 741.33 C-81.33 740.52 -81.33 739.71 -81.33 738.88 C-81.33 729.86 -81.33 720.84 -81.33 711.82 C-81.33 711 -81.33 710.19 -81.33 709.35 C-81.33 702.58 -81.33 702.58 -81.33 699.47 C-81.32 647.39 -81.33 595.31 -81.35 543.23 C-81.35 530.1 -81.36 516.98 -81.36 503.86 C-81.36 503.06 -81.36 502.25 -81.36 501.41 C-81.37 476.51 -81.37 451.61 -81.37 426.71 C-81.37 425.93 -81.37 425.14 -81.37 424.34 C-81.38 407.17 -81.38 390.01 -81.37 372.84 C-81.37 366.7 -81.37 360.56 -81.37 354.42 C-81.37 352.89 -81.37 351.36 -81.37 349.83 C-81.37 325.49 -81.38 301.15 -81.39 276.81 C-81.4 251.61 -81.4 226.4 -81.39 201.2 C-81.39 198.49 -81.39 195.79 -81.39 193.08 C-81.39 192.41 -81.39 191.75 -81.39 191.07 C-81.38 179.91 -81.39 168.76 -81.4 157.61 C-81.41 147.91 -81.4 138.21 -81.39 128.5 C-81.39 122.97 -81.38 117.44 -81.4 111.91 C-81.41 106.88 -81.4 101.84 -81.39 96.81 C-81.39 95 -81.39 93.19 -81.4 91.39 C-81.44 80.52 -80.45 70.73 -78.01 60.13 C-77.51 57.22 -77.07 54.31 -76.64 51.4 C-75.91 48.75 -74.71 47.25 -73.01 45.13 C-72.27 43.42 -71.53 41.72 -70.83 40 C-68.86 35.49 -66.53 31.57 -63.01 28.13 C-61.24 26.02 -59.48 23.9 -57.73 21.77 C-56.01 20.13 -56.01 20.13 -53.01 20.13 C-52.89 19.2 -52.89 19.2 -52.76 18.25 C-52.01 16.13 -52.01 16.13 -50.14 15.06 C-49.43 14.75 -48.73 14.44 -48.01 14.13 C-47.56 13.65 -47.1 13.18 -46.64 12.69 C-44.37 10.51 -41.84 9.46 -39.01 8.13 C-38 7.61 -36.99 7.09 -35.95 6.56 C-33.33 5.28 -30.71 4.19 -28.01 3.13 C-27.1 2.62 -27.1 2.62 -26.17 2.11 C-18.6 -1.33 -8.14 -0.02 0 0 Z M-16.01 45.13 C-16.68 45.4 -17.35 45.67 -18.04 45.95 C-24.35 48.8 -28.44 52.76 -31.39 59.06 C-31.59 59.74 -31.8 60.42 -32.01 61.13 C-32.67 61.13 -33.33 61.13 -34.01 61.13 C-36.23 71.35 -36.29 81.31 -36.26 91.71 C-36.26 93.59 -36.26 95.47 -36.27 97.35 C-36.27 102.52 -36.27 107.69 -36.26 112.86 C-36.25 118.48 -36.26 124.11 -36.26 129.73 C-36.27 139.59 -36.27 149.45 -36.26 159.3 C-36.25 169.88 -36.25 180.45 -36.25 191.02 C-36.25 191.69 -36.26 192.36 -36.26 193.05 C-36.26 196.46 -36.26 199.87 -36.26 203.27 C-36.26 227.93 -36.26 252.59 -36.25 277.25 C-36.24 301.67 -36.24 326.1 -36.24 350.52 C-36.24 352.05 -36.24 353.59 -36.24 355.12 C-36.24 361.28 -36.24 367.45 -36.24 373.61 C-36.24 390.84 -36.24 408.07 -36.24 425.3 C-36.24 426.09 -36.24 426.87 -36.24 427.68 C-36.24 452.68 -36.23 477.69 -36.23 502.69 C-36.23 503.5 -36.23 504.31 -36.23 505.14 C-36.22 518.31 -36.22 531.48 -36.22 544.65 C-36.2 596.88 -36.19 649.11 -36.2 701.34 C-36.2 702.99 -36.2 704.64 -36.2 706.29 C-36.2 709.59 -36.2 712.89 -36.2 716.19 C-36.2 723.58 -36.2 730.98 -36.2 738.38 C-36.2 740.01 -36.2 741.65 -36.2 743.29 C-36.2 787.04 -36.19 830.79 -36.19 874.54 C-36.19 875.69 -36.19 875.69 -36.19 876.86 C-36.18 887.22 -36.18 887.22 -36.18 897.59 C-36.18 914.39 -36.18 931.19 -36.18 947.99 C-36.18 948.75 -36.18 949.51 -36.18 950.29 C-36.18 953.34 -36.18 956.39 -36.18 959.44 C-36.18 987.74 -36.17 1016.05 -36.16 1044.35 C-36.16 1047.07 -36.16 1049.78 -36.16 1052.49 C-36.16 1053.16 -36.16 1053.82 -36.16 1054.51 C-36.16 1065.7 -36.16 1076.88 -36.16 1088.07 C-36.16 1097.8 -36.15 1107.52 -36.15 1117.25 C-36.15 1122.8 -36.14 1128.34 -36.15 1133.89 C-36.15 1138.94 -36.15 1143.98 -36.14 1149.02 C-36.14 1150.84 -36.14 1152.65 -36.14 1154.47 C-36.42 1175.24 -36.42 1175.24 -26.64 1193 C-23.33 1195.68 -19.9 1197.44 -16.01 1199.13 C-14.88 1199.64 -14.88 1199.64 -13.72 1200.17 C-10.83 1201.19 -8.69 1201.38 -5.63 1201.38 C-4.02 1201.38 -4.02 1201.38 -2.37 1201.39 C-1.2 1201.38 -0.02 1201.38 1.19 1201.37 C3.08 1201.38 3.08 1201.38 5.01 1201.38 C8.52 1201.39 12.02 1201.38 15.53 1201.38 C19.34 1201.37 23.15 1201.38 26.96 1201.38 C33.64 1201.39 40.33 1201.38 47.01 1201.38 C56.95 1201.37 66.88 1201.37 76.82 1201.37 C93.53 1201.38 110.25 1201.38 126.97 1201.37 C143.52 1201.36 160.08 1201.35 176.64 1201.35 C178.18 1201.35 178.18 1201.35 179.76 1201.35 C183.94 1201.35 188.11 1201.35 192.29 1201.35 C231.49 1201.36 270.69 1201.35 309.9 1201.33 C344.74 1201.32 379.59 1201.31 414.44 1201.31 C416.68 1201.31 418.92 1201.31 421.16 1201.31 C422.26 1201.31 423.37 1201.31 424.51 1201.31 C430.08 1201.31 435.64 1201.31 441.21 1201.31 C442.86 1201.31 442.86 1201.31 444.54 1201.31 C473.64 1201.31 502.73 1201.31 531.83 1201.3 C532.87 1201.3 533.9 1201.3 534.97 1201.3 C539.13 1201.3 543.29 1201.3 547.45 1201.3 C561.94 1201.29 576.43 1201.29 590.93 1201.29 C609.6 1201.29 628.27 1201.29 646.94 1201.28 C656.83 1201.27 666.71 1201.27 676.59 1201.27 C683.18 1201.27 689.77 1201.27 696.37 1201.26 C700.13 1201.26 703.89 1201.26 707.65 1201.26 C711.7 1201.26 715.74 1201.26 719.78 1201.25 C720.96 1201.26 722.14 1201.26 723.35 1201.26 C724.43 1201.26 725.5 1201.26 726.61 1201.25 C727.54 1201.25 728.46 1201.25 729.41 1201.25 C734.14 1201.02 736.78 1200.6 739.99 1197.13 C741.35 1196.29 741.35 1196.29 742.74 1195.44 C748.7 1191.2 753.14 1185.89 755.99 1179.13 C756.34 1178.4 756.69 1177.68 757.05 1176.93 C758.23 1173.4 758.27 1170.11 758.24 1166.43 C758.24 1165.66 758.25 1164.89 758.25 1164.09 C758.26 1161.49 758.25 1158.89 758.24 1156.29 C758.24 1154.4 758.25 1152.51 758.25 1150.63 C758.26 1145.41 758.25 1140.19 758.25 1134.98 C758.24 1129.32 758.25 1123.65 758.25 1117.99 C758.26 1108.06 758.26 1098.12 758.26 1088.19 C758.25 1077.53 758.25 1066.86 758.25 1056.2 C758.25 1055.53 758.25 1054.86 758.25 1054.16 C758.25 1051.42 758.26 1048.68 758.26 1045.94 C758.27 1020.4 758.27 994.86 758.26 969.32 C758.26 968.19 758.26 968.19 758.26 967.03 C758.26 966.27 758.26 965.51 758.26 964.73 C758.26 941.65 758.26 918.56 758.26 895.48 C758.26 893.93 758.26 892.39 758.26 890.84 C758.26 884.63 758.26 878.43 758.26 872.22 C758.26 854.87 758.26 837.51 758.26 820.16 C758.26 818.97 758.26 818.97 758.26 817.76 C758.26 792.57 758.26 767.38 758.26 742.19 C758.26 741.38 758.26 740.56 758.26 739.72 C758.25 726.45 758.25 713.17 758.25 699.9 C758.24 647.26 758.24 594.62 758.25 541.98 C758.25 528.72 758.26 515.45 758.26 502.19 C758.26 501.37 758.26 500.56 758.26 499.72 C758.26 474.55 758.26 449.39 758.26 424.23 C758.26 423.44 758.26 422.65 758.26 421.84 C758.26 404.5 758.26 387.17 758.26 369.83 C758.26 363.63 758.26 357.43 758.26 351.23 C758.26 349.68 758.26 348.14 758.26 346.6 C758.25 323.52 758.26 300.44 758.26 277.36 C758.26 276.6 758.26 275.84 758.26 275.06 C758.26 274.31 758.26 273.55 758.26 272.77 C758.27 247.31 758.27 221.84 758.26 196.38 C758.25 193.65 758.25 190.91 758.25 188.18 C758.25 187.51 758.25 186.84 758.25 186.15 C758.25 174.87 758.25 163.59 758.26 152.3 C758.26 142.5 758.26 132.7 758.25 122.9 C758.25 117.31 758.24 111.72 758.25 106.12 C758.26 101.04 758.25 95.96 758.24 90.88 C758.24 89.05 758.24 87.21 758.25 85.38 C758.26 82.9 758.25 80.42 758.24 77.94 C758.25 77.23 758.25 76.52 758.26 75.79 C758.22 70.56 757.79 65.93 753.99 62.13 C753.34 60.52 753.34 60.52 752.68 58.88 C749.39 51 744.08 47.47 736.61 44.03 C733.77 43.05 731.6 42.88 728.6 42.88 C727.52 42.87 726.44 42.87 725.33 42.86 C723.56 42.87 723.56 42.87 721.75 42.87 C720.49 42.87 719.23 42.87 717.93 42.87 C714.41 42.86 710.9 42.86 707.38 42.87 C703.56 42.87 699.74 42.87 695.92 42.86 C689.22 42.86 682.52 42.86 675.82 42.86 C665.85 42.87 655.89 42.86 645.93 42.86 C628.13 42.85 610.34 42.85 592.55 42.85 C576.98 42.86 561.41 42.86 545.83 42.86 C544.29 42.86 544.29 42.86 542.71 42.86 C538.52 42.86 534.33 42.86 530.14 42.86 C490.84 42.85 451.53 42.86 412.22 42.87 C377.28 42.88 342.33 42.87 307.39 42.87 C268.16 42.85 228.92 42.85 189.69 42.86 C185.51 42.86 181.33 42.86 177.15 42.86 C176.12 42.86 175.09 42.86 174.03 42.86 C158.46 42.86 142.9 42.86 127.34 42.85 C109.65 42.85 91.95 42.85 74.26 42.86 C64.36 42.87 54.45 42.87 44.54 42.86 C37.93 42.85 31.32 42.86 24.71 42.87 C20.94 42.87 17.16 42.87 13.39 42.86 C9.34 42.86 5.28 42.86 1.23 42.87 C0.05 42.87 -1.14 42.86 -2.35 42.86 C-3.43 42.86 -4.51 42.87 -5.62 42.88 C-7.01 42.88 -7.01 42.88 -8.43 42.88 C-11.28 43.15 -13.41 43.95 -16.01 45.13 Z " fill="#f0f0f0" transform="translate(421.0101795196533,17.87415885925293)"/>
<path d="M0 0 C0.78 -0 1.56 -0 2.36 -0.01 C4 -0.01 5.64 -0 7.28 0 C9.77 0.02 12.27 0 14.77 -0.01 C16.37 -0.01 17.96 -0 19.56 0 C20.3 -0 21.04 -0.01 21.81 -0.01 C26.23 0.03 29.71 0.76 33.85 2.27 C36.36 2.66 36.36 2.66 38.85 2.79 C39.76 2.86 40.66 2.93 41.6 3.01 C43.48 3.14 45.36 3.27 47.24 3.39 C52.35 3.79 55.51 4.39 59.85 7.27 C63.16 7.91 66.44 8.27 69.79 8.64 C73.04 9.31 74.3 10.25 76.85 12.27 C79.48 13.15 79.48 13.15 82.29 13.77 C86.32 14.79 89.37 15.94 92.85 18.27 C94.54 19 96.24 19.74 97.95 20.45 C102.93 22.59 107.59 24.89 111.85 28.27 C114.2 29.7 116.57 31.1 118.95 32.5 C119.68 32.94 120.41 33.38 121.16 33.83 C122.21 34.45 122.21 34.45 123.27 35.08 C123.79 35.47 124.31 35.86 124.85 36.27 C124.85 36.93 124.85 37.59 124.85 38.27 C126.83 38.93 128.81 39.59 130.85 40.27 C130.85 41.26 130.85 42.25 130.85 43.27 C131.58 43.36 132.32 43.45 133.08 43.55 C136.26 44.37 137.74 45.51 140.16 47.7 C141.21 48.63 141.21 48.63 142.27 49.57 C143.85 51.27 143.85 51.27 143.85 53.27 C144.53 53.43 145.21 53.6 145.91 53.77 C150.2 55.96 153.04 59.39 155.85 63.27 C155.85 63.93 155.85 64.59 155.85 65.27 C156.84 65.6 157.83 65.93 158.85 66.27 C160.67 68.23 160.67 68.23 162.54 70.64 C163.16 71.43 163.78 72.22 164.42 73.04 C165.85 75.27 165.85 75.27 165.85 78.27 C167.17 78.6 168.49 78.93 169.85 79.27 C169.93 80.05 170.01 80.83 170.1 81.64 C170.35 82.51 170.59 83.37 170.85 84.27 C171.47 84.57 172.09 84.88 172.72 85.2 C175.87 86.78 176.43 89.12 177.85 92.27 C179.39 95.02 180.86 97.28 182.97 99.64 C185.27 102.85 185.54 105.37 185.85 109.27 C186.84 109.6 187.83 109.93 188.85 110.27 C189.95 112.45 189.95 112.45 190.91 115.14 C192.03 118.22 193.01 120.51 194.85 123.27 C195.26 125.75 195.26 125.75 195.47 128.45 C195.58 129.8 195.58 129.8 195.7 131.18 C195.75 131.87 195.8 132.56 195.85 133.27 C196.84 133.6 197.83 133.93 198.85 134.27 C199.04 135.33 199.23 136.38 199.43 137.48 C199.7 138.86 199.96 140.25 200.22 141.64 C200.41 142.69 200.41 142.69 200.61 143.76 C201.35 147.94 201.35 147.94 203.85 151.27 C204.27 153.78 204.59 156.23 204.85 158.77 C205.63 165.76 206.78 172.57 208.34 179.44 C210.74 192.83 210 207.05 209.98 220.59 C209.97 223.8 209.98 227.01 209.98 230.21 C209.99 240.89 209.85 251.56 209.46 262.23 C209.43 263.19 209.4 264.16 209.37 265.15 C209.15 270.57 208.46 275.65 207.3 280.95 C206.65 284.27 206.47 287.55 206.32 290.93 C206.25 292.31 206.18 293.7 206.11 295.08 C206.01 297.21 205.91 299.34 205.82 301.46 C205.5 308.68 205.19 315.42 202.54 322.22 C201.01 326.76 201.01 331.67 200.68 336.42 C200.25 341.45 199.19 344.74 196.85 349.27 C196.14 352.16 195.71 355.07 195.29 358.02 C194.11 366 194.11 366 191.85 368.27 C191.25 371.24 190.89 374.22 190.51 377.22 C189.85 380.27 189.85 380.27 188.42 382.57 C186.2 386.38 185.53 390.29 184.66 394.58 C184.48 395.41 184.31 396.25 184.12 397.11 C183.69 399.16 183.27 401.21 182.85 403.27 C183.84 403.6 184.83 403.93 185.85 404.27 C185.85 404.93 185.85 405.59 185.85 406.27 C186.51 406.27 187.17 406.27 187.85 406.27 C187.85 406.93 187.85 407.59 187.85 408.27 C188.84 408.6 189.83 408.93 190.85 409.27 C195.85 414.61 195.85 414.61 195.85 418.27 C197.17 418.6 198.49 418.93 199.85 419.27 C200.18 420.92 200.51 422.57 200.85 424.27 C201.84 424.6 202.83 424.93 203.85 425.27 C204.95 427.04 204.95 427.04 205.91 429.2 C207.07 431.77 207.82 433.24 209.85 435.27 C210.4 436.73 210.9 438.21 211.35 439.7 C212.26 442.73 213.06 444.58 214.85 447.27 C215.26 449.74 215.59 452.15 215.85 454.64 C216.28 459.65 216.28 459.65 217.86 464.35 C219.34 468.71 219.14 472.94 219.14 477.51 C219.14 478.54 219.15 479.57 219.16 480.63 C219.18 484.04 219.18 487.44 219.18 490.84 C219.19 493.21 219.2 495.58 219.2 497.95 C219.22 502.92 219.22 507.89 219.22 512.86 C219.22 519.22 219.25 525.58 219.28 531.93 C219.3 536.83 219.31 541.73 219.31 546.62 C219.31 548.97 219.32 551.31 219.33 553.65 C219.35 556.93 219.35 560.22 219.33 563.5 C219.34 564.46 219.36 565.42 219.37 566.41 C219.3 573.91 217.56 579.99 212.72 585.83 C210.85 587.27 210.85 587.27 208.85 587.27 C208.52 588.26 208.19 589.25 207.85 590.27 C200.48 593.95 189.73 592.41 181.71 592.39 C180.18 592.39 178.64 592.4 177.1 592.4 C172.9 592.4 168.7 592.4 164.5 592.4 C159.96 592.39 155.42 592.4 150.89 592.4 C142 592.4 133.12 592.4 124.24 592.4 C117.01 592.4 109.79 592.4 102.57 592.4 C101.54 592.4 100.51 592.4 99.46 592.4 C97.37 592.4 95.28 592.4 93.19 592.4 C73.6 592.4 54.02 592.4 34.43 592.4 C17.64 592.39 0.84 592.39 -15.96 592.4 C-35.47 592.4 -54.98 592.4 -74.5 592.4 C-76.58 592.4 -78.66 592.4 -80.74 592.4 C-81.77 592.4 -82.79 592.4 -83.85 592.4 C-91.06 592.4 -98.27 592.4 -105.48 592.4 C-114.27 592.4 -123.06 592.4 -131.85 592.4 C-136.33 592.4 -140.81 592.39 -145.3 592.4 C-149.41 592.4 -153.51 592.4 -157.62 592.39 C-159.1 592.39 -160.59 592.39 -162.07 592.4 C-168.37 592.41 -174.68 592.39 -180.98 592.01 C-181.75 591.96 -182.52 591.92 -183.31 591.87 C-185.15 591.27 -185.15 591.27 -186.29 589.26 C-186.57 588.6 -186.86 587.94 -187.15 587.27 C-189.13 586.6 -189.13 586.6 -191.15 586.27 C-191.81 585.61 -192.47 584.95 -193.15 584.27 C-193.15 583.28 -193.15 582.29 -193.15 581.27 C-194.14 580.94 -195.13 580.61 -196.15 580.27 C-197.36 577.84 -197.29 576.29 -197.3 573.58 C-197.31 572.59 -197.31 571.61 -197.32 570.59 C-197.32 569.5 -197.33 568.41 -197.33 567.29 C-197.34 566.15 -197.34 565 -197.35 563.82 C-197.37 560.03 -197.38 556.23 -197.39 552.43 C-197.39 551.13 -197.4 549.83 -197.4 548.49 C-197.42 542.33 -197.44 536.17 -197.44 530 C-197.45 522.91 -197.48 515.81 -197.52 508.72 C-197.55 503.22 -197.57 497.73 -197.57 492.23 C-197.57 488.96 -197.58 485.68 -197.61 482.41 C-197.63 478.74 -197.63 475.07 -197.62 471.41 C-197.64 470.34 -197.65 469.27 -197.66 468.16 C-197.62 461.74 -196.57 456.64 -194.12 450.69 C-193.19 448.37 -192.57 446.14 -192.03 443.7 C-191.15 440.27 -191.15 440.27 -189.15 438.27 C-188.37 436.47 -188.37 436.47 -187.71 434.45 C-184.23 424.15 -176.65 414.87 -168.15 408.27 C-164.37 405.21 -163.26 404.23 -162.71 399.33 C-163 395.03 -164.08 391.22 -166.16 387.43 C-167.68 384.12 -167.97 380.7 -168.49 377.12 C-169.05 374.17 -169.05 374.17 -170.66 371.35 C-172.81 366.91 -173.02 362.56 -173.53 357.7 C-173.98 354.25 -173.98 354.25 -175.65 351.35 C-177.53 347.49 -177.82 344.12 -178.15 339.89 C-178.5 335.49 -178.9 331.6 -180.65 327.52 C-182.86 322.07 -182.89 316.39 -183.21 310.58 C-183.34 308.37 -183.48 306.15 -183.62 303.94 C-183.71 302.49 -183.71 302.49 -183.79 301 C-184.02 298.29 -184.02 298.29 -185.12 296.04 C-187.89 288.6 -187.3 279.92 -187.31 272.08 C-187.32 271.01 -187.32 269.94 -187.33 268.84 C-187.34 265.34 -187.35 261.83 -187.36 258.32 C-187.36 257.12 -187.36 255.92 -187.36 254.68 C-187.38 248.31 -187.39 241.95 -187.39 235.58 C-187.4 229.02 -187.42 222.46 -187.45 215.9 C-187.47 210.84 -187.47 205.78 -187.48 200.72 C-187.48 198.3 -187.49 195.89 -187.5 193.47 C-187.52 190.08 -187.52 186.7 -187.51 183.32 C-187.52 182.33 -187.53 181.34 -187.54 180.32 C-187.5 174.84 -186.85 170.36 -184.85 165.24 C-183.69 161.97 -183.52 158.78 -183.21 155.33 C-182.62 149.61 -181.49 144.7 -179.1 139.45 C-178.14 137.23 -177.56 135.12 -177.03 132.77 C-176.15 129.27 -176.15 129.27 -174.15 127.27 C-173.33 124.79 -172.69 122.29 -172.03 119.77 C-171.1 117.13 -169.85 115.47 -168.15 113.27 C-167.82 112.05 -167.49 110.83 -167.15 109.58 C-166.82 108.49 -166.49 107.39 -166.15 106.27 C-164.67 105.77 -164.67 105.77 -163.15 105.27 C-162.45 102.94 -161.79 100.61 -161.15 98.27 C-160.19 96.9 -159.19 95.57 -158.15 94.27 C-157.82 93.42 -157.49 92.57 -157.15 91.7 C-156.1 89.13 -155.09 88.2 -153.15 86.27 C-152.16 84.85 -151.21 83.41 -150.28 81.95 C-147.79 78.14 -145.1 74.72 -142.15 71.27 C-141.82 70.61 -141.49 69.95 -141.15 69.27 C-140.16 69.27 -139.17 69.27 -138.15 69.27 C-137.93 68.54 -137.7 67.82 -137.46 67.08 C-135.88 63.69 -133.95 61.72 -131.15 59.27 C-130.16 58.94 -129.17 58.61 -128.15 58.27 C-127.86 57.69 -127.57 57.11 -127.28 56.52 C-125.25 52.45 -122.45 49.7 -118.15 48.27 C-117.31 47.42 -116.46 46.57 -115.59 45.7 C-114.79 44.9 -113.98 44.09 -113.15 43.27 C-112.49 43.27 -111.83 43.27 -111.15 43.27 C-110.82 42.28 -110.49 41.29 -110.15 40.27 C-108.16 39.25 -106.16 38.25 -104.15 37.27 C-103.49 36.28 -102.83 35.29 -102.15 34.27 C-100.18 33.21 -98.18 32.22 -96.15 31.27 C-94.82 30.43 -94.82 30.43 -93.46 29.58 C-91.15 28.27 -91.15 28.27 -88.15 28.27 C-87.97 27.65 -87.78 27.03 -87.59 26.39 C-85.45 23.23 -82.75 23.21 -79.15 22.27 C-78.68 21.75 -78.2 21.23 -77.71 20.7 C-75.04 18.24 -71.69 18.56 -68.15 18.27 C-67.82 17.28 -67.49 16.29 -67.15 15.27 C-64.79 14.42 -64.79 14.42 -61.84 13.77 C-57.73 12.87 -57.73 12.87 -54.2 10.73 C-51.43 8.75 -49.08 8.64 -45.71 8.27 C-41.04 7.79 -41.04 7.79 -36.9 5.77 C-32.69 3.47 -28.38 3.51 -23.65 3.2 C-21.79 3.07 -19.92 2.94 -18.06 2.79 C-17.24 2.74 -16.42 2.68 -15.57 2.63 C-13.11 2.37 -13.11 2.37 -10.86 1.25 C-7.24 -0.07 -3.8 -0.02 0 0 Z M-11.65 45.14 C-12.79 45.22 -13.92 45.3 -15.09 45.38 C-21.25 45.86 -26.64 46.42 -32.18 49.33 C-35.45 50.88 -38.95 51.1 -42.5 51.61 C-45.39 52.33 -46.84 53.42 -49.15 55.27 C-51.49 55.93 -53.82 56.6 -56.15 57.27 C-57.51 58.24 -58.84 59.24 -60.15 60.27 C-62.48 61.28 -64.81 62.28 -67.15 63.27 C-68.83 64.25 -70.49 65.25 -72.15 66.27 C-73.64 66.76 -73.64 66.76 -75.15 67.27 C-75.63 67.74 -76.1 68.21 -76.59 68.7 C-78.31 70.42 -79.95 71.28 -82.15 72.27 C-82.15 72.93 -82.15 73.59 -82.15 74.27 C-84.48 75.47 -86.65 76.43 -89.15 77.27 C-91.89 79.8 -94.08 82.15 -96.15 85.27 C-96.75 85.55 -97.35 85.84 -97.96 86.14 C-101.98 88.21 -104.73 90.99 -106.15 95.27 C-108.69 98 -111.04 100.19 -114.15 102.27 C-115.19 104.25 -116.18 106.25 -117.15 108.27 C-117.87 109.34 -118.6 110.41 -119.34 111.52 C-121.34 114 -121.34 114 -121.15 116.27 C-122.64 116.76 -122.64 116.76 -124.15 117.27 C-125.6 119.91 -126.88 122.54 -128.15 125.27 C-129 126.91 -129.86 128.56 -130.71 130.2 C-132.7 134.14 -134.18 138.02 -135.38 142.26 C-136.15 144.27 -136.15 144.27 -137.64 146.05 C-139.72 149.09 -140.13 152.26 -140.71 155.83 C-141.9 162.89 -141.9 162.89 -144.15 166.27 C-145.36 172.15 -145.29 178 -145.28 183.98 C-145.28 185.04 -145.29 186.1 -145.29 187.18 C-145.29 190.66 -145.29 194.14 -145.29 197.62 C-145.29 200.05 -145.29 202.48 -145.29 204.91 C-145.29 210.01 -145.29 215.1 -145.28 220.19 C-145.28 226.69 -145.28 233.19 -145.29 239.7 C-145.29 244.72 -145.29 249.74 -145.29 254.75 C-145.29 257.15 -145.29 259.55 -145.29 261.94 C-145.29 265.31 -145.29 268.67 -145.28 272.03 C-145.28 273.01 -145.29 273.99 -145.29 274.99 C-145.33 287.41 -145.33 287.41 -142.15 299.27 C-141.84 301.31 -141.59 303.36 -141.41 305.41 C-141.29 306.58 -141.18 307.75 -141.06 308.96 C-140.83 311.41 -140.61 313.85 -140.38 316.3 C-139.75 322.64 -138.85 327.53 -136.15 333.27 C-135.52 337.06 -135.15 340.82 -134.78 344.64 C-134.13 348.39 -132.88 350.91 -131.15 354.27 C-130.53 357.29 -130.16 360.3 -129.78 363.36 C-129.1 366.53 -127.85 368.54 -126.15 371.27 C-125.76 373.59 -125.42 375.92 -125.15 378.27 C-123.95 379.7 -123.95 379.7 -120.4 379.45 C-116.73 379.42 -113.35 378.97 -109.75 378.29 C-99.68 376.69 -89.51 376.8 -79.34 376.64 C-77.28 376.6 -75.22 376.56 -73.16 376.52 C-68.16 376.43 -63.15 376.34 -58.15 376.27 C-54.95 368.87 -55.6 360.85 -58.15 353.27 C-60.39 350.5 -62.54 348.71 -65.4 346.64 C-67.15 345.27 -67.15 345.27 -68.15 342.27 C-69.14 341.94 -70.13 341.61 -71.15 341.27 C-71.84 339.94 -72.5 338.61 -73.15 337.27 C-74.14 336.61 -75.13 335.95 -76.15 335.27 C-76.84 333.94 -77.5 332.61 -78.15 331.27 C-78.83 330.58 -78.83 330.58 -79.53 329.89 C-82.66 326.76 -84.78 323.03 -86.71 319.08 C-87.94 316.31 -87.94 316.31 -89.71 314.77 C-91.78 312.61 -92.22 310.08 -93.15 307.27 C-93.86 306.55 -93.86 306.55 -94.59 305.83 C-97 303.42 -97.85 300.37 -99.15 297.27 C-100.14 296.28 -100.14 296.28 -101.15 295.27 C-101.71 293.81 -102.2 292.32 -102.65 290.83 C-103.57 287.8 -104.36 285.95 -106.15 283.27 C-106.69 281.8 -107.19 280.32 -107.65 278.83 C-108.37 276.53 -109.06 274.45 -110.19 272.32 C-111.73 269.04 -111.98 265.58 -112.49 262.02 C-113.01 259.21 -113.01 259.21 -114.66 256.9 C-116.57 253.52 -116.84 250.31 -117.15 246.52 C-117.53 242.14 -118.05 238.35 -119.7 234.26 C-121.87 228.1 -121.56 221.69 -121.49 215.24 C-121.46 213.07 -121.47 210.9 -121.47 208.73 C-121.45 202.53 -121.39 197.14 -119.15 191.27 C-118.88 190.42 -118.61 189.57 -118.33 188.7 C-116.63 183.9 -114.85 179.45 -110.75 176.25 C-104.01 173.69 -93.89 174.02 -87.15 176.27 C-86.82 176.93 -86.49 177.59 -86.15 178.27 C-73.69 182.42 -55.68 181.03 -43.15 178.27 C-43.15 177.61 -43.15 176.95 -43.15 176.27 C-42.25 176.08 -41.35 175.9 -40.41 175.71 C-38.64 175.34 -38.64 175.34 -36.84 174.95 C-35.67 174.71 -34.5 174.47 -33.29 174.21 C-30.13 173.26 -29.26 172.62 -27.15 170.27 C-25.18 169.39 -25.18 169.39 -23.09 168.7 C-20.35 167.8 -19.25 167.36 -17.15 165.27 C-16.18 164.96 -15.21 164.65 -14.21 164.33 C-11.15 163.26 -10.3 162.51 -8.15 160.27 C-7.31 159.94 -6.46 159.61 -5.59 159.27 C-2.84 158.4 -2.84 158.4 -1.15 155.27 C0.5 154.24 2.17 153.24 3.85 152.27 C6.46 150.23 9 148.12 11.54 146.01 C13.85 144.27 13.85 144.27 16.85 143.27 C17.18 142.61 17.51 141.95 17.85 141.27 C18.85 139.27 18.85 139.27 21.85 138.27 C22.18 137.61 22.51 136.95 22.85 136.27 C23.85 134.27 23.85 134.27 26.85 133.27 C28.33 131.1 28.33 131.1 29.85 128.27 C30.69 126.84 31.55 125.43 32.41 124.02 C32.82 123.33 33.24 122.64 33.66 121.94 C34.85 120.27 34.85 120.27 36.85 119.27 C37.71 115.99 38.32 112.69 38.97 109.37 C39.86 106.23 40.43 105.28 42.85 103.27 C43.51 102.28 44.17 101.29 44.85 100.27 C47.47 99.08 47.47 99.08 49.85 98.27 C49.85 97.61 49.85 96.95 49.85 96.27 C56.85 94.31 62.82 94.41 69.35 97.77 C70.16 98.23 70.98 98.69 71.82 99.17 C73.76 100.42 73.76 100.42 75.85 100.27 C76.18 101.26 76.51 102.25 76.85 103.27 C79.17 104.28 81.51 105.28 83.85 106.27 C84.51 107.26 85.17 108.25 85.85 109.27 C87.17 109.95 88.51 110.62 89.85 111.27 C90.86 112.25 91.86 113.25 92.85 114.27 C93.96 115.23 95.09 116.19 96.22 117.14 C104.49 124.2 104.49 124.2 105.85 128.27 C107.16 129.62 108.5 130.95 109.85 132.27 C112.42 135.12 114.61 137.56 115.85 141.27 C116.51 141.27 117.17 141.27 117.85 141.27 C118.1 142.15 118.34 143.04 118.6 143.95 C119.65 147.28 119.65 147.28 121.79 149.58 C124.16 152.68 125.06 155.47 126.14 159.18 C126.84 161.53 126.84 161.53 128.85 164.27 C129.41 166.7 129.79 169.13 130.19 171.6 C130.75 174.37 130.75 174.37 132.35 176.97 C134.35 181.36 134.58 185.43 134.91 190.2 C135.41 197.08 135.41 197.08 136.89 203.8 C138.11 208.2 138.14 212.23 138.1 216.77 C138.11 217.58 138.11 218.4 138.12 219.24 C138.1 224.31 137.27 228.38 135.85 233.27 C135.29 237.91 135.02 242.59 134.72 247.26 C134.31 252.69 133.54 256.44 130.85 261.27 C130.11 264.32 130.11 264.32 129.72 267.39 C129.24 270.74 128.74 274 127.85 277.27 C127.19 277.27 126.53 277.27 125.85 277.27 C125.67 278 125.48 278.74 125.3 279.5 C123.99 284.58 122.75 288.85 119.85 293.27 C119.52 294.28 119.19 295.29 118.85 296.33 C117.86 299.24 116.67 300.84 114.85 303.27 C114.52 304.28 114.19 305.29 113.85 306.33 C112.83 309.32 111.99 310.12 109.85 312.27 C109.13 314.87 109.13 314.87 108.85 317.27 C107.86 317.6 106.87 317.93 105.85 318.27 C105.54 319.4 105.23 320.53 104.91 321.7 C103.85 325.27 103.85 325.27 101.85 326.45 C100.86 326.86 100.86 326.86 99.85 327.27 C98.71 329.28 98.71 329.28 97.85 331.27 C97.19 331.6 96.53 331.93 95.85 332.27 C94.85 333.93 93.85 335.6 92.85 337.27 C91.43 338.97 89.97 340.63 88.47 342.27 C87.68 343.14 86.88 344.01 86.06 344.9 C82.94 348.24 79.89 351.49 76.23 354.23 C72.73 358.7 73.29 362.57 73.54 368.08 C73.56 369.06 73.58 370.04 73.6 371.04 C73.66 373.45 73.74 375.86 73.85 378.27 C76.44 379.56 78.37 379.42 81.27 379.46 C82.41 379.47 83.54 379.49 84.71 379.51 C86.56 379.53 86.56 379.53 88.45 379.55 C89.71 379.57 90.98 379.58 92.28 379.6 C96.35 379.66 100.41 379.71 104.47 379.77 C109.8 379.83 115.12 379.91 120.45 379.98 C121.67 380 122.89 380.01 124.15 380.03 C130.13 380.11 135.93 380.36 141.85 381.27 C142.03 380.41 142.21 379.55 142.4 378.67 C144.52 369.03 144.52 369.03 146.41 364.64 C148.09 360.69 148.7 356.95 149.32 352.72 C149.85 350.27 149.85 350.27 151.85 347.27 C152.34 343.98 152.68 340.73 152.97 337.42 C153.34 333.9 153.79 331.38 155.32 328.13 C157.92 322.57 157.88 316.23 158.41 310.2 C158.63 307.71 158.86 305.22 159.1 302.73 C159.2 301.63 159.29 300.54 159.39 299.41 C159.85 296.27 159.85 296.27 160.83 293.55 C163.27 285.67 163 277.06 162.98 268.87 C162.98 267.9 162.98 266.92 162.98 265.92 C162.99 262.74 162.98 259.56 162.98 256.38 C162.98 254.15 162.98 251.92 162.98 249.69 C162.98 245.03 162.98 240.38 162.98 235.72 C162.97 229.77 162.98 223.81 162.98 217.86 C162.99 213.26 162.98 208.66 162.98 204.07 C162.98 201.87 162.98 199.68 162.98 197.48 C162.99 194.41 162.98 191.34 162.98 188.27 C162.98 186.92 162.98 186.92 162.98 185.55 C162.96 178.35 162.75 171.92 159.6 165.32 C158.28 161.72 157.95 157.92 157.47 154.13 C156.79 150.99 155.53 148.98 153.85 146.27 C153.24 143.97 152.86 141.7 152.47 139.35 C151.74 136.89 150.68 136.02 148.85 134.27 C148 132.4 148 132.4 147.35 130.39 C146.18 127.06 144.75 124.25 142.85 121.27 C142.17 119.94 141.49 118.61 140.85 117.27 C140.19 117.27 139.53 117.27 138.85 117.27 C138.45 115.81 138.45 115.81 138.04 114.33 C137.64 113.32 137.25 112.31 136.85 111.27 C135.86 110.94 134.87 110.61 133.85 110.27 C133.18 108.27 132.51 106.27 131.85 104.27 C130.55 102.89 129.22 101.55 127.85 100.27 C127.52 99.28 127.19 98.29 126.85 97.27 C123.17 93.24 119.03 89.72 114.93 86.13 C113.18 84.56 111.51 82.94 109.85 81.27 C106.62 78.45 103.69 76.12 99.85 74.27 C99.35 73.75 98.86 73.23 98.35 72.7 C96.92 71.09 96.92 71.09 94.72 70.77 C94.1 70.6 93.49 70.44 92.85 70.27 C92.52 69.28 92.19 68.29 91.85 67.27 C89.53 66.23 87.19 65.24 84.85 64.27 C84.37 63.75 83.9 63.23 83.41 62.7 C80.74 60.25 77.34 60.01 73.85 59.27 C73.85 58.61 73.85 57.95 73.85 57.27 C73.15 57.07 72.45 56.88 71.73 56.68 C70.82 56.42 69.91 56.16 68.97 55.89 C68.07 55.64 67.16 55.38 66.23 55.12 C63.85 54.27 63.85 54.27 61.85 52.27 C59.72 51.7 57.57 51.21 55.41 50.77 C51.55 49.97 49.15 49.47 45.85 47.27 C27.58 42.66 6.95 43.82 -11.65 45.14 Z M70.85 150.27 C69.86 150.93 68.87 151.59 67.85 152.27 C67.85 152.93 67.85 153.59 67.85 154.27 C67.19 154.27 66.53 154.27 65.85 154.27 C64.47 156.24 63.15 158.24 61.85 160.27 C58.89 164.38 55.45 167.43 51.55 170.62 C49.59 172.26 49.59 172.26 48.85 175.27 C47.18 175.94 45.52 176.61 43.85 177.27 C42.51 178.6 41.18 179.93 39.85 181.27 C37.27 183.14 34.64 184.91 31.99 186.68 C29.75 188.09 29.75 188.09 28.85 190.27 C28.06 190.57 27.28 190.88 26.47 191.2 C23.87 192.06 23.87 192.06 22.41 193.7 C20.21 195.91 17.65 196.92 14.85 198.27 C12.13 199.83 9.55 201.47 6.97 203.27 C3.69 205.37 0.46 206.81 -3.15 208.27 C-4.38 208.81 -5.61 209.35 -6.84 209.89 C-10.15 211.27 -10.15 211.27 -12.4 211.77 C-14.27 212.13 -14.27 212.13 -15.46 213.73 C-17.62 215.69 -19.17 215.85 -22.03 216.27 C-25.03 216.71 -26.91 217.11 -29.47 218.76 C-32.94 220.71 -36.27 220.99 -40.15 221.33 C-45.44 221.74 -45.44 221.74 -50.48 223.29 C-54.83 224.88 -59.31 224.7 -63.9 224.83 C-65.81 224.89 -67.73 224.95 -69.64 225.02 C-70.48 225.04 -71.32 225.07 -72.19 225.09 C-74.16 225.05 -74.16 225.05 -75.15 226.27 C-75.65 233.54 -75.72 240.58 -72.14 247.11 C-70.98 249.65 -70.62 251.94 -70.21 254.7 C-69.5 258.93 -68.52 261.66 -66.15 265.27 C-65.33 267.59 -64.6 269.92 -63.9 272.28 C-63.24 274.46 -63.24 274.46 -61.15 276.27 C-60.62 278.11 -60.62 278.11 -60.21 280.2 C-59.45 283.54 -58.69 284.94 -56.15 287.27 C-55.82 288.28 -55.49 289.29 -55.15 290.33 C-54.39 293.55 -54.39 293.55 -51.15 295.27 C-49.96 298.39 -49.96 298.39 -49.15 301.27 C-48.49 301.27 -47.83 301.27 -47.15 301.27 C-46.72 302.41 -46.72 302.41 -46.28 303.58 C-45.19 306.42 -45.19 306.42 -43.15 309.27 C-42.49 309.27 -41.83 309.27 -41.15 309.27 C-40.75 310.47 -40.75 310.47 -40.34 311.7 C-39.95 312.55 -39.56 313.39 -39.15 314.27 C-38.16 314.6 -37.17 314.93 -36.15 315.27 C-35.93 315.97 -35.7 316.67 -35.46 317.39 C-33.03 322.71 -27.83 325.92 -23.34 329.52 C-21.15 331.27 -21.15 331.27 -19.65 332.83 C-15.35 336.95 -7.22 341.27 -1.15 341.27 C-1.15 341.93 -1.15 342.59 -1.15 343.27 C12 345.5 22.34 343.35 33.85 336.27 C35.84 335.25 37.84 334.25 39.85 333.27 C39.85 332.61 39.85 331.95 39.85 331.27 C40.51 331.27 41.17 331.27 41.85 331.27 C41.85 330.61 41.85 329.95 41.85 329.27 C43.5 328.94 45.15 328.61 46.85 328.27 C47.18 327.28 47.51 326.29 47.85 325.27 C48.51 324.96 49.17 324.65 49.85 324.33 C52.05 323.45 52.05 323.45 52.6 321.14 C52.68 320.52 52.76 319.9 52.85 319.27 C53.47 319.18 54.09 319.1 54.72 319.02 C57.01 318.47 57.01 318.47 57.91 316.33 C58.22 315.65 58.53 314.97 58.85 314.27 C59.84 313.61 60.83 312.95 61.85 312.27 C62.86 310.27 63.86 308.27 64.85 306.27 C65.83 305.25 66.83 304.25 67.85 303.27 C70.9 299.45 73.07 295.82 74.85 291.27 C75.85 290.27 76.85 289.27 77.85 288.27 C78.54 286.61 79.21 284.94 79.85 283.27 C80.32 282.48 80.8 281.7 81.29 280.89 C83.13 277.8 84.44 274.58 85.85 271.27 C86.84 269.78 86.84 269.78 87.85 268.27 C88.44 265.96 88.86 263.66 89.29 261.32 C89.85 259.27 89.85 259.27 91.85 257.27 C92.42 254.61 92.92 252 93.35 249.33 C94.58 241.67 94.58 241.67 96.85 238.27 C98.09 230.61 98 222.95 97.97 215.2 C97.98 213.98 97.98 212.75 97.98 211.48 C98.3 200.63 98.3 200.63 95.41 190.39 C93.62 186.81 93.06 183.57 92.47 179.63 C91.76 176.93 90.57 175.44 88.85 173.27 C88.52 172.23 88.19 171.2 87.85 170.14 C87.07 166.98 87.07 166.98 83.85 165.27 C83.41 164.12 83.41 164.12 82.97 162.95 C80.67 157.46 75.37 153.95 70.85 150.27 Z M-9.15 381.27 C-10.87 382.99 -10.45 385.17 -10.53 387.52 C-10.49 392.2 -10.49 392.2 -7.96 396.14 C-7.04 396.84 -6.11 397.54 -5.15 398.27 C-2.63 400.79 -0.11 403.31 2.35 405.89 C4.73 408.15 7 409.65 9.85 411.27 C10.51 411.93 11.17 412.59 11.85 413.27 C12.12 412.63 12.38 411.99 12.66 411.33 C13.85 409.27 13.85 409.27 16.85 408.27 C17.18 407.61 17.51 406.95 17.85 406.27 C18.85 404.27 18.85 404.27 21.85 403.27 C22.18 402.61 22.51 401.95 22.85 401.27 C23.85 399.27 23.85 399.27 26.85 398.27 C27.18 397.61 27.51 396.95 27.85 396.27 C28.85 394.27 28.85 394.27 31.85 393.27 C31.85 389.64 31.85 386.01 31.85 382.27 C30.61 382.22 29.37 382.18 28.1 382.14 C27.4 382.12 26.71 382.09 25.99 382.07 C23.52 382.3 22.03 383.13 19.85 384.27 C10.88 386.27 2.09 385.02 -6.44 381.89 C-8.01 381.21 -8.01 381.21 -9.15 381.27 Z M-127.03 425.39 C-127.81 425.74 -128.59 426.1 -129.39 426.46 C-129.97 426.73 -130.55 426.99 -131.15 427.27 C-131.15 427.93 -131.15 428.59 -131.15 429.27 C-132.24 429.61 -132.24 429.61 -133.34 429.95 C-136.68 431.51 -138.59 433.64 -141.15 436.27 C-142.14 436.6 -143.13 436.93 -144.15 437.27 C-144.48 438.92 -144.81 440.57 -145.15 442.27 C-145.81 442.27 -146.47 442.27 -147.15 442.27 C-147.15 442.93 -147.15 443.59 -147.15 444.27 C-147.81 444.27 -148.47 444.27 -149.15 444.27 C-149.61 445.4 -150.06 446.53 -150.53 447.7 C-152.15 451.27 -152.15 451.27 -154.15 452.27 C-161.15 470.97 -159.77 492.3 -159.5 511.9 C-159.44 516.01 -159.42 520.13 -159.4 524.25 C-159.34 532.25 -159.26 540.26 -159.15 548.27 C-155.02 550.58 -151.31 550.52 -146.67 550.46 C-145.85 550.46 -145.04 550.46 -144.2 550.45 C-141.6 550.44 -139 550.42 -136.4 550.39 C-134.64 550.38 -132.87 550.37 -131.11 550.36 C-126.79 550.34 -122.47 550.31 -118.15 550.27 C-116.91 547.79 -117.03 546.13 -117.03 543.36 C-117.02 542.34 -117.02 541.32 -117.01 540.26 C-117.01 539.16 -117.01 538.05 -117.01 536.91 C-116.99 534.57 -116.97 532.23 -116.95 529.9 C-116.92 526.21 -116.9 522.52 -116.9 518.83 C-116.9 515.27 -116.86 511.71 -116.82 508.16 C-116.83 507.06 -116.84 505.96 -116.85 504.82 C-116.71 496.27 -116.71 496.27 -113.74 492.6 C-111.51 490.59 -109.86 489.44 -107.15 488.27 C-106.7 487.76 -106.25 487.26 -105.78 486.74 C-102.95 484.18 -99.22 484.84 -95.59 484.89 C-94.81 484.88 -94.03 484.87 -93.22 484.86 C-90.96 484.87 -90.96 484.87 -87.15 485.27 C-86.16 486.75 -86.16 486.75 -85.15 488.27 C-84.51 488.55 -83.87 488.84 -83.21 489.14 C-80.48 490.63 -79.68 492.62 -78.15 495.27 C-77.49 495.27 -76.83 495.27 -76.15 495.27 C-76.14 496.25 -76.14 496.25 -76.12 497.26 C-76.01 504.11 -75.9 510.95 -75.78 517.8 C-75.74 520.36 -75.69 522.91 -75.66 525.47 C-75.6 529.14 -75.53 532.81 -75.47 536.48 C-75.45 537.63 -75.44 538.77 -75.42 539.96 C-75.39 541.55 -75.39 541.55 -75.36 543.17 C-75.33 544.58 -75.33 544.58 -75.31 546.01 C-75.29 548.3 -75.29 548.3 -74.15 550.27 C-19.37 550.27 35.41 550.27 91.85 550.27 C92.34 527 92.34 527 92.85 503.27 C93.18 500.63 93.51 497.99 93.85 495.27 C94.84 494.61 95.83 493.95 96.85 493.27 C97.18 492.28 97.51 491.29 97.85 490.27 C99.81 488.88 101.81 487.54 103.85 486.27 C104.18 485.94 104.51 485.61 104.85 485.27 C107.61 485.08 110.33 484.99 113.1 484.95 C113.86 484.92 114.63 484.9 115.41 484.87 C119.44 484.82 121.33 484.92 124.77 487.22 C125.8 488.23 125.8 488.23 126.85 489.27 C127.51 489.6 128.17 489.93 128.85 490.27 C129.51 491.93 130.18 493.6 130.85 495.27 C131.51 495.6 132.17 495.93 132.85 496.27 C133.81 499.15 133.99 501.06 134.04 504.07 C134.05 505.05 134.07 506.02 134.09 507.03 C134.11 508.6 134.11 508.6 134.13 510.21 C134.15 511.29 134.17 512.36 134.18 513.48 C134.26 518.1 134.33 522.72 134.4 527.34 C134.45 530.72 134.51 534.09 134.57 537.46 C134.59 539.04 134.59 539.04 134.61 540.65 C134.62 541.62 134.64 542.59 134.66 543.59 C134.67 544.45 134.68 545.3 134.7 546.19 C134.72 548.33 134.72 548.33 135.85 550.27 C141.1 550.29 146.35 550.31 151.6 550.32 C153.39 550.33 155.18 550.33 156.96 550.34 C159.53 550.35 162.09 550.36 164.66 550.36 C165.86 550.37 165.86 550.37 167.09 550.38 C169.01 550.38 170.93 550.33 172.85 550.27 C174.55 548.56 173.98 546.42 173.99 544.15 C173.99 543.05 173.99 543.05 173.99 541.92 C174 541.15 174 540.38 174 539.59 C174.01 537.03 174.01 534.47 174.02 531.91 C174.02 530.12 174.02 528.34 174.03 526.56 C174.03 522.8 174.03 519.05 174.03 515.3 C174.03 510.52 174.05 505.74 174.06 500.96 C174.07 497.27 174.08 493.58 174.08 489.89 C174.08 488.13 174.08 486.37 174.09 484.61 C175 466.94 175 466.94 168.85 451.27 C168.38 449.78 168.38 449.78 167.91 448.27 C166.71 444.87 165.48 443.68 162.85 441.27 C161.28 439.41 159.74 437.54 158.21 435.66 C157.76 435.2 157.31 434.74 156.85 434.27 C156.19 434.27 155.53 434.27 154.85 434.27 C154.85 433.61 154.85 432.95 154.85 432.27 C153.88 432 152.91 431.73 151.91 431.45 C150.39 430.87 150.39 430.87 148.85 430.27 C148.52 429.28 148.19 428.29 147.85 427.27 C145.96 426.09 145.96 426.09 143.66 425.2 C142.9 424.88 142.15 424.56 141.37 424.23 C140.54 423.91 139.7 423.59 138.85 423.27 C137.96 422.92 137.07 422.58 136.15 422.22 C132.43 421.14 129.3 421.02 125.42 421.02 C124.7 421.02 123.99 421.02 123.25 421.02 C120.89 421.01 118.54 421.02 116.18 421.04 C114.54 421.04 112.89 421.04 111.25 421.04 C107.81 421.04 104.38 421.05 100.94 421.06 C96.54 421.08 92.13 421.08 87.73 421.08 C84.34 421.08 80.95 421.09 77.56 421.09 C75.94 421.1 74.31 421.1 72.69 421.1 C70.42 421.1 68.15 421.11 65.89 421.12 C63.95 421.13 63.95 421.13 61.98 421.13 C58.82 421.12 58.82 421.12 55.85 422.27 C55.11 424.28 55.11 424.28 54.85 426.27 C53.53 426.6 52.21 426.93 50.85 427.27 C50.52 428.59 50.19 429.91 49.85 431.27 C48.53 431.6 47.21 431.93 45.85 432.27 C45.52 433.59 45.19 434.91 44.85 436.27 C43.53 436.6 42.21 436.93 40.85 437.27 C40.52 438.59 40.19 439.91 39.85 441.27 C37.87 441.76 37.87 441.76 35.85 442.27 C35.52 443.59 35.19 444.91 34.85 446.27 C32.87 446.76 32.87 446.76 30.85 447.27 C30.52 448.59 30.19 449.91 29.85 451.27 C29.25 451.35 28.65 451.43 28.04 451.52 C25.24 452.48 24.54 453.91 22.85 456.27 C21.86 456.6 20.87 456.93 19.85 457.27 C19.19 458.26 18.53 459.25 17.85 460.27 C11.73 461.56 4.91 461.91 -1.15 460.27 C-3.15 458.58 -3.15 458.58 -5.15 456.27 C-6.25 455.34 -7.35 454.42 -8.46 453.52 C-11.1 451.29 -13.36 448.96 -15.59 446.33 C-17.95 443.55 -20.37 441.12 -23.15 438.77 C-26.64 435.81 -29.59 432.61 -32.55 429.13 C-36.64 424.23 -36.64 424.23 -42.15 421.27 C-44.5 421.17 -46.84 421.13 -49.19 421.12 C-49.9 421.12 -50.62 421.11 -51.35 421.11 C-53.71 421.1 -56.06 421.1 -58.42 421.1 C-60.06 421.09 -61.7 421.09 -63.34 421.09 C-66.78 421.08 -70.22 421.08 -73.67 421.08 C-78.07 421.08 -82.47 421.07 -86.87 421.05 C-90.26 421.04 -93.65 421.04 -97.04 421.04 C-98.66 421.04 -100.28 421.03 -101.91 421.02 C-104.18 421.01 -106.45 421.02 -108.73 421.02 C-110.02 421.02 -111.31 421.02 -112.64 421.02 C-117.9 421.39 -122.28 423.23 -127.03 425.39 Z " fill="#f0f0f0" transform="translate(771.15234375,109.734375)"/>
<path d="M0 0 C0.96 -0 1.92 -0.01 2.9 -0.01 C6.06 -0.02 9.22 -0.01 12.38 -0.01 C14.58 -0.01 16.77 -0.01 18.97 -0.01 C23.58 -0.02 28.18 -0.01 32.79 -0 C38.69 0.01 44.59 0 50.49 -0.01 C55.03 -0.02 59.56 -0.01 64.1 -0.01 C66.28 -0.01 68.45 -0.01 70.63 -0.01 C73.67 -0.02 76.71 -0.01 79.75 0 C80.65 -0 81.55 -0.01 82.47 -0.01 C86.89 0.02 90.28 0.24 94.31 2.26 C95.26 2.57 96.21 2.88 97.19 3.2 C100.66 4.38 103.95 5.78 107.31 7.26 C107.31 7.92 107.31 8.58 107.31 9.26 C108.42 9.34 109.54 9.42 110.69 9.51 C111.88 9.76 113.08 10 114.31 10.26 C115.44 12.2 115.44 12.2 116.31 14.26 C117.97 14.95 119.63 15.61 121.31 16.26 C121.64 17.25 121.97 18.24 122.31 19.26 C123.27 19.48 123.27 19.48 124.25 19.7 C124.93 19.88 125.61 20.07 126.31 20.26 C127.37 22.2 127.37 22.2 128.31 24.26 C129.3 24.92 130.29 25.58 131.31 26.26 C132.34 27.91 133.34 29.57 134.31 31.26 C135.3 32.25 135.3 32.25 136.31 33.26 C136.71 35.58 137.05 37.92 137.31 40.26 C138.3 40.59 139.29 40.92 140.31 41.26 C140.97 43.04 140.97 43.04 141.37 45.32 C141.6 46.53 141.6 46.53 141.84 47.77 C142.07 49 142.07 49 142.31 50.26 C143.18 53.97 144.1 57.64 145.31 61.26 C145.4 62.68 145.44 64.11 145.44 65.54 C145.44 66.42 145.44 67.3 145.44 68.21 C145.44 69.18 145.44 70.15 145.44 71.15 C145.44 72.18 145.44 73.21 145.44 74.28 C145.44 77.77 145.44 81.27 145.44 84.76 C145.44 87.28 145.44 89.8 145.44 92.32 C145.45 97.81 145.45 103.3 145.44 108.79 C145.44 116.95 145.44 125.12 145.44 133.28 C145.45 147.86 145.45 162.44 145.45 177.02 C145.44 189.78 145.44 202.54 145.44 215.3 C145.44 216.56 145.44 216.56 145.44 217.86 C145.44 221.29 145.44 224.72 145.45 228.15 C145.45 260.35 145.45 292.55 145.44 324.76 C145.44 353.39 145.44 382.02 145.44 410.65 C145.45 442.8 145.45 474.94 145.45 507.08 C145.44 510.51 145.44 513.93 145.44 517.35 C145.44 518.2 145.44 519.04 145.44 519.91 C145.44 532.66 145.44 545.42 145.45 558.17 C145.45 572.66 145.45 587.16 145.44 601.65 C145.44 609.77 145.44 617.89 145.44 626.01 C145.45 632.06 145.44 638.11 145.44 644.16 C145.44 646.62 145.44 649.08 145.44 651.53 C145.44 654.85 145.44 658.17 145.44 661.49 C145.44 662.47 145.44 663.44 145.44 664.44 C145.44 665.32 145.44 666.2 145.44 667.1 C145.44 667.86 145.44 668.62 145.44 669.41 C145.31 671.26 145.31 671.26 144.31 673.26 C143.65 673.26 142.99 673.26 142.31 673.26 C142.28 673.91 142.26 674.56 142.23 675.24 C141.85 681.13 140.94 684.45 137.31 689.26 C136.57 690.93 135.84 692.6 135.15 694.29 C133.41 698.37 131.32 702.3 129.31 706.26 C128.48 707.92 127.64 709.59 126.81 711.26 C118.48 727.93 110.14 744.59 101.81 761.26 C101.4 762.08 100.99 762.91 100.56 763.76 C99.73 765.43 98.88 767.1 98.03 768.76 C95.42 773.85 93.21 778.93 91.3 784.33 C90.31 786.26 90.31 786.26 87.31 787.26 C87.23 788.27 87.15 789.28 87.06 790.32 C86.55 793.97 85.22 796.46 83.29 799.55 C82.12 801.46 82.12 801.46 81.19 804.63 C80.31 807.26 80.31 807.26 78.31 808.26 C77.47 810.55 76.84 812.87 76.19 815.23 C75.9 815.9 75.61 816.57 75.31 817.26 C74.32 817.59 73.33 817.92 72.31 818.26 C72.21 819.52 72.1 820.78 72 822.07 C71.7 825.67 70.85 826.78 68.31 829.26 C67.42 831.35 67.42 831.35 66.81 833.63 C65.7 837.22 64.36 840.1 62.31 843.26 C60.08 847.53 58.11 851.9 56.18 856.31 C55.59 857.64 54.96 858.96 54.31 860.26 C53.65 860.26 52.99 860.26 52.31 860.26 C52.06 861.02 51.82 861.79 51.56 862.57 C49.14 867.77 43.52 870.28 38.31 872.26 C30.52 873.05 24.39 869.96 18.31 865.26 C18.31 864.6 18.31 863.94 18.31 863.26 C17.69 863 17.07 862.75 16.44 862.48 C14 861.08 13.45 860.21 12.31 857.7 C11.98 856.98 11.65 856.27 11.31 855.53 C10.98 854.78 10.65 854.03 10.31 853.26 C9.99 852.54 9.67 851.82 9.35 851.08 C8.69 849.6 8.03 848.11 7.38 846.62 C5.84 843.23 4.15 839.93 2.47 836.61 C1.47 834.58 0.55 832.54 -0.31 830.45 C-1.57 827.53 -3.05 824.97 -4.69 822.26 C-6.29 818.81 -6.69 817.17 -6.69 813.26 C-7.68 812.93 -8.67 812.6 -9.69 812.26 C-11.4 808.94 -11.69 807.07 -11.69 803.26 C-12.68 802.93 -13.67 802.6 -14.69 802.26 C-15.53 800.3 -15.53 800.3 -16.19 797.88 C-17.15 794.38 -18.12 792.76 -20.69 790.26 C-21.57 788.29 -21.57 788.29 -22.25 786.2 C-23.16 783.46 -23.6 782.35 -25.69 780.26 C-26.25 777.6 -26.43 774.97 -26.69 772.26 C-27.68 771.93 -28.67 771.6 -29.69 771.26 C-31.4 767.94 -31.69 766.07 -31.69 762.26 C-32.68 761.93 -33.67 761.6 -34.69 761.26 C-35.79 759.04 -35.79 759.04 -36.75 756.32 C-38.12 752.42 -38.12 752.42 -40.69 749.26 C-41.44 747.32 -42.19 745.38 -42.89 743.42 C-43.64 741.39 -44.48 739.42 -45.38 737.45 C-46.69 734.26 -46.69 734.26 -46.69 731.26 C-47.68 730.93 -48.67 730.6 -49.69 730.26 C-50.42 728.19 -50.42 728.19 -50.88 725.7 C-51.04 724.87 -51.19 724.04 -51.36 723.19 C-51.52 722.24 -51.52 722.24 -51.69 721.26 C-52.35 721.26 -53.01 721.26 -53.69 721.26 C-55.69 718.26 -55.69 718.26 -56.63 714.82 C-57.64 711.43 -58.57 709.97 -60.69 707.26 C-61.74 704.95 -62.73 702.61 -63.69 700.26 C-65.67 695.45 -65.67 695.45 -68.13 690.88 C-69.96 687.81 -71.33 684.63 -72.72 681.34 C-73.73 679.03 -73.73 679.03 -75.69 676.26 C-77.95 664.77 -76.83 652.16 -76.82 640.51 C-76.82 638.08 -76.82 635.65 -76.82 633.21 C-76.82 627.93 -76.82 622.65 -76.82 617.37 C-76.82 609.51 -76.82 601.66 -76.82 593.81 C-76.83 579.78 -76.83 565.74 -76.83 551.71 C-76.82 539.43 -76.82 527.14 -76.82 514.86 C-76.82 514.04 -76.82 513.23 -76.82 512.39 C-76.82 509.08 -76.82 505.77 -76.82 502.45 C-76.83 471.4 -76.82 440.35 -76.82 409.29 C-76.81 381.73 -76.82 354.17 -76.82 326.61 C-76.83 295.62 -76.83 264.64 -76.82 233.65 C-76.82 230.34 -76.82 227.04 -76.82 223.73 C-76.82 222.91 -76.82 222.1 -76.82 221.26 C-76.82 208.99 -76.82 196.73 -76.83 184.46 C-76.83 170.49 -76.83 156.53 -76.82 142.57 C-76.82 134.77 -76.82 126.96 -76.82 119.16 C-76.83 113.31 -76.82 107.47 -76.82 101.63 C-76.82 99.28 -76.82 96.92 -76.82 94.57 C-76.83 83.72 -76.78 72.87 -76.37 62.02 C-76.35 61.21 -76.33 60.39 -76.3 59.55 C-76.09 54.94 -75.44 52.11 -72.69 48.26 C-71.85 45.75 -71.2 43.22 -70.53 40.66 C-69.62 38.07 -68.4 36.38 -66.69 34.26 C-66.19 33.24 -66.19 33.24 -65.69 32.2 C-64.6 30.08 -63.38 28.93 -61.69 27.26 C-59.92 25.15 -58.16 23.03 -56.41 20.9 C-54.69 19.26 -54.69 19.26 -51.69 19.26 C-51.44 18.62 -51.19 17.98 -50.94 17.32 C-49.69 15.26 -49.69 15.26 -47.63 14.7 C-46.67 14.48 -46.67 14.48 -45.69 14.26 C-45.36 13.27 -45.03 12.28 -44.69 11.26 C-41.37 9.55 -39.5 9.26 -35.69 9.26 C-35.36 8.27 -35.03 7.28 -34.69 6.26 C-32.97 5.6 -32.97 5.6 -30.75 5.2 C-29.94 5.04 -29.13 4.88 -28.3 4.72 C-27.44 4.57 -26.58 4.42 -25.69 4.26 C-23.96 3.93 -22.23 3.6 -20.5 3.26 C-19.72 3.11 -18.95 2.97 -18.15 2.82 C-15.63 2.31 -15.63 2.31 -13.14 1.24 C-8.68 -0.03 -4.61 -0.02 0 0 Z M-22.69 47.26 C-23.54 47.88 -24.38 48.5 -25.25 49.13 C-28.05 51.57 -29.13 53.93 -30.69 57.26 C-31.68 57.75 -31.68 57.75 -32.69 58.26 C-33.8 62.11 -33.82 65.86 -33.82 69.85 C-33.82 71.17 -33.83 72.48 -33.83 73.84 C-33.83 75.26 -33.82 76.69 -33.82 78.11 C-33.82 79.58 -33.82 81.05 -33.83 82.52 C-33.83 85.59 -33.82 88.66 -33.82 91.72 C-33.81 95.66 -33.82 99.6 -33.82 103.54 C-33.83 106.56 -33.83 109.59 -33.82 112.62 C-33.82 114.07 -33.82 115.52 -33.83 116.98 C-33.83 119 -33.82 121.03 -33.82 123.05 C-33.82 124.21 -33.82 125.36 -33.82 126.55 C-33.87 129.23 -33.87 129.23 -32.69 131.26 C12.19 131.26 57.07 131.26 103.31 131.26 C104.66 128.56 104.44 126.47 104.44 123.45 C104.44 121.62 104.44 121.62 104.45 119.76 C104.45 118.42 104.45 117.08 104.44 115.75 C104.44 114.38 104.44 113.01 104.45 111.64 C104.45 108.76 104.45 105.88 104.44 103 C104.44 99.33 104.44 95.66 104.44 91.98 C104.45 89.15 104.45 86.31 104.44 83.48 C104.44 81.47 104.45 79.46 104.45 77.45 C104.45 76.22 104.44 74.98 104.44 73.71 C104.44 72.63 104.44 71.55 104.44 70.44 C104.3 66.99 103.85 63.66 103.31 60.26 C102.65 60.26 101.99 60.26 101.31 60.26 C101.08 59.21 100.86 58.16 100.62 57.07 C98.8 50.77 93.72 47.53 88.31 44.26 C83.56 41.77 79.04 41.98 73.81 42.02 C72.86 42.01 71.91 42.01 70.93 42.01 C67.8 42.01 64.66 42.02 61.53 42.03 C59.34 42.03 57.16 42.03 54.98 42.03 C50.42 42.03 45.85 42.04 41.28 42.05 C35.43 42.07 29.57 42.07 23.71 42.07 C19.21 42.07 14.71 42.08 10.21 42.09 C8.05 42.09 5.89 42.09 3.73 42.09 C0.71 42.09 -2.3 42.1 -5.32 42.11 C-6.21 42.11 -7.11 42.11 -8.03 42.11 C-8.85 42.12 -9.67 42.12 -10.52 42.13 C-11.23 42.13 -11.95 42.13 -12.68 42.13 C-17.51 42.44 -19.39 43.75 -22.69 47.26 Z M-32.69 176.26 C-34.21 179.3 -33.83 182.45 -33.82 185.78 C-33.82 186.57 -33.82 187.36 -33.82 188.17 C-33.82 190.84 -33.82 193.51 -33.82 196.18 C-33.82 198.11 -33.82 200.03 -33.82 201.95 C-33.83 207.26 -33.82 212.57 -33.82 217.87 C-33.82 223.59 -33.82 229.3 -33.82 235.02 C-33.83 246.22 -33.83 257.42 -33.82 268.63 C-33.82 277.73 -33.82 286.83 -33.82 295.93 C-33.82 297.22 -33.82 298.51 -33.82 299.84 C-33.82 302.47 -33.82 305.1 -33.82 307.72 C-33.83 331.67 -33.82 355.61 -33.82 379.56 C-33.81 401.44 -33.82 423.32 -33.82 445.2 C-33.83 469.76 -33.83 494.32 -33.82 518.88 C-33.82 521.49 -33.82 524.11 -33.82 526.72 C-33.82 528.01 -33.82 529.3 -33.82 530.63 C-33.82 539.72 -33.82 548.82 -33.83 557.91 C-33.83 568.99 -33.83 580.06 -33.82 591.14 C-33.82 596.8 -33.82 602.45 -33.82 608.11 C-33.83 613.28 -33.82 618.45 -33.82 623.62 C-33.82 625.5 -33.82 627.38 -33.82 629.25 C-33.82 631.79 -33.82 634.33 -33.82 636.86 C-33.82 637.61 -33.82 638.35 -33.82 639.12 C-34.11 642.47 -34.11 642.47 -32.69 645.26 C-31.25 645.36 -29.81 645.39 -28.37 645.39 C-27.45 645.39 -26.53 645.39 -25.59 645.4 C-24.59 645.4 -23.59 645.39 -22.56 645.39 C-21.04 645.39 -21.04 645.39 -19.48 645.39 C-17.33 645.4 -15.17 645.39 -13.02 645.39 C-9.7 645.38 -6.39 645.39 -3.08 645.4 C-0.99 645.39 1.1 645.39 3.19 645.39 C4.68 645.39 4.68 645.39 6.21 645.4 C7.13 645.39 8.04 645.39 8.99 645.39 C9.8 645.39 10.61 645.39 11.45 645.39 C13.33 645.46 13.33 645.46 14.31 644.26 C14.41 641.78 14.44 639.34 14.44 636.86 C14.44 636.08 14.44 635.29 14.44 634.48 C14.44 631.81 14.44 629.13 14.44 626.46 C14.44 624.54 14.44 622.62 14.44 620.7 C14.45 615.39 14.44 610.08 14.44 604.78 C14.44 599.06 14.44 593.35 14.45 587.64 C14.45 576.43 14.45 565.23 14.45 554.03 C14.44 544.93 14.44 535.83 14.44 526.72 C14.44 524.79 14.44 524.79 14.44 522.81 C14.44 520.18 14.45 517.56 14.45 514.93 C14.45 490.98 14.45 467.04 14.44 443.09 C14.44 421.21 14.44 399.33 14.44 377.45 C14.45 352.89 14.45 328.33 14.45 303.78 C14.44 301.16 14.44 298.54 14.44 295.93 C14.44 294.64 14.44 293.35 14.44 292.02 C14.44 282.93 14.44 273.84 14.45 264.74 C14.45 253.66 14.45 242.59 14.44 231.51 C14.44 225.85 14.44 220.2 14.44 214.54 C14.45 209.37 14.44 204.2 14.44 199.03 C14.44 197.15 14.44 195.27 14.44 193.39 C14.44 190.86 14.44 188.32 14.44 185.78 C14.44 185.04 14.44 184.3 14.44 183.53 C14.49 179.77 14.49 179.77 13.31 176.26 C-1.87 176.26 -17.05 176.26 -32.69 176.26 Z M57.31 176.26 C55.79 179.3 56.18 182.45 56.19 185.78 C56.19 186.57 56.18 187.36 56.18 188.17 C56.18 190.85 56.19 193.52 56.19 196.19 C56.19 198.11 56.19 200.04 56.19 201.96 C56.19 207.27 56.19 212.58 56.19 217.89 C56.2 223.6 56.2 229.32 56.2 235.04 C56.2 244.95 56.2 254.86 56.2 264.77 C56.21 279.1 56.22 293.43 56.22 307.76 C56.22 331.01 56.23 354.26 56.23 377.51 C56.24 400.09 56.25 422.68 56.26 445.27 C56.26 445.97 56.26 446.66 56.26 447.38 C56.26 454.37 56.26 461.36 56.26 468.35 C56.27 526.98 56.29 585.62 56.31 644.26 C72.15 644.26 87.99 644.26 104.31 644.26 C104.33 584.93 104.35 525.6 104.36 466.26 C104.36 459.27 104.36 452.27 104.37 445.27 C104.37 444.23 104.37 444.23 104.37 443.16 C104.37 420.57 104.38 397.99 104.39 375.4 C104.4 351.54 104.4 327.68 104.4 303.82 C104.41 289.51 104.41 275.21 104.42 260.91 C104.42 251.12 104.43 241.32 104.42 231.53 C104.42 225.87 104.42 220.21 104.43 214.55 C104.43 209.38 104.43 204.21 104.43 199.04 C104.43 197.16 104.43 195.28 104.44 193.4 C104.44 190.86 104.44 188.32 104.43 185.78 C104.44 184.67 104.44 184.67 104.44 183.53 C104.49 179.77 104.49 179.77 103.31 176.26 C88.13 176.26 72.95 176.26 57.31 176.26 Z M-19.69 689.26 C-18.74 693.92 -18.74 693.92 -16.19 697.76 C-13.84 700.11 -13.57 703.11 -12.69 706.26 C-11.72 707.61 -10.72 708.95 -9.69 710.26 C-8.95 711.93 -8.21 713.61 -7.52 715.31 C-6.07 718.71 -4.36 721.97 -2.69 725.26 C3.71 725.62 9.48 725.11 15.75 723.76 C29.21 720.96 42.4 721.47 55.74 724.59 C61.6 725.69 67.37 725.51 73.31 725.26 C73.67 724.44 73.67 724.44 74.04 723.61 C74.75 722.02 75.46 720.43 76.17 718.84 C76.9 717.17 77.64 715.51 78.36 713.83 C79.76 710.63 81.12 707.57 82.94 704.57 C84.46 702.2 84.46 702.2 85.37 699.01 C86.31 696.26 86.31 696.26 88.31 695.26 C89.06 691.78 89.06 691.78 89.31 688.26 C87.77 686.71 86.33 687.13 84.18 687.13 C83.29 687.12 82.4 687.12 81.48 687.11 C80 687.11 80 687.11 78.5 687.11 C76.95 687.11 76.95 687.11 75.37 687.1 C71.95 687.09 68.52 687.09 65.1 687.09 C62.73 687.09 60.35 687.08 57.98 687.08 C53.01 687.07 48.03 687.07 43.06 687.07 C36.67 687.07 30.28 687.06 23.88 687.04 C18.99 687.03 14.09 687.03 9.19 687.03 C6.84 687.03 4.48 687.02 2.12 687.02 C-1.17 687.01 -4.46 687.01 -7.75 687.02 C-8.73 687.01 -9.71 687 -10.73 687 C-12.06 687.01 -12.06 687.01 -13.43 687.01 C-14.6 687.01 -14.6 687.01 -15.79 687.01 C-17.93 687.09 -17.93 687.09 -19.69 689.26 Z M17.31 763.26 C17.06 766.63 17.06 766.63 17.31 770.26 C18.29 771.28 19.29 772.28 20.31 773.26 C21.19 775.23 21.19 775.23 21.87 777.32 C22.78 780.06 23.22 781.17 25.31 783.26 C26.07 785.2 26.82 787.14 27.52 789.09 C29.09 793.39 30.76 797.43 33.31 801.26 C37.16 796.46 40.11 792.06 42.31 786.26 C42.99 784.46 43.68 782.67 44.37 780.88 C44.69 780.03 45.01 779.18 45.35 778.3 C46.31 776.26 46.31 776.26 48.31 775.26 C49.23 772.45 49.23 772.45 49.94 769.2 C50.2 768.09 50.46 766.99 50.72 765.85 C50.92 764.99 51.11 764.14 51.31 763.26 C47.64 762.42 44.25 762.13 40.49 762.13 C39.4 762.12 38.31 762.12 37.18 762.12 C36.05 762.13 34.91 762.13 33.75 762.13 C32.61 762.13 31.48 762.13 30.3 762.12 C29.21 762.12 28.12 762.12 26.99 762.13 C26 762.13 25 762.13 23.98 762.13 C21.6 762.24 19.59 762.58 17.31 763.26 Z " fill="#f0f0f0" transform="translate(134.689697265625,278.7412109375)"/>
<path d="M0 0 C2.31 -0.01 4.61 -0.02 6.92 -0.03 C13.17 -0.05 19.41 -0.05 25.65 -0.05 C30.87 -0.05 36.1 -0.06 41.32 -0.07 C54.34 -0.09 67.36 -0.09 80.39 -0.08 C91.68 -0.07 102.97 -0.1 114.25 -0.13 C125.87 -0.16 137.49 -0.18 149.1 -0.17 C155.62 -0.17 162.13 -0.18 168.64 -0.2 C174.76 -0.22 180.89 -0.22 187.01 -0.2 C189.25 -0.2 191.49 -0.2 193.73 -0.22 C217.82 -0.36 217.82 -0.36 227.24 6.94 C233.8 13.52 233.5 23.23 233.55 31.96 C233.54 33.15 233.54 34.35 233.53 35.58 C233.53 36.88 233.54 38.17 233.54 39.51 C233.55 43.08 233.55 46.65 233.54 50.22 C233.53 54.08 233.54 57.94 233.55 61.8 C233.56 69.35 233.55 76.91 233.55 84.46 C233.54 90.6 233.54 96.74 233.55 102.88 C233.55 103.76 233.55 104.63 233.55 105.53 C233.55 107.31 233.55 109.09 233.55 110.87 C233.55 127.53 233.55 144.19 233.54 160.85 C233.53 175.14 233.53 189.42 233.54 203.7 C233.55 220.3 233.55 236.91 233.55 253.51 C233.55 255.28 233.55 257.05 233.55 258.82 C233.54 259.7 233.54 260.57 233.54 261.47 C233.54 267.6 233.55 273.73 233.55 279.86 C233.56 287.33 233.55 294.81 233.54 302.28 C233.54 306.09 233.54 309.9 233.54 313.72 C233.55 317.85 233.54 321.99 233.53 326.13 C233.54 327.32 233.54 328.52 233.55 329.75 C233.48 344.69 233.48 344.69 231.28 350.42 C229.26 351.59 229.26 351.59 227.28 352.42 C226.97 353.1 226.66 353.78 226.34 354.48 C225.99 355.12 225.64 355.76 225.28 356.42 C222.65 357.17 222.65 357.17 220.28 357.42 C220.28 358.08 220.28 358.74 220.28 359.42 C215.44 361.93 210.83 361.71 205.53 361.7 C204.54 361.71 203.55 361.71 202.53 361.72 C199.21 361.74 195.89 361.74 192.58 361.74 C190.2 361.75 187.82 361.76 185.45 361.77 C178.99 361.8 172.53 361.81 166.06 361.82 C162.03 361.83 157.99 361.83 153.95 361.84 C142.76 361.87 131.58 361.89 120.39 361.9 C119.31 361.9 119.31 361.9 118.22 361.9 C117.14 361.9 117.14 361.9 116.04 361.9 C114.59 361.9 113.14 361.9 111.68 361.9 C110.96 361.9 110.24 361.9 109.5 361.9 C97.82 361.91 86.15 361.94 74.48 361.99 C62.48 362.04 50.48 362.06 38.48 362.07 C31.75 362.07 25.02 362.08 18.29 362.12 C11.96 362.15 5.62 362.15 -0.71 362.14 C-3.03 362.13 -5.36 362.14 -7.68 362.16 C-30.71 362.35 -30.71 362.35 -38.72 355.42 C-45.67 348.04 -46.73 341.64 -46.61 331.75 C-46.62 330.39 -46.63 329.02 -46.64 327.66 C-46.67 323.94 -46.66 320.21 -46.64 316.49 C-46.62 312.47 -46.65 308.44 -46.67 304.42 C-46.7 296.55 -46.69 288.67 -46.67 280.8 C-46.65 274.4 -46.65 268 -46.66 261.6 C-46.66 260.23 -46.66 260.23 -46.66 258.84 C-46.66 256.99 -46.67 255.13 -46.67 253.28 C-46.69 235.92 -46.67 218.56 -46.63 201.2 C-46.6 186.32 -46.6 171.43 -46.64 156.54 C-46.67 139.24 -46.69 121.94 -46.67 104.64 C-46.66 102.8 -46.66 100.95 -46.66 99.1 C-46.66 98.2 -46.66 97.29 -46.66 96.35 C-46.65 89.96 -46.66 83.57 -46.68 77.18 C-46.7 69.39 -46.69 61.6 -46.65 53.81 C-46.64 49.84 -46.63 45.87 -46.65 41.89 C-46.67 38.25 -46.66 34.61 -46.62 30.97 C-46.61 29.04 -46.63 27.11 -46.66 25.17 C-46.53 16.9 -44.68 12.22 -38.72 6.42 C-28.56 -2.05 -12.31 -0.02 0 0 Z M-2.72 45.42 C-3.9 47.78 -3.85 49.18 -3.85 51.81 C-3.85 52.73 -3.85 53.66 -3.86 54.62 C-3.85 55.64 -3.85 56.67 -3.85 57.73 C-3.85 58.81 -3.85 59.89 -3.85 61.01 C-3.86 64.67 -3.85 68.33 -3.85 71.99 C-3.85 74.6 -3.85 77.21 -3.86 79.82 C-3.86 86.2 -3.86 92.58 -3.86 98.95 C-3.86 104.13 -3.86 109.31 -3.86 114.5 C-3.86 115.23 -3.86 115.97 -3.86 116.73 C-3.86 118.22 -3.86 119.72 -3.86 121.22 C-3.86 135.26 -3.86 149.3 -3.85 163.35 C-3.85 175.4 -3.85 187.45 -3.85 199.51 C-3.86 213.49 -3.86 227.48 -3.86 241.47 C-3.86 242.96 -3.86 244.45 -3.86 245.94 C-3.86 246.68 -3.86 247.41 -3.86 248.17 C-3.85 253.34 -3.86 258.52 -3.86 263.69 C-3.86 270.66 -3.86 277.62 -3.85 284.59 C-3.85 287.15 -3.85 289.71 -3.86 292.27 C-3.86 295.76 -3.85 299.25 -3.85 302.73 C-3.85 303.75 -3.85 304.77 -3.86 305.82 C-3.85 306.76 -3.85 307.69 -3.85 308.66 C-3.85 309.46 -3.85 310.27 -3.85 311.1 C-3.71 313.61 -3.27 315.96 -2.72 318.42 C22.39 318.49 47.5 318.54 72.61 318.58 C84.27 318.59 95.93 318.61 107.59 318.65 C117.75 318.68 127.91 318.7 138.07 318.7 C143.45 318.71 148.84 318.72 154.22 318.74 C159.28 318.76 164.34 318.76 169.4 318.76 C171.26 318.76 173.13 318.77 174.99 318.78 C177.52 318.79 180.06 318.79 182.59 318.78 C183.33 318.79 184.07 318.8 184.84 318.81 C188.64 318.82 188.64 318.82 191.97 317.18 C193.64 314.93 193.65 313.66 193.65 310.87 C193.65 309.93 193.66 308.99 193.66 308.02 C193.66 306.98 193.65 305.95 193.64 304.88 C193.64 303.79 193.64 302.69 193.65 301.56 C193.65 297.87 193.63 294.17 193.62 290.48 C193.62 287.84 193.62 285.2 193.62 282.56 C193.62 276.86 193.61 271.17 193.59 265.47 C193.57 257.24 193.56 249 193.56 240.77 C193.55 227.41 193.53 214.05 193.5 200.69 C193.48 187.71 193.46 174.74 193.44 161.76 C193.44 160.96 193.44 160.16 193.44 159.33 C193.44 155.32 193.43 151.31 193.43 147.3 C193.4 114.01 193.34 80.71 193.28 47.42 C189.33 45.24 185.94 45.14 181.51 45.18 C180.72 45.18 179.93 45.18 179.12 45.17 C176.48 45.17 173.84 45.18 171.2 45.19 C169.31 45.19 167.41 45.19 165.52 45.19 C160.38 45.19 155.24 45.2 150.1 45.22 C144.73 45.23 139.36 45.23 133.99 45.23 C123.82 45.24 113.65 45.26 103.48 45.28 C91.9 45.3 80.32 45.31 68.74 45.32 C44.92 45.34 21.1 45.38 -2.72 45.42 Z " fill="#f0f0f0" transform="translate(499.722412109375,789.580078125)"/>
<path d="M0 0 C0.98 -0 1.95 -0.01 2.96 -0.01 C6.25 -0.02 9.55 -0.03 12.84 -0.03 C15.2 -0.04 17.55 -0.04 19.9 -0.05 C26.98 -0.07 34.06 -0.08 41.15 -0.09 C44.48 -0.09 47.82 -0.1 51.16 -0.1 C62.26 -0.12 73.36 -0.13 84.46 -0.14 C87.34 -0.14 90.22 -0.15 93.1 -0.15 C94.18 -0.15 94.18 -0.15 95.27 -0.15 C106.85 -0.16 118.44 -0.18 130.02 -0.22 C141.92 -0.25 153.82 -0.27 165.72 -0.27 C172.4 -0.27 179.07 -0.28 185.75 -0.31 C192.04 -0.33 198.33 -0.33 204.62 -0.32 C206.92 -0.32 209.23 -0.33 211.53 -0.34 C240.06 -0.5 240.06 -0.5 248.51 7.15 C250.7 10.15 250.7 10.15 250.7 14.15 C251.69 14.48 252.68 14.81 253.7 15.15 C255.39 20.22 255.58 24.07 253.5 28.98 C249.15 37.16 245.51 41.37 236.66 44.36 C232.1 45.57 227.8 45.7 223.11 45.66 C221.6 45.67 221.6 45.67 220.06 45.68 C216.72 45.7 213.38 45.69 210.04 45.68 C207.63 45.69 205.23 45.7 202.82 45.71 C196.98 45.73 191.14 45.73 185.3 45.72 C180.55 45.71 175.8 45.71 171.05 45.72 C170.03 45.72 170.03 45.72 168.99 45.72 C167.61 45.73 166.24 45.73 164.86 45.73 C151.96 45.75 139.06 45.74 126.17 45.72 C114.39 45.71 102.61 45.72 90.83 45.75 C78.71 45.78 66.59 45.79 54.47 45.78 C53.09 45.78 51.72 45.78 50.35 45.78 C49.67 45.78 49 45.78 48.3 45.78 C43.56 45.77 38.82 45.78 34.08 45.8 C27.69 45.82 21.3 45.81 14.92 45.79 C12.58 45.78 10.24 45.78 7.9 45.8 C-16.56 45.92 -16.56 45.92 -24.9 38.78 C-29.04 34.32 -31.89 28.67 -32.86 22.71 C-31.75 15.63 -27.81 9.69 -22.3 5.15 C-19.86 3.96 -19.86 3.96 -17.3 3.15 C-16.25 2.8 -15.2 2.45 -14.11 2.08 C-13.19 1.78 -12.26 1.47 -11.3 1.15 C-7.84 -0.59 -3.82 -0 0 0 Z " fill="#f0f0f0" transform="translate(836.3023223876953,789.8528289794922)"/>
<path d="M0 0 C1.03 -0 2.05 -0 3.11 -0.01 C6.54 -0.01 9.97 -0.01 13.41 -0.01 C15.87 -0.01 18.33 -0.02 20.79 -0.02 C26.79 -0.03 32.78 -0.03 38.77 -0.03 C43.65 -0.03 48.52 -0.04 53.39 -0.04 C67.21 -0.05 81.03 -0.05 94.85 -0.05 C95.59 -0.05 96.34 -0.05 97.1 -0.05 C97.85 -0.05 98.59 -0.05 99.36 -0.05 C111.45 -0.05 123.53 -0.06 135.61 -0.07 C148.03 -0.09 160.44 -0.1 172.85 -0.1 C179.82 -0.09 186.79 -0.1 193.76 -0.11 C200.31 -0.12 206.86 -0.12 213.41 -0.11 C215.81 -0.11 218.22 -0.11 220.62 -0.12 C223.9 -0.13 227.18 -0.12 230.47 -0.11 C231.42 -0.12 232.37 -0.12 233.35 -0.13 C238.52 -0.1 242.97 0.19 247.8 2.13 C248.13 3.12 248.46 4.11 248.8 5.13 C249.58 5.4 250.36 5.67 251.17 5.95 C254.77 7.57 255.3 9.56 256.8 13.13 C257.19 13.75 257.58 14.37 257.98 15.01 C259.27 18.38 259.33 21.61 258.8 25.13 C257.55 27.8 256.48 29.8 254.8 32.13 C254.41 32.68 254.03 33.23 253.63 33.8 C250.81 37.5 248.04 39.33 243.8 41.13 C243.17 41.48 242.54 41.83 241.89 42.2 C239.55 43.25 237.97 43.39 235.42 43.4 C234.1 43.41 234.1 43.41 232.76 43.42 C231.8 43.42 230.85 43.42 229.86 43.41 C228.33 43.42 228.33 43.42 226.77 43.43 C223.34 43.45 219.91 43.45 216.48 43.46 C214.02 43.47 211.56 43.48 209.11 43.49 C202.43 43.51 195.75 43.53 189.07 43.53 C184.9 43.54 180.72 43.55 176.55 43.56 C164.98 43.58 153.42 43.6 141.86 43.61 C140.75 43.61 140.75 43.61 139.62 43.61 C138.5 43.61 138.5 43.61 137.37 43.61 C135.87 43.61 134.36 43.61 132.86 43.61 C131.74 43.61 131.74 43.61 130.6 43.62 C118.53 43.62 106.46 43.66 94.4 43.7 C82 43.75 69.6 43.78 57.2 43.78 C50.24 43.78 43.28 43.79 36.32 43.83 C29.77 43.86 23.22 43.87 16.67 43.85 C14.27 43.85 11.87 43.86 9.48 43.88 C-14.32 44.06 -14.32 44.06 -22.2 37.13 C-26.7 31.68 -28.93 25.14 -28.61 18.07 C-28.14 15.85 -27.3 14.11 -26.2 12.13 C-25.54 12.13 -24.88 12.13 -24.2 12.13 C-24.18 11.43 -24.16 10.73 -24.14 10.01 C-22.77 5.81 -19.97 3.37 -16.2 1.13 C-10.82 -0.09 -5.49 -0.01 0 0 Z " fill="#f0f0f0" transform="translate(832.2033538818359,1107.8662872314453)"/>
<path d="M0 0 C0.99 -0 1.99 -0 3.01 -0 C6.32 -0.01 9.63 -0.01 12.94 -0 C15.32 -0 17.7 -0.01 20.08 -0.01 C25.86 -0.01 31.65 -0.01 37.43 -0.01 C42.13 -0.01 46.83 -0.01 51.54 -0.01 C52.21 -0.01 52.88 -0.01 53.57 -0.01 C54.93 -0.01 56.29 -0.01 57.66 -0.01 C70.42 -0.01 83.18 -0.01 95.94 -0 C106.87 0 117.81 0 128.75 -0 C141.46 -0.01 154.18 -0.01 166.9 -0.01 C168.25 -0.01 169.61 -0.01 170.97 -0.01 C171.64 -0.01 172.3 -0.01 172.99 -0.01 C177.69 -0.01 182.38 -0.01 187.07 -0.01 C193.4 -0.01 199.72 -0.01 206.04 -0 C208.36 -0 210.68 -0 213 -0.01 C216.17 -0.01 219.34 -0 222.51 0 C223.42 -0 224.33 -0 225.27 -0.01 C240.46 0.04 240.46 0.04 244.13 3.13 C244.93 4.12 244.93 4.12 245.75 5.13 C246.74 5.46 247.73 5.79 248.75 6.13 C250.1 7.83 250.1 7.83 251.38 9.94 C251.8 10.63 252.23 11.31 252.67 12.02 C254.88 16.32 255.29 20.33 254.75 25.13 C252.36 30.7 249.98 35.8 244.75 39.13 C243.27 40.14 243.27 40.14 241.76 41.18 C237.08 43.83 232.61 43.69 227.34 43.66 C226.3 43.66 225.26 43.67 224.2 43.68 C220.73 43.7 217.27 43.7 213.8 43.69 C211.31 43.7 208.83 43.71 206.34 43.73 C200.29 43.76 194.24 43.76 188.19 43.76 C183.27 43.76 178.34 43.77 173.42 43.78 C157.94 43.81 142.46 43.82 126.97 43.81 C114.77 43.81 102.57 43.84 90.37 43.88 C77.83 43.93 65.28 43.95 52.74 43.95 C45.71 43.95 38.67 43.95 31.64 43.99 C25.02 44.02 18.4 44.02 11.78 43.99 C9.36 43.99 6.93 43.99 4.5 44.02 C-17.66 44.19 -17.66 44.19 -24.69 37.9 C-28.87 33.13 -32.39 27.6 -33 21.13 C-32.55 15.67 -29.4 10.49 -26.25 6.13 C-25.26 5.8 -24.27 5.47 -23.25 5.13 C-22.71 4.47 -22.17 3.81 -21.62 3.13 C-16.23 -1.41 -6.75 -0.02 0 0 Z " fill="#f0f0f0" transform="translate(836.2469482421875,897.8730163574219)"/>
<path d="M0 0 C1.02 -0 2.05 -0 3.1 -0.01 C6.52 -0.01 9.94 -0.01 13.36 -0.01 C15.81 -0.01 18.26 -0.02 20.72 -0.02 C26.69 -0.03 32.66 -0.03 38.63 -0.03 C43.48 -0.03 48.33 -0.04 53.18 -0.04 C66.95 -0.05 80.71 -0.05 94.47 -0.05 C95.21 -0.05 95.95 -0.05 96.72 -0.05 C97.83 -0.05 97.83 -0.05 98.97 -0.05 C111 -0.05 123.04 -0.06 135.08 -0.07 C147.44 -0.09 159.8 -0.1 172.17 -0.1 C179.11 -0.09 186.05 -0.1 192.99 -0.11 C199.51 -0.12 206.03 -0.12 212.56 -0.11 C214.95 -0.11 217.35 -0.11 219.74 -0.12 C223.01 -0.13 226.28 -0.12 229.54 -0.11 C230.97 -0.12 230.97 -0.12 232.42 -0.13 C240.12 -0.09 245.39 1.27 251.17 6.49 C253.32 8.79 254.51 11.23 255.71 14.13 C256.1 14.77 256.49 15.41 256.9 16.07 C258.42 19.94 258.27 23.76 256.71 27.57 C256.38 28.09 256.05 28.6 255.71 29.13 C255.05 29.13 254.39 29.13 253.71 29.13 C253.63 29.88 253.54 30.62 253.46 31.38 C252.54 34.75 251.45 36 248.71 38.13 C245.96 38.88 245.96 38.88 243.71 39.13 C243.71 39.79 243.71 40.45 243.71 41.13 C240.78 42.8 238.67 43.39 235.31 43.4 C233.99 43.41 233.99 43.41 232.65 43.42 C231.2 43.42 231.2 43.42 229.73 43.42 C228.71 43.43 227.68 43.43 226.63 43.44 C223.18 43.46 219.74 43.47 216.3 43.47 C213.83 43.48 211.36 43.49 208.9 43.51 C201.49 43.54 194.09 43.56 186.68 43.57 C183.19 43.58 179.7 43.59 176.21 43.6 C164.6 43.63 152.99 43.65 141.38 43.66 C140.26 43.66 140.26 43.66 139.13 43.66 C138.38 43.66 137.64 43.66 136.87 43.66 C135.36 43.67 133.85 43.67 132.34 43.67 C131.22 43.67 131.22 43.67 130.08 43.67 C117.96 43.68 105.84 43.73 93.72 43.78 C81.28 43.84 68.83 43.87 56.38 43.87 C49.39 43.88 42.4 43.89 35.42 43.93 C28.84 43.98 22.27 43.98 15.69 43.96 C13.28 43.96 10.87 43.97 8.46 44 C-13.51 44.2 -13.51 44.2 -21.55 37.93 C-24.56 34.83 -25.29 33.56 -25.29 29.13 C-25.95 29.13 -26.61 29.13 -27.29 29.13 C-29.79 25.39 -29.74 21.47 -29.29 17.13 C-28.29 14.13 -28.29 14.13 -27.29 12.13 C-26.63 12.13 -25.97 12.13 -25.29 12.13 C-25.04 11.16 -24.8 10.19 -24.54 9.2 C-24.13 8.19 -23.72 7.17 -23.29 6.13 C-21.29 5.51 -21.29 5.51 -19.29 5.13 C-19.02 4.47 -18.76 3.81 -18.48 3.13 C-18.09 2.47 -17.7 1.81 -17.29 1.13 C-11.56 -0.07 -5.84 -0.01 0 0 Z " fill="#f0f0f0" transform="translate(833.2923736572266,1002.8662872314453)"/>
</svg>
