<?xml version="1.0" standalone="no"?>
<!DOCTYPE svg PUBLIC "-//W3C//DTD SVG 20010904//EN"
 "http://www.w3.org/TR/2001/REC-SVG-20010904/DTD/svg10.dtd">
<svg version="1.0" xmlns="http://www.w3.org/2000/svg"
 width="256.000000pt" height="256.000000pt" viewBox="0 0 256.000000 256.000000"
 preserveAspectRatio="xMidYMid meet">

<g transform="translate(0.000000,256.000000) scale(0.100000,-0.100000)"
fill="#f0f0f0" stroke="none">
<path d="M2045 2376 c-34 -15 -80 -64 -90 -96 -6 -18 -15 -20 -116 -20 -109 0
-111 0 -140 -29 l-29 -29 0 -201 0 -201 -65 0 -65 0 0 30 c0 34 -17 46 -80 56
-60 10 -72 40 -36 94 14 22 26 50 26 62 0 27 -114 138 -142 138 -11 0 -36 -11
-56 -25 -60 -41 -84 -32 -97 39 -12 62 -33 76 -114 76 -103 0 -117 -8 -131
-75 -15 -74 -37 -83 -99 -43 -25 15 -51 28 -59 28 -17 0 -114 -91 -131 -124
-12 -22 -10 -30 18 -76 36 -58 31 -85 -17 -96 -93 -20 -92 -20 -92 -130 0
-105 2 -108 80 -120 60 -10 71 -38 36 -92 -14 -23 -26 -52 -26 -65 0 -30 109
-137 140 -137 11 0 38 11 58 25 59 40 83 32 97 -35 15 -72 26 -80 118 -80 45
0 89 4 97 10 8 5 21 35 30 67 18 70 37 77 104 38 29 -17 53 -24 65 -20 23 7
131 121 131 137 0 6 -14 33 -31 59 -25 39 -28 51 -19 68 6 12 23 23 38 27 79
17 92 26 92 60 0 23 3 24 65 24 l65 0 0 -204 0 -204 31 -26 c29 -24 37 -26
139 -26 l108 0 12 -30 c40 -96 179 -131 264 -66 113 86 75 269 -64 306 -75 20
-170 -28 -200 -100 l-12 -30 -99 0 -99 0 0 190 0 190 99 0 c91 0 100 -2 106
-20 9 -30 53 -79 86 -95 44 -23 130 -19 169 8 59 40 75 71 75 147 0 76 -16
107 -75 148 -39 26 -125 30 -169 7 -33 -16 -77 -65 -86 -95 -6 -18 -15 -20
-106 -20 l-99 0 0 190 0 190 99 0 99 0 12 -30 c17 -41 72 -87 120 -100 52 -14
109 1 155 41 88 77 67 233 -38 283 -42 19 -110 20 -152 2z m139 -92 c49 -50
29 -131 -38 -154 -77 -25 -143 49 -111 126 16 39 39 53 86 54 26 0 44 -7 63
-26z m-1110 -106 c3 -7 10 -33 18 -57 12 -41 17 -45 70 -64 l57 -20 42 27 42
28 29 -30 30 -30 -27 -46 -28 -47 19 -42 c26 -62 41 -75 90 -83 l44 -6 0 -44
c0 -39 -3 -44 -27 -50 -71 -15 -77 -20 -99 -75 l-22 -54 26 -48 25 -47 -28
-30 -27 -29 -39 25 c-47 29 -55 29 -112 5 -49 -21 -61 -36 -71 -93 -7 -36 -9
-38 -47 -38 -23 0 -41 5 -44 13 -2 6 -9 31 -15 53 -9 37 -15 44 -61 63 -65 26
-66 26 -113 -5 l-38 -26 -30 30 -30 30 27 46 27 47 -28 57 c-27 54 -32 57 -76
66 l-48 9 0 43 0 42 50 12 c57 14 52 9 79 77 l20 51 -29 45 -28 45 31 30 32
30 35 -24 c42 -29 62 -30 120 -1 41 20 46 27 59 75 14 51 14 52 53 52 22 0 40
-5 42 -12z m1111 -353 c56 -56 18 -155 -60 -155 -49 0 -74 15 -91 56 -12 29
-12 39 0 68 17 41 39 55 89 56 27 0 45 -7 62 -25z m-30 -439 c39 -17 55 -42
55 -89 0 -48 -38 -87 -85 -87 -49 0 -74 15 -91 56 -20 47 1 99 48 119 41 18
33 17 73 1z"/>
<path d="M945 1976 c-16 -7 -45 -25 -63 -41 -104 -87 -104 -263 0 -350 53 -44
94 -57 170 -53 82 4 137 38 183 113 25 41 30 58 30 114 0 137 -99 232 -239
231 -28 -1 -64 -7 -81 -14z m165 -85 c38 -20 80 -88 80 -131 0 -43 -42 -111
-80 -131 -44 -24 -105 -24 -150 -1 -38 20 -80 89 -80 132 0 43 42 112 80 132
45 23 106 23 150 -1z"/>
<path d="M925 1151 c-16 -5 -93 -36 -169 -70 -77 -33 -141 -61 -143 -61 -2 0
-3 11 -3 25 0 14 -11 37 -25 50 l-24 25 -256 0 -256 0 -24 -25 -25 -24 0 -408
c1 -305 4 -412 13 -424 27 -36 52 -39 292 -39 294 0 305 4 305 105 l0 43 78
20 c42 12 107 29 143 38 l67 18 178 -111 c229 -141 233 -143 297 -143 51 0 79
12 418 185 815 414 764 382 764 478 0 67 -29 109 -90 133 l-46 17 -327 -107
c-180 -58 -330 -106 -334 -106 -3 0 -9 12 -13 28 -3 15 -11 34 -18 43 -17 23
-683 307 -732 313 -22 3 -53 1 -70 -3z m416 -220 c303 -131 324 -141 327 -166
5 -39 -5 -72 -29 -94 -41 -38 -61 -35 -235 39 -91 39 -173 70 -181 68 -24 -5
-40 -35 -28 -54 6 -8 89 -49 185 -91 152 -65 180 -74 215 -68 51 8 110 46 130
85 9 16 18 30 21 30 2 0 156 50 342 110 l336 111 26 -19 c29 -22 37 -59 18
-83 -7 -9 -248 -137 -535 -283 -547 -278 -560 -284 -621 -252 -15 8 -108 64
-206 125 -120 74 -189 111 -208 111 -24 0 -233 -51 -275 -67 -11 -4 -13 42
-11 247 l3 253 170 74 c132 57 177 72 201 68 17 -3 177 -68 355 -144z m-811
-271 l0 -380 -225 0 -225 0 0 380 0 380 225 0 225 0 0 -380z"/>
<path d="M357 958 c-38 -20 -9 -86 32 -73 24 7 34 31 21 55 -12 23 -32 30 -53
18z"/>
</g>
</svg>
