<?xml version="1.0" encoding="UTF-8"?>
<!DOCTYPE svg PUBLIC "-//W3C//DTD SVG 1.1//EN" "http://www.w3.org/Graphics/SVG/1.1/DTD/svg11.dtd">
<svg xmlns="http://www.w3.org/2000/svg" version="1.1" width="256px" height="256px" style="shape-rendering:geometricPrecision; text-rendering:geometricPrecision; image-rendering:optimizeQuality; fill-rule:evenodd; clip-rule:evenodd" xmlns:xlink="http://www.w3.org/1999/xlink">
<g><path style="opacity:0.894" fill="#f0f0f0" d="M 97.5,-0.5 C 125.833,-0.5 154.167,-0.5 182.5,-0.5C 184.696,0.854084 186.196,2.85408 187,5.5C 187.499,11.1569 187.666,16.8236 187.5,22.5C 198.172,22.3335 208.839,22.5002 219.5,23C 221.059,25.6417 220.725,27.975 218.5,30C 204.259,30.1757 190.092,30.6757 176,31.5C 175.333,45.1667 175.333,58.8333 176,72.5C 186.49,71.3238 191.49,75.9905 191,86.5C 195.74,82.2151 200.573,78.0484 205.5,74C 219.167,73.6667 232.833,73.3333 246.5,73C 247.656,59.2417 247.823,45.4083 247,31.5C 241.917,30.6929 236.75,30.1929 231.5,30C 228.833,27.6667 228.833,25.3333 231.5,23C 237.833,22.3333 244.167,22.3333 250.5,23C 252.687,24.025 254.354,25.525 255.5,27.5C 255.5,43.8333 255.5,60.1667 255.5,76.5C 253.776,79.5418 251.109,81.3751 247.5,82C 234.5,82.3333 221.5,82.6667 208.5,83C 203.833,87 199.167,91 194.5,95C 189.819,98.6918 185.653,98.1918 182,93.5C 181.501,89.8484 181.335,86.1817 181.5,82.5C 175.734,83.0874 171.234,81.0874 168,76.5C 167.5,66.8391 167.334,57.1724 167.5,47.5C 154.163,47.3334 140.829,47.5001 127.5,48C 122.754,53.1059 117.254,56.9392 111,59.5C 108.333,59.8333 106.333,58.8333 105,56.5C 104.502,53.5184 104.335,50.5184 104.5,47.5C 98.6545,48.3324 94.8212,45.9991 93,40.5C 92.3333,29.1667 92.3333,17.8333 93,6.5C 93.5303,3.41501 95.0303,1.08167 97.5,-0.5 Z M 101.5,7.5 C 127.167,7.5 152.833,7.5 178.5,7.5C 178.5,12.5 178.5,17.5 178.5,22.5C 173.806,21.7002 170.306,23.3669 168,27.5C 167.501,31.4862 167.334,35.4862 167.5,39.5C 152.83,39.3334 138.163,39.5001 123.5,40C 120.035,42.4626 116.869,45.2959 114,48.5C 113.647,40.3224 109.48,37.3224 101.5,39.5C 101.5,28.8333 101.5,18.1667 101.5,7.5 Z"/></g>
<g><path style="opacity:0.849" fill="#f0f0f0" d="M 29.5,14.5 C 44.837,14.3334 60.1703,14.5001 75.5,15C 77.286,15.7845 78.786,16.9512 80,18.5C 81.6057,30.7624 81.939,43.0957 81,55.5C 78.8924,60.7686 75.0591,62.7686 69.5,61.5C 69.8368,65.3076 69.3368,68.9743 68,72.5C 65.4209,74.3467 62.5876,74.8467 59.5,74C 54.8333,70 50.1667,66 45.5,62C 39.5,61.6667 33.5,61.3333 27.5,61C 26.3333,59.8333 25.1667,58.6667 24,57.5C 22.3962,45.5714 22.0629,33.5714 23,21.5C 24.0183,17.9853 26.1849,15.652 29.5,14.5 Z M 31.5,23.5 C 45.1667,23.5 58.8333,23.5 72.5,23.5C 72.5,33.5 72.5,43.5 72.5,53.5C 64.8002,51.8383 60.4669,54.8383 59.5,62.5C 56.3135,59.4791 52.9802,56.6458 49.5,54C 43.5092,53.5005 37.5092,53.3338 31.5,53.5C 31.5,43.5 31.5,33.5 31.5,23.5 Z"/></g>
<g><path style="opacity:0.904" fill="#f0f0f0" d="M 120.5,19.5 C 133.504,19.3334 146.504,19.5001 159.5,20C 162.167,22.3333 162.167,24.6667 159.5,27C 146.5,27.6667 133.5,27.6667 120.5,27C 119.221,24.5024 119.221,22.0024 120.5,19.5 Z"/></g>
<g><path style="opacity:0.896" fill="#f0f0f0" d="M 41.5,34.5 C 48.8409,34.3337 56.1742,34.5003 63.5,35C 64.9817,37.5918 64.6483,39.9251 62.5,42C 55.5,42.6667 48.5,42.6667 41.5,42C 38.9142,39.506 38.9142,37.006 41.5,34.5 Z"/></g>
<g><path style="opacity:0.908" fill="#f0f0f0" d="M 192.5,48.5 C 205.171,48.3334 217.838,48.5001 230.5,49C 232.648,51.0749 232.982,53.4082 231.5,56C 218.154,56.8327 204.821,56.666 191.5,55.5C 190.073,52.8845 190.406,50.5511 192.5,48.5 Z"/></g>
<g><path style="opacity:0.896" fill="#f0f0f0" d="M -0.5,143.5 C -0.5,132.833 -0.5,122.167 -0.5,111.5C 3.37012,104.56 9.37012,101.227 17.5,101.5C 18.4141,96.7421 21.0808,93.2421 25.5,91C 37.1097,89.7539 48.7764,89.0873 60.5,89C 65.6359,86.7134 70.9692,85.7134 76.5,86C 78.9938,88.2436 78.9938,90.5769 76.5,93C 71.9726,94.5091 67.4726,96.0091 63,97.5C 62.5002,106.16 62.3336,114.827 62.5,123.5C 85.8333,123.5 109.167,123.5 132.5,123.5C 132.667,107.83 132.5,92.1631 132,76.5C 118.528,81.1012 104.861,85.1012 91,88.5C 87.1793,88.197 85.8459,86.197 87,82.5C 87.9025,81.2986 89.0692,80.4652 90.5,80C 104.226,76.2025 117.892,72.2025 131.5,68C 136.22,56.0945 144.22,53.0945 155.5,59C 157.041,60.5793 158.208,62.4127 159,64.5C 159.167,76.8468 159.667,89.1801 160.5,101.5C 172.678,105.844 178.344,114.511 177.5,127.5C 178.33,140.526 172.663,149.193 160.5,153.5C 159.667,165.82 159.167,178.153 159,190.5C 151.59,201.594 143.257,202.261 134,192.5C 133.55,190.481 132.717,188.648 131.5,187C 113.131,181.599 94.798,176.099 76.5,170.5C 75.671,175.467 75.171,180.467 75,185.5C 73.7581,186.872 72.2581,187.872 70.5,188.5C 69.8153,202.971 72.982,216.637 80,229.5C 81.5322,236.271 79.0322,240.771 72.5,243C 62.5,243.667 52.5,243.667 42.5,243C 35.8858,239.772 33.2191,234.439 34.5,227C 34.6667,224.167 34.8333,221.333 35,218.5C 37.6667,214.5 40.3333,214.5 43,218.5C 43.4994,223.823 43.666,229.156 43.5,234.5C 52.8333,234.5 62.1667,234.5 71.5,234.5C 68.1822,225.71 65.3488,216.71 63,207.5C 61.6516,201.228 60.8182,194.895 60.5,188.5C 54.8333,188.5 49.1667,188.5 43.5,188.5C 43.666,193.844 43.4994,199.177 43,204.5C 40.3333,207.167 37.6667,207.167 35,204.5C 34.8295,199.136 34.3295,193.802 33.5,188.5C 31.2589,187.968 29.7589,186.635 29,184.5C 28.5004,177.842 28.3337,171.175 28.5,164.5C 22.5,163.167 18.8333,159.5 17.5,153.5C 9.37012,153.773 3.37012,150.44 -0.5,143.5 Z M 143.5,64.5 C 146.652,63.9586 149.152,64.9586 151,67.5C 151.667,107.5 151.667,147.5 151,187.5C 146.561,191.946 143.227,191.279 141,185.5C 140.333,146.833 140.333,108.167 141,69.5C 141.366,67.5483 142.199,65.8816 143.5,64.5 Z M 29.5,98.5 C 37.8333,98.5 46.1667,98.5 54.5,98.5C 54.5,117.833 54.5,137.167 54.5,156.5C 46.16,156.666 37.8267,156.5 29.5,156C 27.6667,155.5 26.5,154.333 26,152.5C 24.3804,136.901 24.047,121.234 25,105.5C 25.5303,102.415 27.0303,100.082 29.5,98.5 Z M 14.5,109.5 C 15.8293,115.128 16.496,121.128 16.5,127.5C 16.1667,133.5 15.8333,139.5 15.5,145.5C 11.9633,144.797 9.4633,142.797 8,139.5C 7.33333,131.5 7.33333,123.5 8,115.5C 9.43611,112.558 11.6028,110.558 14.5,109.5 Z M 159.5,110.5 C 166.934,113.697 169.934,119.364 168.5,127.5C 169.922,135.323 167.088,140.99 160,144.5C 159.5,133.172 159.333,121.838 159.5,110.5 Z M 62.5,131.5 C 85.8333,131.5 109.167,131.5 132.5,131.5C 132.667,147.17 132.5,162.837 132,178.5C 109.264,171.44 86.4305,164.606 63.5,158C 62.5161,149.251 62.1828,140.418 62.5,131.5 Z M 36.5,165.5 C 44.5069,165.334 52.5069,165.5 60.5,166C 62.5,166.667 64.5,167.333 66.5,168C 67.4637,172.066 67.797,176.233 67.5,180.5C 57.1667,180.5 46.8333,180.5 36.5,180.5C 36.5,175.5 36.5,170.5 36.5,165.5 Z"/></g>
<g><path style="opacity:0.872" fill="#f0f0f0" d="M 197.5,102.5 C 213.503,102.333 229.503,102.5 245.5,103C 248.883,104.38 250.716,106.88 251,110.5C 251.667,120.833 251.667,131.167 251,141.5C 250.484,144.034 249.317,146.2 247.5,148C 241.275,149.251 234.942,149.917 228.5,150C 224.167,153.667 219.833,157.333 215.5,161C 212.209,163.074 209.043,162.908 206,160.5C 204.663,156.974 204.163,153.308 204.5,149.5C 199.186,150.26 195.353,148.26 193,143.5C 192.333,131.833 192.333,120.167 193,108.5C 194.332,106.34 195.832,104.34 197.5,102.5 Z M 201.5,110.5 C 215.167,110.5 228.833,110.5 242.5,110.5C 242.5,120.833 242.5,131.167 242.5,141.5C 236.491,141.334 230.491,141.501 224.5,142C 221,144.833 217.5,147.667 214,150.5C 213.661,142.339 209.494,139.339 201.5,141.5C 201.5,131.167 201.5,120.833 201.5,110.5 Z"/></g>
<g><path style="opacity:0.88" fill="#f0f0f0" d="M 210.5,123.5 C 217.841,123.334 225.174,123.5 232.5,124C 235.167,126.333 235.167,128.667 232.5,131C 225.167,131.667 217.833,131.667 210.5,131C 209.221,128.502 209.221,126.002 210.5,123.5 Z"/></g>
<g><path style="opacity:0.892" fill="#f0f0f0" d="M 255.5,178.5 C 255.5,194.833 255.5,211.167 255.5,227.5C 254.354,229.475 252.687,230.975 250.5,232C 229.503,232.5 208.503,232.667 187.5,232.5C 187.666,238.176 187.499,243.843 187,249.5C 186.196,252.146 184.696,254.146 182.5,255.5C 154.167,255.5 125.833,255.5 97.5,255.5C 95.0303,253.918 93.5303,251.585 93,248.5C 92.3333,237.167 92.3333,225.833 93,214.5C 94.8212,209.001 98.6545,206.668 104.5,207.5C 102.494,198.684 105.827,194.85 114.5,196C 118.833,199.667 123.167,203.333 127.5,207C 132.5,207.333 137.5,207.667 142.5,208C 145.167,210.333 145.167,212.667 142.5,215C 130.976,218.108 121.476,215.275 114,206.5C 113.647,214.678 109.48,217.678 101.5,215.5C 101.5,226.167 101.5,236.833 101.5,247.5C 127.167,247.5 152.833,247.5 178.5,247.5C 178.5,242.5 178.5,237.5 178.5,232.5C 173.806,233.3 170.306,231.633 168,227.5C 167.501,223.514 167.334,219.514 167.5,215.5C 163.154,215.666 158.821,215.499 154.5,215C 153.018,212.408 153.352,210.075 155.5,208C 159.486,207.501 163.486,207.334 167.5,207.5C 167.334,197.828 167.5,188.161 168,178.5C 171.234,173.913 175.734,171.913 181.5,172.5C 181.335,168.818 181.501,165.152 182,161.5C 185.653,156.808 189.819,156.308 194.5,160C 199.167,164 203.833,168 208.5,172C 221.5,172.333 234.5,172.667 247.5,173C 251.109,173.625 253.776,175.458 255.5,178.5 Z M 190.5,168.5 C 195.622,172.899 200.955,177.066 206.5,181C 219.833,181.333 233.167,181.667 246.5,182C 247.656,195.758 247.823,209.592 247,223.5C 223.573,224.66 200.073,224.827 176.5,224C 175.344,210.242 175.177,196.408 176,182.5C 186.619,183.713 191.452,179.047 190.5,168.5 Z"/></g>
<g><path style="opacity:0.908" fill="#f0f0f0" d="M 191.5,198.5 C 204.837,198.333 218.171,198.5 231.5,199C 232.982,201.592 232.648,203.925 230.5,206C 217.833,206.667 205.167,206.667 192.5,206C 190.163,203.806 189.83,201.306 191.5,198.5 Z"/></g>
<g><path style="opacity:0.814" fill="#f0f0f0" d="M 121.5,227.5 C 133.838,227.333 146.171,227.5 158.5,228C 162.5,230.667 162.5,233.333 158.5,236C 146.167,236.667 133.833,236.667 121.5,236C 118.899,233.17 118.899,230.337 121.5,227.5 Z"/></g>
</svg>
