<?xml version="1.0" encoding="UTF-8"?>
<!-- Generator: visioncortex VTracer 0.6.3 -->
<svg version="1.1" xmlns="http://www.w3.org/2000/svg" width="1280" height="1280">
<path d="M0 0 C1.23 -0 1.23 -0 2.48 -0 C5.19 -0.01 7.91 -0.01 10.62 -0 C12.58 -0 14.54 -0.01 16.5 -0.01 C21.79 -0.01 27.09 -0.01 32.39 -0.01 C37.94 -0 43.49 -0.01 49.05 -0.01 C58.37 -0.01 67.7 -0.01 77.02 -0 C87.79 0 98.56 0 109.32 -0.01 C118.58 -0.01 127.84 -0.01 137.1 -0.01 C142.62 -0.01 148.15 -0.01 153.67 -0.01 C158.86 -0.01 164.06 -0.01 169.25 -0 C171.15 -0 173.06 -0 174.96 -0.01 C177.56 -0.01 180.17 -0 182.77 0 C183.89 -0 183.89 -0 185.03 -0.01 C198.76 0.04 198.76 0.04 203.39 3.13 C203.39 3.79 203.39 4.45 203.39 5.13 C204 5.21 204.62 5.29 205.26 5.38 C207.39 6.13 207.39 6.13 208.45 8 C208.76 8.7 209.07 9.4 209.39 10.13 C209.89 10.59 210.39 11.05 210.9 11.52 C215.47 16.47 213.58 29.19 213.62 35.55 C213.63 36.82 213.64 38.08 213.65 39.39 C213.66 42.05 213.67 44.71 213.68 47.37 C213.69 50.77 213.73 54.17 213.77 57.58 C213.8 60.84 213.8 64.1 213.81 67.37 C213.84 69.19 213.84 69.19 213.86 71.06 C213.86 72.19 213.86 73.33 213.86 74.49 C213.86 75.49 213.87 76.48 213.87 77.5 C213.24 80.89 212.09 82.06 209.39 84.13 C206.54 84.52 204.1 84.69 201.26 84.66 C200.08 84.66 200.08 84.66 198.89 84.67 C197.23 84.67 195.58 84.67 193.92 84.65 C191.39 84.63 188.87 84.65 186.34 84.67 C184.73 84.67 183.12 84.67 181.51 84.66 C180.38 84.67 180.38 84.67 179.22 84.68 C173.93 84.59 173.43 84.17 169.39 80.13 C169.39 68.25 169.39 56.37 169.39 44.13 C117.91 44.13 66.43 44.13 13.39 44.13 C13.39 240.81 13.39 437.49 13.39 640.13 C64.87 640.13 116.35 640.13 169.39 640.13 C169.35 616.71 169.35 616.71 169.32 592.82 C169.31 582.4 169.3 571.98 169.28 561.56 C169.28 560.9 169.28 560.23 169.28 559.55 C169.25 537.27 169.23 514.99 169.22 492.71 C169.22 491.99 169.22 491.26 169.21 490.51 C169.2 474.72 169.19 458.92 169.18 443.13 C169.18 435.38 169.17 427.63 169.17 419.89 C169.17 419.12 169.16 418.35 169.16 417.55 C169.15 392.55 169.12 367.55 169.08 342.55 C169.04 316.87 169.02 291.19 169.01 265.51 C169.01 261.88 169.01 258.26 169.01 254.63 C169.01 253.92 169.01 253.21 169.01 252.47 C169 240.97 168.98 229.47 168.96 217.97 C168.93 206.42 168.93 194.87 168.93 183.32 C168.93 177.05 168.93 170.79 168.91 164.53 C168.89 158.8 168.89 153.08 168.9 147.35 C168.9 145.27 168.9 143.19 168.89 141.12 C168.87 138.3 168.88 135.49 168.89 132.68 C168.88 131.86 168.87 131.04 168.86 130.2 C168.9 126.66 169.09 124.54 171.19 121.62 C174.46 119.39 177.68 119.55 181.51 119.6 C182.69 119.59 182.69 119.59 183.89 119.58 C185.54 119.58 187.19 119.59 188.85 119.61 C191.38 119.63 193.9 119.61 196.43 119.58 C198.04 119.58 199.65 119.59 201.26 119.6 C202.39 119.58 202.39 119.58 203.55 119.57 C206.73 119.63 208.92 119.81 211.59 121.62 C214.14 125.18 213.93 128.47 213.88 132.68 C213.88 133.55 213.89 134.43 213.89 135.33 C213.9 138.29 213.88 141.24 213.87 144.2 C213.87 146.33 213.87 148.46 213.88 150.59 C213.89 156.47 213.87 162.34 213.85 168.22 C213.83 174.54 213.84 180.87 213.84 187.2 C213.84 198.17 213.83 209.14 213.81 220.11 C213.78 231.62 213.77 243.13 213.77 254.63 C213.76 255.35 213.76 256.06 213.76 256.8 C213.76 260.43 213.76 264.06 213.76 267.69 C213.75 293.43 213.73 319.16 213.69 344.89 C213.65 369.89 213.62 394.89 213.61 419.89 C213.6 420.66 213.6 421.43 213.6 422.22 C213.6 429.96 213.59 437.7 213.59 445.43 C213.58 461.19 213.57 476.95 213.55 492.71 C213.55 493.44 213.55 494.16 213.55 494.91 C213.52 543.32 213.45 591.72 213.39 640.13 C214.08 640.12 214.77 640.11 215.48 640.1 C222.69 640.01 229.89 639.95 237.09 639.91 C239.78 639.89 242.47 639.86 245.16 639.83 C249.02 639.78 252.88 639.75 256.74 639.74 C257.95 639.72 259.15 639.7 260.39 639.67 C261.52 639.67 262.64 639.67 263.79 639.67 C264.78 639.66 265.76 639.66 266.78 639.65 C270.15 640.27 271.32 641.43 273.39 644.13 C273.78 646.97 273.95 649.41 273.92 652.25 C273.92 653.43 273.92 653.43 273.93 654.63 C273.93 656.28 273.92 657.94 273.91 659.59 C273.89 662.12 273.91 664.64 273.93 667.17 C273.93 668.78 273.92 670.39 273.92 672 C273.92 672.76 273.93 673.51 273.94 674.29 C273.88 677.49 273.71 679.66 271.86 682.33 C268.42 684.83 265.32 684.68 261.22 684.63 C260.39 684.63 259.55 684.64 258.69 684.65 C255.87 684.66 253.05 684.64 250.23 684.63 C248.18 684.63 246.14 684.64 244.1 684.65 C238.44 684.66 232.79 684.65 227.13 684.64 C221 684.63 214.86 684.64 208.73 684.65 C197.96 684.67 187.19 684.67 176.42 684.66 C164.86 684.65 153.31 684.64 141.75 684.65 C141.02 684.65 140.29 684.65 139.54 684.65 C136.57 684.66 133.6 684.66 130.63 684.66 C102.95 684.68 75.27 684.68 47.59 684.67 C46.36 684.67 46.36 684.67 45.1 684.67 C44.28 684.67 43.46 684.67 42.61 684.67 C17.59 684.66 -7.43 684.66 -32.45 684.66 C-34.12 684.66 -35.8 684.66 -37.47 684.66 C-44.2 684.66 -50.92 684.67 -57.65 684.67 C-76.45 684.67 -95.26 684.67 -114.06 684.67 C-114.92 684.67 -115.78 684.67 -116.66 684.67 C-143.96 684.68 -171.25 684.67 -198.55 684.66 C-199.44 684.66 -200.32 684.66 -201.24 684.66 C-215.62 684.66 -230 684.65 -244.39 684.65 C-301.44 684.63 -358.49 684.63 -415.55 684.65 C-429.92 684.65 -444.3 684.66 -458.68 684.66 C-459.56 684.66 -460.45 684.66 -461.36 684.66 C-488.63 684.67 -515.9 684.68 -543.17 684.67 C-544.02 684.67 -544.88 684.67 -545.76 684.67 C-564.54 684.67 -583.33 684.67 -602.11 684.67 C-608.83 684.67 -615.55 684.66 -622.27 684.66 C-623.94 684.66 -625.62 684.66 -627.29 684.66 C-652.3 684.66 -677.32 684.66 -702.33 684.67 C-703.15 684.67 -703.97 684.67 -704.82 684.67 C-705.64 684.67 -706.46 684.67 -707.3 684.67 C-734.9 684.68 -762.5 684.68 -790.1 684.66 C-793.06 684.66 -796.02 684.65 -798.98 684.65 C-799.71 684.65 -800.43 684.65 -801.18 684.65 C-812.71 684.64 -824.24 684.65 -835.77 684.66 C-847.09 684.67 -858.41 684.67 -869.73 684.65 C-875.8 684.64 -881.86 684.63 -887.92 684.65 C-893.43 684.66 -898.93 684.66 -904.44 684.64 C-906.42 684.63 -908.41 684.64 -910.4 684.65 C-913.09 684.66 -915.77 684.65 -918.45 684.63 C-919.62 684.64 -919.62 684.64 -920.81 684.66 C-924.27 684.61 -926.26 684.39 -929.09 682.33 C-931.36 679.05 -931.19 675.84 -931.15 672 C-931.15 671.22 -931.15 670.43 -931.16 669.63 C-931.16 667.97 -931.15 666.32 -931.14 664.66 C-931.11 662.14 -931.14 659.61 -931.16 657.08 C-931.16 655.47 -931.15 653.86 -931.15 652.25 C-931.15 651.5 -931.16 650.74 -931.17 649.97 C-931.11 646.66 -930.97 644.59 -928.93 641.92 C-926.06 639.7 -924.62 639.64 -921.02 639.67 C-919.34 639.67 -919.34 639.67 -917.62 639.67 C-916.42 639.69 -915.21 639.72 -913.97 639.74 C-912.74 639.74 -911.5 639.75 -910.22 639.75 C-906.94 639.77 -903.66 639.81 -900.38 639.85 C-897.03 639.89 -893.68 639.91 -890.33 639.93 C-883.75 639.98 -877.18 640.04 -870.61 640.13 C-870.62 638.68 -870.62 638.68 -870.62 637.2 C-870.64 579.98 -870.66 522.76 -870.67 465.55 C-870.67 458.68 -870.67 451.81 -870.67 444.94 C-870.67 444.26 -870.67 443.58 -870.67 442.87 C-870.67 420.72 -870.68 398.57 -870.69 376.42 C-870.7 353.01 -870.71 329.6 -870.71 306.19 C-870.71 292.17 -870.71 278.14 -870.72 264.12 C-870.73 254.51 -870.73 244.9 -870.73 235.28 C-870.73 229.73 -870.73 224.19 -870.73 218.64 C-870.74 213.56 -870.74 208.48 -870.74 203.4 C-870.73 201.56 -870.74 199.72 -870.74 197.89 C-870.74 195.39 -870.74 192.89 -870.74 190.39 C-870.74 189.68 -870.74 188.96 -870.75 188.23 C-870.7 173.21 -870.7 173.21 -865.61 168.13 C-865.14 167.61 -864.67 167.1 -864.18 166.56 C-863.66 166.09 -863.15 165.62 -862.61 165.13 C-861.91 164.43 -861.21 163.72 -860.49 163 C-854.67 159.2 -846.79 159.98 -840 160 C-839.18 160 -838.36 160 -837.52 160 C-834.81 159.99 -832.09 159.99 -829.38 160 C-827.42 160 -825.46 159.99 -823.5 159.99 C-818.21 159.99 -812.91 159.99 -807.61 159.99 C-802.06 160 -796.51 159.99 -790.95 159.99 C-781.63 159.99 -772.3 159.99 -762.98 160 C-752.21 160 -741.44 160 -730.68 159.99 C-721.42 159.99 -712.16 159.99 -702.9 159.99 C-697.38 159.99 -691.85 159.99 -686.33 159.99 C-681.14 159.99 -675.94 159.99 -670.75 160 C-668.85 160 -666.94 160 -665.04 159.99 C-662.44 159.99 -659.83 160 -657.23 160 C-656.11 160 -656.11 160 -654.97 159.99 C-641.24 160.04 -641.24 160.04 -636.61 163.13 C-636.61 163.79 -636.61 164.45 -636.61 165.13 C-636 165.21 -635.38 165.29 -634.74 165.38 C-632.61 166.13 -632.61 166.13 -631.55 168 C-631.09 169.05 -631.09 169.05 -630.61 170.13 C-630.11 170.58 -629.61 171.03 -629.1 171.5 C-627.27 173.51 -627.14 174.62 -626.93 177.3 C-626.87 178.1 -626.81 178.9 -626.74 179.72 C-626.55 183.28 -626.48 186.82 -626.49 190.39 C-626.49 191.17 -626.49 191.95 -626.49 192.76 C-626.49 195.37 -626.49 197.99 -626.49 200.6 C-626.49 202.49 -626.49 204.39 -626.49 206.29 C-626.49 211.49 -626.49 216.69 -626.5 221.89 C-626.5 227.51 -626.5 233.12 -626.5 238.73 C-626.5 248.45 -626.5 258.18 -626.51 267.9 C-626.52 281.95 -626.52 296.01 -626.52 310.07 C-626.52 332.87 -626.53 355.68 -626.54 378.48 C-626.55 400.64 -626.56 422.79 -626.56 444.94 C-626.56 445.63 -626.56 446.31 -626.56 447.01 C-626.56 453.87 -626.56 460.73 -626.56 467.59 C-626.57 525.1 -626.59 582.62 -626.61 640.13 C-614.73 640.13 -602.85 640.13 -590.61 640.13 C-590.62 635.67 -590.62 635.67 -590.62 631.13 C-590.63 579.15 -590.65 527.17 -590.66 475.19 C-590.66 474.38 -590.66 473.57 -590.66 472.73 C-590.66 455.05 -590.66 437.37 -590.67 419.69 C-590.67 411.01 -590.67 402.34 -590.67 393.67 C-590.67 392.81 -590.67 391.95 -590.67 391.06 C-590.67 363.09 -590.68 335.12 -590.69 307.15 C-590.7 278.4 -590.71 249.66 -590.71 220.92 C-590.71 216.86 -590.71 212.8 -590.71 208.74 C-590.71 207.94 -590.71 207.14 -590.71 206.32 C-590.71 193.46 -590.72 180.59 -590.72 167.73 C-590.73 154.8 -590.73 141.87 -590.73 128.94 C-590.73 121.26 -590.73 113.58 -590.74 105.89 C-590.74 100.16 -590.74 94.42 -590.74 88.69 C-590.73 86.36 -590.74 84.04 -590.74 81.72 C-590.74 78.57 -590.74 75.41 -590.74 72.26 C-590.74 71.36 -590.74 70.45 -590.75 69.52 C-590.7 53.21 -590.7 53.21 -585.61 48.13 C-584.9 47.35 -584.9 47.35 -584.18 46.56 C-583.66 46.09 -583.15 45.62 -582.61 45.13 C-581.91 44.43 -581.21 43.72 -580.49 43 C-574.67 39.2 -566.79 39.98 -560 40 C-558.77 40 -558.77 40 -557.52 40 C-554.81 39.99 -552.09 39.99 -549.38 40 C-547.42 40 -545.46 39.99 -543.5 39.99 C-538.21 39.99 -532.91 39.99 -527.61 39.99 C-522.06 40 -516.51 39.99 -510.95 39.99 C-501.63 39.99 -492.3 39.99 -482.98 40 C-472.21 40 -461.44 40 -450.68 39.99 C-441.42 39.99 -432.16 39.99 -422.9 39.99 C-417.38 39.99 -411.85 39.99 -406.33 39.99 C-401.14 39.99 -395.94 39.99 -390.75 40 C-388.85 40 -386.94 40 -385.04 39.99 C-382.44 39.99 -379.83 40 -377.23 40 C-376.11 40 -376.11 40 -374.97 39.99 C-361.24 40.04 -361.24 40.04 -356.61 43.13 C-356.61 43.79 -356.61 44.45 -356.61 45.13 C-356 45.21 -355.38 45.29 -354.74 45.38 C-352.61 46.13 -352.61 46.13 -351.55 48 C-351.24 48.7 -350.93 49.4 -350.61 50.13 C-350.11 50.59 -349.61 51.06 -349.1 51.53 C-343.95 57.06 -346.45 72.03 -346.44 79.43 C-346.43 81.17 -346.42 82.92 -346.42 84.67 C-346.4 90.38 -346.39 96.09 -346.38 101.8 C-346.37 103.77 -346.37 105.74 -346.36 107.71 C-346.34 116.96 -346.33 126.21 -346.32 135.45 C-346.31 146.12 -346.29 156.79 -346.25 167.46 C-346.22 175.72 -346.2 183.97 -346.2 192.23 C-346.2 197.16 -346.19 202.09 -346.16 207.01 C-346.14 211.64 -346.13 216.27 -346.14 220.9 C-346.14 222.6 -346.14 224.3 -346.12 226 C-346.11 228.32 -346.11 230.63 -346.13 232.95 C-346.12 234.25 -346.12 235.54 -346.12 236.88 C-346.61 240.13 -346.61 240.13 -348.41 242.54 C-351.67 244.89 -354.87 244.7 -358.74 244.66 C-359.52 244.66 -360.31 244.67 -361.11 244.67 C-362.77 244.67 -364.42 244.67 -366.08 244.65 C-368.61 244.63 -371.13 244.65 -373.66 244.67 C-375.27 244.67 -376.88 244.67 -378.49 244.66 C-379.24 244.67 -380 244.67 -380.78 244.68 C-384.05 244.62 -386.15 244.47 -388.82 242.49 C-391.17 239.4 -391.11 237.59 -391.1 233.72 C-391.1 231.75 -391.1 231.75 -391.11 229.74 C-391.1 228.28 -391.08 226.81 -391.07 225.35 C-391.07 223.79 -391.07 222.23 -391.07 220.67 C-391.07 216.48 -391.05 212.3 -391.02 208.11 C-391 204.18 -391 200.26 -390.99 196.33 C-390.97 184.85 -390.92 173.36 -390.86 161.88 C-390.78 136.22 -390.7 110.56 -390.61 84.13 C-442.09 84.13 -493.57 84.13 -546.61 84.13 C-546.61 267.61 -546.61 451.09 -546.61 640.13 C-495.13 640.13 -443.65 640.13 -390.61 640.13 C-390.66 614.47 -390.71 588.82 -390.76 562.39 C-390.78 546.19 -390.79 529.98 -390.81 513.78 C-390.82 505.27 -390.83 496.76 -390.83 488.25 C-390.84 487.18 -390.84 486.11 -390.84 485.02 C-390.85 467.78 -390.89 450.55 -390.92 433.31 C-390.96 415.63 -390.98 397.96 -390.99 380.28 C-391 369.36 -391.01 358.45 -391.05 347.54 C-391.07 340.06 -391.07 332.58 -391.07 325.1 C-391.07 320.79 -391.07 316.47 -391.09 312.15 C-391.11 308.2 -391.11 304.25 -391.1 300.3 C-391.1 298.87 -391.1 297.43 -391.11 296 C-391.13 294.06 -391.12 292.12 -391.11 290.18 C-391.11 289.1 -391.11 288.02 -391.11 286.91 C-390.49 283.42 -389.42 282.24 -386.61 280.13 C-383.77 279.73 -381.33 279.57 -378.49 279.6 C-377.31 279.59 -377.31 279.59 -376.11 279.58 C-374.46 279.58 -372.81 279.59 -371.15 279.61 C-368.62 279.63 -366.1 279.61 -363.57 279.58 C-361.96 279.58 -360.35 279.59 -358.74 279.6 C-357.99 279.59 -357.23 279.58 -356.45 279.57 C-353.17 279.63 -351.08 279.78 -348.41 281.78 C-346.11 284.78 -346.12 286.42 -346.12 290.18 C-346.11 291.43 -346.11 292.68 -346.1 293.96 C-346.11 295.35 -346.12 296.74 -346.13 298.12 C-346.13 299.6 -346.13 301.07 -346.12 302.54 C-346.11 306.59 -346.13 310.64 -346.15 314.69 C-346.17 319.05 -346.16 323.42 -346.16 327.78 C-346.16 335.35 -346.17 342.91 -346.19 350.48 C-346.22 361.42 -346.23 372.36 -346.24 383.29 C-346.25 401.04 -346.27 418.78 -346.31 436.53 C-346.35 453.77 -346.38 471.01 -346.39 488.25 C-346.4 489.31 -346.4 490.37 -346.4 491.47 C-346.4 496.8 -346.41 502.12 -346.41 507.45 C-346.45 551.68 -346.53 595.9 -346.61 640.13 C-334.73 640.13 -322.85 640.13 -310.61 640.13 C-310.62 635.41 -310.62 630.7 -310.62 625.84 C-310.64 582.6 -310.66 539.36 -310.67 496.12 C-310.67 490.46 -310.67 484.79 -310.67 479.12 C-310.67 477.99 -310.67 476.87 -310.67 475.7 C-310.67 457.44 -310.68 439.17 -310.69 420.9 C-310.7 402.16 -310.71 383.41 -310.71 364.67 C-310.71 353.1 -310.71 341.53 -310.72 329.97 C-310.73 322.04 -310.73 314.11 -310.73 306.18 C-310.73 301.6 -310.73 297.02 -310.73 292.45 C-310.74 288.26 -310.74 284.06 -310.74 279.87 C-310.73 278.36 -310.74 276.84 -310.74 275.33 C-310.78 254.91 -310.78 254.91 -307.74 250.25 C-307.04 249.55 -306.34 248.85 -305.61 248.13 C-304.9 247.35 -304.9 247.35 -304.18 246.56 C-303.66 246.09 -303.15 245.62 -302.61 245.13 C-301.91 244.43 -301.21 243.72 -300.49 243 C-294.67 239.2 -286.79 239.98 -280 240 C-279.18 240 -278.36 240 -277.52 240 C-274.81 239.99 -272.09 239.99 -269.38 240 C-267.42 240 -265.46 239.99 -263.5 239.99 C-258.21 239.99 -252.91 239.99 -247.61 239.99 C-242.06 240 -236.51 239.99 -230.95 239.99 C-221.63 239.99 -212.3 239.99 -202.98 240 C-192.21 240 -181.44 240 -170.68 239.99 C-161.42 239.99 -152.16 239.99 -142.9 239.99 C-137.38 239.99 -131.85 239.99 -126.33 239.99 C-121.14 239.99 -115.94 239.99 -110.75 240 C-108.85 240 -106.94 240 -105.04 239.99 C-102.44 239.99 -99.83 240 -97.23 240 C-96.11 240 -96.11 240 -94.97 239.99 C-81.24 240.04 -81.24 240.04 -76.61 243.13 C-76.61 243.79 -76.61 244.45 -76.61 245.13 C-76 245.21 -75.38 245.29 -74.74 245.38 C-72.61 246.13 -72.61 246.13 -71.55 248 C-71.24 248.7 -70.93 249.4 -70.61 250.13 C-70.11 250.59 -69.61 251.05 -69.1 251.53 C-64.09 256.92 -66.48 270.43 -66.49 277.56 C-66.49 279.13 -66.49 280.69 -66.49 282.26 C-66.49 286.55 -66.49 290.84 -66.5 295.13 C-66.5 299.76 -66.5 304.39 -66.5 309.02 C-66.5 317.04 -66.5 325.06 -66.51 333.08 C-66.52 344.68 -66.52 356.27 -66.52 367.87 C-66.52 386.68 -66.53 405.49 -66.54 424.3 C-66.55 442.58 -66.56 460.85 -66.56 479.12 C-66.56 480.25 -66.56 481.38 -66.56 482.54 C-66.56 488.19 -66.56 493.84 -66.56 499.49 C-66.57 546.37 -66.59 593.25 -66.61 640.13 C-54.73 640.13 -42.85 640.13 -30.61 640.13 C-30.62 636.95 -30.62 633.77 -30.62 630.5 C-30.63 574.92 -30.65 519.34 -30.66 463.75 C-30.66 462.88 -30.66 462.01 -30.66 461.12 C-30.66 442.21 -30.66 423.3 -30.67 404.4 C-30.67 395.13 -30.67 385.85 -30.67 376.58 C-30.67 375.2 -30.67 375.2 -30.67 373.79 C-30.67 343.88 -30.68 313.96 -30.69 284.05 C-30.7 253.32 -30.71 222.58 -30.71 191.85 C-30.71 187.51 -30.71 183.17 -30.71 178.83 C-30.71 177.98 -30.71 177.12 -30.71 176.24 C-30.71 162.48 -30.72 148.73 -30.72 134.97 C-30.73 121.15 -30.73 107.32 -30.73 93.5 C-30.73 85.28 -30.73 77.06 -30.74 68.85 C-30.74 62.71 -30.74 56.58 -30.74 50.45 C-30.73 47.97 -30.74 45.48 -30.74 43 C-30.74 39.63 -30.74 36.26 -30.74 32.89 C-30.74 31.92 -30.74 30.95 -30.75 29.95 C-30.7 13.22 -30.7 13.22 -25.61 8.13 C-24.9 7.35 -24.9 7.35 -24.18 6.56 C-23.66 6.09 -23.15 5.62 -22.61 5.13 C-21.91 4.43 -21.21 3.72 -20.49 3 C-14.67 -0.8 -6.79 -0.02 0 0 Z M-826.61 204.13 C-826.61 348.01 -826.61 491.89 -826.61 640.13 C-775.13 640.13 -723.65 640.13 -670.61 640.13 C-670.61 496.25 -670.61 352.37 -670.61 204.13 C-722.09 204.13 -773.57 204.13 -826.61 204.13 Z M-266.61 284.13 C-266.61 401.61 -266.61 519.09 -266.61 640.13 C-215.13 640.13 -163.65 640.13 -110.61 640.13 C-110.61 522.65 -110.61 405.17 -110.61 284.13 C-162.09 284.13 -213.57 284.13 -266.61 284.13 Z " fill="#f0f0f0" transform="translate(968.614501953125,557.8730163574219)"/>
<path d="M0 0 C1.3 0.05 1.3 0.05 2.62 0.1 C3.44 0.15 4.26 0.19 5.1 0.24 C5.83 0.28 6.56 0.31 7.31 0.35 C9.63 0.73 11.33 1.54 13.38 2.69 C13.38 3.35 13.38 4.01 13.38 4.69 C14.59 4.77 15.81 4.85 17.06 4.94 C21.22 5.45 23.26 6.83 26.38 9.69 C27.77 10.49 27.77 10.49 29.19 11.31 C29.91 11.77 30.63 12.22 31.38 12.69 C31.38 13.35 31.38 14.01 31.38 14.69 C32.06 14.85 32.74 15.02 33.44 15.19 C39.72 18.4 43.53 24.39 46.38 30.69 C47.03 31.35 47.7 32.01 48.38 32.69 C48.93 34.15 49.42 35.63 49.88 37.12 C50.79 40.15 51.58 42 53.38 44.69 C53.58 47.25 53.68 49.71 53.68 52.28 C53.68 53.39 53.68 53.39 53.69 54.52 C53.69 56.09 53.7 57.65 53.69 59.22 C53.69 61.61 53.71 64 53.74 66.4 C53.74 67.92 53.74 69.44 53.74 70.96 C53.75 71.68 53.76 72.39 53.77 73.13 C53.73 77.32 53.24 79.6 50.38 82.69 C49.6 84.73 49.6 84.73 49.06 86.88 C47.45 92.04 44.88 96.56 41.38 100.69 C40.72 100.69 40.05 100.69 39.38 100.69 C39.13 101.44 38.89 102.19 38.64 102.96 C37.2 106.06 35.86 107.25 33.12 109.25 C31.91 110.14 31.91 110.14 30.67 111.05 C29.91 111.59 29.15 112.13 28.38 112.69 C26.92 113.77 26.92 113.77 25.44 114.88 C21.96 116.94 18.43 118.35 14.64 119.76 C12.16 120.69 12.16 120.69 9.38 122.69 C6.89 122.89 4.52 122.99 2.04 122.99 C1.32 122.99 0.61 123 -0.13 123 C-1.65 123.01 -3.16 123.01 -4.68 123 C-6.98 123 -9.29 123.02 -11.6 123.05 C-13.08 123.05 -14.55 123.05 -16.02 123.05 C-16.71 123.06 -17.4 123.07 -18.1 123.08 C-22.51 123.04 -25.02 122.15 -28.62 119.69 C-32.6 118.69 -34.69 118.25 -38.44 120 C-40.67 121.65 -40.67 121.65 -42.62 123.69 C-43.62 123.69 -44.61 123.69 -45.62 123.69 C-45.71 124.31 -45.79 124.93 -45.88 125.56 C-46.62 127.69 -46.62 127.69 -48.56 128.75 C-49.24 129.06 -49.92 129.37 -50.62 129.69 C-51.28 130.68 -51.95 131.67 -52.62 132.69 C-53.62 133.02 -54.61 133.35 -55.62 133.69 C-56.47 134.53 -57.32 135.38 -58.19 136.25 C-58.99 137.05 -59.8 137.86 -60.62 138.69 C-61.28 138.69 -61.95 138.69 -62.62 138.69 C-62.96 139.68 -63.28 140.67 -63.62 141.69 C-65.33 143.26 -65.33 143.26 -67.44 144.81 C-68.12 145.33 -68.81 145.85 -69.52 146.38 C-71.59 147.67 -73.24 148.25 -75.62 148.69 C-75.71 149.31 -75.79 149.93 -75.88 150.56 C-76.62 152.69 -76.62 152.69 -78.56 153.75 C-79.24 154.06 -79.92 154.37 -80.62 154.69 C-81.28 155.68 -81.95 156.67 -82.62 157.69 C-83.62 158.02 -84.61 158.35 -85.62 158.69 C-86.47 159.53 -87.32 160.38 -88.19 161.25 C-88.99 162.05 -89.8 162.86 -90.62 163.69 C-91.28 163.69 -91.95 163.69 -92.62 163.69 C-92.96 164.68 -93.28 165.67 -93.62 166.69 C-95.33 168.26 -95.33 168.26 -97.44 169.81 C-98.12 170.33 -98.81 170.85 -99.52 171.38 C-101.59 172.67 -103.24 173.25 -105.62 173.69 C-105.71 174.31 -105.79 174.92 -105.88 175.56 C-106.62 177.69 -106.62 177.69 -108.56 178.75 C-109.24 179.06 -109.92 179.37 -110.62 179.69 C-111.28 180.68 -111.95 181.67 -112.62 182.69 C-113.62 183.02 -114.61 183.35 -115.62 183.69 C-116.47 184.53 -117.32 185.38 -118.19 186.25 C-118.99 187.05 -119.8 187.86 -120.62 188.69 C-121.28 188.69 -121.95 188.69 -122.62 188.69 C-122.96 189.68 -123.28 190.67 -123.62 191.69 C-125.33 193.26 -125.33 193.26 -127.44 194.81 C-128.12 195.33 -128.81 195.85 -129.52 196.38 C-131.59 197.67 -133.24 198.25 -135.62 198.69 C-135.71 199.31 -135.79 199.92 -135.88 200.56 C-136.62 202.69 -136.62 202.69 -138.56 203.75 C-139.24 204.06 -139.92 204.37 -140.62 204.69 C-141.28 205.68 -141.95 206.67 -142.62 207.69 C-143.62 208.02 -144.61 208.35 -145.62 208.69 C-146.47 209.53 -147.32 210.38 -148.19 211.25 C-148.99 212.05 -149.8 212.86 -150.62 213.69 C-151.28 213.69 -151.95 213.69 -152.62 213.69 C-152.96 214.68 -153.28 215.67 -153.62 216.69 C-155.33 218.26 -155.33 218.26 -157.44 219.81 C-158.12 220.33 -158.81 220.85 -159.52 221.38 C-161.59 222.67 -163.24 223.25 -165.62 223.69 C-165.71 224.31 -165.79 224.92 -165.88 225.56 C-166.62 227.69 -166.62 227.69 -168.56 228.75 C-169.24 229.06 -169.92 229.37 -170.62 229.69 C-171.28 230.68 -171.95 231.67 -172.62 232.69 C-173.62 233.02 -174.61 233.35 -175.62 233.69 C-176.47 234.53 -177.32 235.38 -178.19 236.25 C-178.99 237.05 -179.8 237.86 -180.62 238.69 C-181.28 238.69 -181.95 238.69 -182.62 238.69 C-182.96 239.68 -183.28 240.67 -183.62 241.69 C-185.33 243.26 -185.33 243.26 -187.44 244.81 C-188.12 245.33 -188.81 245.85 -189.52 246.38 C-191.59 247.67 -193.24 248.25 -195.62 248.69 C-195.71 249.31 -195.79 249.92 -195.88 250.56 C-196.62 252.69 -196.62 252.69 -198.56 253.75 C-199.24 254.06 -199.92 254.37 -200.62 254.69 C-201.28 255.68 -201.95 256.67 -202.62 257.69 C-203.62 258.02 -204.61 258.35 -205.62 258.69 C-206.47 259.53 -207.32 260.38 -208.19 261.25 C-208.99 262.05 -209.8 262.86 -210.62 263.69 C-211.28 263.69 -211.95 263.69 -212.62 263.69 C-212.96 264.68 -213.28 265.67 -213.62 266.69 C-215.33 268.26 -215.33 268.26 -217.44 269.81 C-218.12 270.33 -218.81 270.85 -219.52 271.38 C-221.59 272.67 -223.24 273.25 -225.62 273.69 C-225.78 274.62 -225.78 274.62 -225.94 275.56 C-226.62 277.69 -226.62 277.69 -229.62 279.69 C-229.14 280.52 -228.65 281.36 -228.15 282.22 C-226.43 286.14 -226.24 288.84 -226.23 293.1 C-226.22 293.79 -226.22 294.48 -226.22 295.19 C-226.22 296.64 -226.22 298.09 -226.23 299.54 C-226.25 301.75 -226.23 303.96 -226.21 306.17 C-226.22 307.58 -226.22 309 -226.23 310.41 C-226.23 311.69 -226.23 312.96 -226.24 314.28 C-226.65 317.9 -227.56 319.73 -229.62 322.69 C-230.11 324.09 -230.55 325.51 -230.94 326.94 C-232.56 332.07 -235.14 336.58 -238.62 340.69 C-239.28 340.69 -239.95 340.69 -240.62 340.69 C-240.87 341.26 -241.12 341.84 -241.38 342.44 C-242.81 345.02 -244.41 346.75 -246.62 348.69 C-247.28 348.69 -247.95 348.69 -248.62 348.69 C-248.62 349.35 -248.62 350.01 -248.62 350.69 C-251.53 352.73 -253.03 353.69 -256.62 353.69 C-256.79 354.33 -256.96 354.97 -257.12 355.62 C-258.62 357.69 -258.62 357.69 -260.54 358.18 C-262.56 358.42 -264.59 358.56 -266.62 358.69 C-266.62 359.35 -266.62 360.01 -266.62 360.69 C-270.29 363.03 -273.85 362.99 -278.06 362.99 C-278.77 362.99 -279.49 363 -280.23 363 C-281.73 363.01 -283.24 363.01 -284.75 363 C-287.05 363 -289.35 363.02 -291.65 363.05 C-293.12 363.05 -294.59 363.05 -296.06 363.05 C-296.74 363.06 -297.43 363.07 -298.13 363.08 C-302.5 363.04 -305.06 362.19 -308.62 359.69 C-310.98 358.87 -313.34 358.2 -315.73 357.53 C-316.36 357.25 -316.98 356.97 -317.62 356.69 C-317.96 355.7 -318.28 354.71 -318.62 353.69 C-319.36 353.59 -320.09 353.48 -320.85 353.38 C-327.96 351.61 -333.44 345.34 -337.55 339.55 C-338.84 337.32 -339.18 335.2 -339.62 332.69 C-340.26 332.4 -340.89 332.12 -341.55 331.83 C-343.62 330.69 -343.62 330.69 -344.6 328.66 C-344.92 327.5 -344.92 327.5 -345.25 326.31 C-346.14 323.05 -346.14 323.05 -347.66 320.05 C-349.07 316.59 -348.85 313.2 -348.79 309.53 C-348.78 308.35 -348.78 308.35 -348.77 307.14 C-348.75 304.64 -348.72 302.13 -348.69 299.62 C-348.66 297.11 -348.64 294.6 -348.62 292.09 C-348.6 290.53 -348.59 288.97 -348.56 287.41 C-348.53 284.22 -348.61 281.74 -349.62 278.69 C-350.94 277.99 -352.28 277.32 -353.62 276.69 C-354.07 276.23 -354.52 275.78 -354.98 275.31 C-356.86 273.46 -358.84 272.16 -361.06 270.75 C-364.3 268.63 -366.93 266.48 -369.62 263.69 C-370.53 263.15 -371.44 262.62 -372.38 262.06 C-373.12 261.61 -373.86 261.15 -374.62 260.69 C-374.62 260.03 -374.62 259.37 -374.62 258.69 C-375.35 258.61 -376.07 258.52 -376.81 258.44 C-380.22 257.53 -381.98 255.99 -384.62 253.69 C-385.39 253.15 -386.15 252.62 -386.94 252.06 C-387.49 251.61 -388.05 251.15 -388.62 250.69 C-388.62 250.03 -388.62 249.37 -388.62 248.69 C-389.59 248.4 -390.56 248.11 -391.56 247.81 C-394.62 246.69 -394.62 246.69 -395.62 244.69 C-397.31 243.7 -399 242.71 -400.71 241.76 C-404.8 239.47 -408.33 236.99 -411.62 233.69 C-412.51 233.17 -413.4 232.66 -414.31 232.12 C-415.08 231.65 -415.84 231.18 -416.62 230.69 C-416.62 230.03 -416.62 229.37 -416.62 228.69 C-417.57 228.42 -418.52 228.15 -419.5 227.88 C-422.62 226.69 -422.62 226.69 -424.62 223.69 C-425.49 223.17 -426.36 222.66 -427.25 222.12 C-428.03 221.65 -428.82 221.18 -429.62 220.69 C-429.62 220.03 -429.62 219.37 -429.62 218.69 C-430.35 218.61 -431.07 218.52 -431.81 218.44 C-435.22 217.53 -436.98 215.99 -439.62 213.69 C-440.39 213.15 -441.15 212.62 -441.94 212.06 C-442.49 211.61 -443.05 211.15 -443.62 210.69 C-443.62 210.03 -443.62 209.37 -443.62 208.69 C-444.59 208.4 -445.56 208.11 -446.56 207.81 C-449.62 206.69 -449.62 206.69 -450.62 204.69 C-452.28 203.57 -452.28 203.57 -454.19 202.56 C-455.32 201.94 -456.46 201.33 -457.62 200.69 C-457.62 200.03 -457.62 199.37 -457.62 198.69 C-458.55 198.42 -459.48 198.15 -460.44 197.88 C-463.54 196.72 -464.48 196.02 -466.62 193.69 C-467.51 193.17 -468.4 192.66 -469.31 192.12 C-470.08 191.65 -470.84 191.18 -471.62 190.69 C-471.62 190.03 -471.62 189.37 -471.62 188.69 C-472.57 188.42 -473.52 188.15 -474.5 187.88 C-477.62 186.69 -477.62 186.69 -479.62 183.69 C-480.49 183.17 -481.36 182.66 -482.25 182.12 C-483.03 181.65 -483.82 181.18 -484.62 180.69 C-484.62 180.03 -484.62 179.37 -484.62 178.69 C-485.35 178.61 -486.07 178.52 -486.81 178.44 C-490.22 177.53 -491.98 175.99 -494.62 173.69 C-495.39 173.15 -496.15 172.62 -496.94 172.06 C-497.49 171.61 -498.05 171.15 -498.62 170.69 C-498.62 170.03 -498.62 169.37 -498.62 168.69 C-499.59 168.4 -500.56 168.11 -501.56 167.81 C-504.62 166.69 -504.62 166.69 -505.62 164.69 C-506.57 164.21 -507.52 163.74 -508.5 163.25 C-511.27 161.87 -512.56 160.85 -514.62 158.69 C-515.29 158.36 -515.94 158.03 -516.62 157.69 C-518.77 156.62 -519.98 155.4 -521.62 153.69 C-525.09 151.37 -526.55 151.35 -530.62 151.69 C-532.11 152.68 -532.11 152.68 -533.62 153.69 C-534.62 153.69 -535.61 153.69 -536.62 153.69 C-536.86 154.31 -537.1 154.94 -537.35 155.59 C-538.97 158.26 -540.09 158.5 -543.06 159.31 C-546.14 160.18 -547.9 160.87 -550.62 162.69 C-552.58 163.02 -552.58 163.02 -554.8 163.14 C-555.62 163.18 -556.44 163.22 -557.29 163.27 C-558.16 163.3 -559.04 163.34 -559.94 163.38 C-560.83 163.41 -561.72 163.45 -562.64 163.49 C-582.61 164.23 -582.61 164.23 -588.62 160.69 C-588.62 160.03 -588.62 159.37 -588.62 158.69 C-589.84 158.61 -591.06 158.52 -592.31 158.44 C-596.49 157.92 -598.5 156.57 -601.62 153.69 C-602.62 153.03 -603.61 152.37 -604.62 151.69 C-611.23 147.28 -615.51 142.5 -619.62 135.69 C-619.62 135.03 -619.62 134.37 -619.62 133.69 C-621.96 134.68 -624.29 135.68 -626.62 136.69 C-627.42 137.02 -628.21 137.36 -629.02 137.71 C-630.22 138.22 -630.22 138.22 -631.44 138.75 C-632.19 139.07 -632.94 139.39 -633.71 139.72 C-635.79 140.65 -635.79 140.65 -637.62 142.69 C-639.64 143.53 -641.68 144.21 -643.75 144.91 C-645.82 145.63 -645.82 145.63 -647.62 147.69 C-649.64 148.53 -651.68 149.21 -653.75 149.91 C-655.82 150.63 -655.82 150.63 -657.62 152.69 C-659.64 153.53 -661.68 154.21 -663.75 154.91 C-665.82 155.63 -665.82 155.63 -667.62 157.69 C-669.64 158.53 -671.68 159.21 -673.75 159.91 C-675.82 160.63 -675.82 160.63 -677.62 162.69 C-679.64 163.53 -681.68 164.21 -683.75 164.91 C-685.82 165.63 -685.82 165.63 -687.62 167.69 C-689.64 168.53 -691.68 169.21 -693.75 169.91 C-695.82 170.63 -695.82 170.63 -697.62 172.69 C-699.64 173.53 -701.68 174.21 -703.75 174.91 C-705.82 175.63 -705.82 175.63 -707.62 177.69 C-709.39 178.43 -709.39 178.43 -711.44 179.12 C-714.79 180.33 -717.59 181.81 -720.62 183.69 C-728.98 188.06 -728.98 188.06 -733.31 189.71 C-735.76 190.57 -735.76 190.57 -737.62 192.69 C-739.39 193.43 -739.39 193.43 -741.44 194.12 C-744.79 195.33 -747.59 196.81 -750.62 198.69 C-758.98 203.06 -758.98 203.06 -763.31 204.71 C-765.76 205.57 -765.76 205.57 -767.62 207.69 C-769.64 208.53 -771.68 209.21 -773.75 209.91 C-775.82 210.63 -775.82 210.63 -777.62 212.69 C-779.94 213.41 -782.28 214.08 -784.62 214.69 C-785.45 217.61 -785.78 220.28 -785.87 223.31 C-785.92 224.62 -785.92 224.62 -785.97 225.95 C-786.03 227.78 -786.09 229.6 -786.14 231.42 C-786.18 232.29 -786.21 233.16 -786.25 234.06 C-786.28 235.25 -786.28 235.25 -786.32 236.46 C-786.65 238.89 -787.42 240.57 -788.62 242.69 C-789.28 242.69 -789.94 242.69 -790.62 242.69 C-790.71 243.9 -790.79 245.12 -790.88 246.38 C-791.39 250.54 -792.76 252.57 -795.62 255.69 C-796.1 256.49 -796.57 257.3 -797.06 258.12 C-801.32 265.1 -807.71 272.05 -815.62 274.69 C-816.02 275.18 -816.41 275.68 -816.81 276.19 C-819.74 278.61 -822.89 278.38 -826.62 278.69 C-826.62 279.35 -826.62 280.01 -826.62 280.69 C-834.48 285.52 -847.41 283.83 -856.38 283.44 C-857.14 283.41 -857.9 283.39 -858.68 283.36 C-862.99 283.11 -865.4 282.53 -868.62 279.69 C-870.67 278.92 -870.67 278.92 -872.81 278.38 C-877.97 276.76 -882.5 274.19 -886.62 270.69 C-886.62 270.03 -886.62 269.37 -886.62 268.69 C-887.36 268.47 -888.1 268.25 -888.86 268.03 C-892.34 266.34 -893.72 264.4 -895.94 261.25 C-896.98 259.8 -896.98 259.8 -898.05 258.32 C-899.62 255.69 -899.62 255.69 -899.62 252.69 C-900.62 252.36 -901.61 252.03 -902.62 251.69 C-903.72 249.54 -903.72 249.54 -904.69 246.88 C-905.95 243.32 -905.95 243.32 -907.66 239.97 C-909.71 235.11 -909 229.37 -909 224.15 C-909 221.96 -909.04 219.77 -909.07 217.57 C-909.13 210 -908.84 204.22 -904.62 197.69 C-904.02 196.37 -903.43 195.03 -902.88 193.69 C-902.46 192.7 -902.05 191.71 -901.62 190.69 C-900.97 190.69 -900.31 190.69 -899.62 190.69 C-899.56 189.98 -899.49 189.26 -899.41 188.53 C-897.24 180.71 -888.45 173.73 -881.62 169.69 C-880.63 169.69 -879.64 169.69 -878.62 169.69 C-878.3 168.7 -877.97 167.71 -877.62 166.69 C-874.02 165.17 -871.57 164.69 -867.62 164.69 C-867.62 164.03 -867.62 163.37 -867.62 162.69 C-862.38 159.37 -855.91 160.35 -849.93 160.37 C-847.7 160.37 -845.47 160.35 -843.24 160.33 C-841.82 160.32 -840.4 160.32 -838.97 160.32 C-837.68 160.32 -836.39 160.32 -835.07 160.32 C-831.41 160.71 -829.61 161.61 -826.62 163.69 C-824.27 164.51 -821.91 165.18 -819.52 165.84 C-818.89 166.12 -818.27 166.4 -817.62 166.69 C-817.3 167.68 -816.97 168.67 -816.62 169.69 C-815.48 169.84 -815.48 169.84 -814.31 170 C-811.36 170.76 -810.67 171.56 -808.62 173.69 C-805.93 174.86 -804.84 174.75 -802 173.88 C-799.52 172.79 -799.52 172.79 -797.62 170.69 C-795.61 169.85 -793.57 169.17 -791.5 168.47 C-789.43 167.75 -789.43 167.75 -787.62 165.69 C-785.61 164.85 -783.57 164.17 -781.5 163.47 C-779.43 162.75 -779.43 162.75 -777.62 160.69 C-775.61 159.85 -773.57 159.17 -771.5 158.47 C-769.43 157.75 -769.43 157.75 -767.62 155.69 C-765.61 154.85 -763.57 154.17 -761.5 153.47 C-759.43 152.75 -759.43 152.75 -757.62 150.69 C-755.61 149.85 -753.57 149.17 -751.5 148.47 C-749.43 147.75 -749.43 147.75 -747.62 145.69 C-745.61 144.85 -743.57 144.17 -741.5 143.47 C-739.43 142.75 -739.43 142.75 -737.62 140.69 C-735.61 139.85 -733.57 139.17 -731.5 138.47 C-729.43 137.75 -729.43 137.75 -727.62 135.69 C-725.61 134.85 -723.57 134.17 -721.5 133.47 C-719.43 132.75 -719.43 132.75 -717.62 130.69 C-715.61 129.85 -713.57 129.17 -711.5 128.47 C-709.43 127.75 -709.43 127.75 -707.62 125.69 C-704.97 125.12 -702.33 124.95 -699.62 124.69 C-699.29 123.7 -698.97 122.71 -698.62 121.69 C-696.63 120.59 -696.63 120.59 -694.19 119.62 C-691.38 118.5 -689.79 117.85 -687.62 115.69 C-685.61 114.85 -683.57 114.17 -681.5 113.47 C-679.43 112.75 -679.43 112.75 -677.62 110.69 C-675.61 109.85 -673.57 109.17 -671.5 108.47 C-669.43 107.75 -669.43 107.75 -667.62 105.69 C-665.61 104.85 -663.57 104.17 -661.5 103.47 C-659.43 102.75 -659.43 102.75 -657.62 100.69 C-655.61 99.85 -653.57 99.17 -651.5 98.47 C-649.43 97.75 -649.43 97.75 -647.62 95.69 C-645.61 94.85 -643.57 94.17 -641.5 93.47 C-639.43 92.75 -639.43 92.75 -637.62 90.69 C-636.53 90.48 -635.44 90.27 -634.31 90.06 C-629.26 88.18 -627.81 85.47 -625.62 80.69 C-624.79 78.3 -624.04 75.92 -623.4 73.47 C-623.14 72.88 -622.89 72.29 -622.62 71.69 C-621.14 71.19 -621.14 71.19 -619.62 70.69 C-619.52 69.95 -619.42 69.22 -619.31 68.46 C-617.35 60.51 -610.3 55.31 -603.86 50.9 C-601.62 49.69 -601.62 49.69 -598.62 49.69 C-598.39 49.06 -598.15 48.43 -597.9 47.79 C-596.29 45.13 -595.2 44.88 -592.25 44.06 C-588.97 43.15 -588.97 43.15 -585.93 41.66 C-581.03 39.59 -575.2 40.36 -569.93 40.37 C-567.7 40.37 -565.47 40.35 -563.24 40.33 C-561.82 40.32 -560.4 40.32 -558.97 40.32 C-557.68 40.32 -556.39 40.32 -555.07 40.32 C-551.41 40.71 -549.61 41.61 -546.62 43.69 C-544.27 44.51 -541.91 45.18 -539.52 45.84 C-538.89 46.12 -538.27 46.4 -537.62 46.69 C-537.3 47.68 -536.96 48.67 -536.62 49.69 C-535.91 49.76 -535.2 49.83 -534.47 49.9 C-526.65 52.07 -519.67 60.86 -515.62 67.69 C-515.62 68.68 -515.62 69.67 -515.62 70.69 C-514.63 71.02 -513.64 71.35 -512.62 71.69 C-511.1 75.29 -510.62 77.74 -510.62 81.69 C-509.96 81.69 -509.31 81.69 -508.62 81.69 C-506.68 84.96 -506.37 87.44 -506.35 91.22 C-506.32 92.81 -506.32 92.81 -506.29 94.42 C-506.26 96.65 -506.24 98.87 -506.23 101.09 C-506.21 102.14 -506.19 103.2 -506.16 104.29 C-506.16 105.25 -506.15 106.21 -506.14 107.21 C-505.86 109.85 -505.86 109.85 -503.59 111.4 C-502.94 111.82 -502.29 112.25 -501.62 112.69 C-501.62 113.35 -501.62 114.01 -501.62 114.69 C-500.66 114.98 -499.69 115.26 -498.69 115.56 C-495.62 116.69 -495.62 116.69 -494.62 118.69 C-493.68 119.16 -492.73 119.64 -491.75 120.12 C-488.98 121.51 -487.69 122.53 -485.62 124.69 C-484.96 125.02 -484.31 125.35 -483.62 125.69 C-481.62 126.69 -481.62 126.69 -480.28 128.07 C-478.39 129.91 -476.41 131.21 -474.19 132.62 C-470.95 134.74 -468.32 136.9 -465.62 139.69 C-464.72 140.22 -463.81 140.76 -462.88 141.31 C-462.13 141.77 -461.39 142.22 -460.62 142.69 C-460.62 143.35 -460.62 144.01 -460.62 144.69 C-459.9 144.77 -459.18 144.85 -458.44 144.94 C-455.03 145.85 -453.27 147.38 -450.62 149.69 C-449.86 150.22 -449.1 150.76 -448.31 151.31 C-447.76 151.77 -447.2 152.22 -446.62 152.69 C-446.62 153.35 -446.62 154.01 -446.62 154.69 C-445.66 154.98 -444.69 155.26 -443.69 155.56 C-440.62 156.69 -440.62 156.69 -439.62 158.69 C-437.97 159.8 -437.97 159.8 -436.06 160.81 C-434.93 161.43 -433.79 162.05 -432.62 162.69 C-432.62 163.35 -432.62 164.01 -432.62 164.69 C-431.7 164.96 -430.77 165.22 -429.81 165.5 C-426.64 166.68 -425.88 167.39 -423.62 169.69 C-422.17 170.7 -420.68 171.67 -419.19 172.62 C-415.95 174.74 -413.32 176.9 -410.62 179.69 C-409.72 180.22 -408.81 180.76 -407.88 181.31 C-407.13 181.77 -406.39 182.22 -405.62 182.69 C-405.62 183.35 -405.62 184.01 -405.62 184.69 C-404.9 184.77 -404.18 184.85 -403.44 184.94 C-400.03 185.85 -398.27 187.38 -395.62 189.69 C-394.86 190.22 -394.1 190.76 -393.31 191.31 C-392.76 191.77 -392.2 192.22 -391.62 192.69 C-391.62 193.35 -391.62 194.01 -391.62 194.69 C-390.66 194.98 -389.69 195.26 -388.69 195.56 C-385.62 196.69 -385.62 196.69 -384.62 198.69 C-382.97 199.8 -382.97 199.8 -381.06 200.81 C-379.36 201.74 -379.36 201.74 -377.62 202.69 C-377.62 203.35 -377.62 204.01 -377.62 204.69 C-376.7 204.96 -375.77 205.22 -374.81 205.5 C-371.64 206.68 -370.88 207.39 -368.62 209.69 C-367.17 210.7 -365.68 211.67 -364.19 212.62 C-360.95 214.74 -358.32 216.9 -355.62 219.69 C-354.72 220.22 -353.81 220.76 -352.88 221.31 C-352.13 221.77 -351.39 222.22 -350.62 222.69 C-350.62 223.35 -350.62 224.01 -350.62 224.69 C-349.9 224.77 -349.18 224.85 -348.44 224.94 C-345.03 225.85 -343.27 227.38 -340.62 229.69 C-339.86 230.22 -339.1 230.76 -338.31 231.31 C-337.76 231.77 -337.2 232.22 -336.62 232.69 C-336.62 233.35 -336.62 234.01 -336.62 234.69 C-335.66 234.98 -334.69 235.26 -333.69 235.56 C-330.62 236.69 -330.62 236.69 -329.62 238.69 C-327.97 239.8 -327.97 239.8 -326.06 240.81 C-324.36 241.74 -324.36 241.74 -322.62 242.69 C-322.62 243.35 -322.62 244.01 -322.62 244.69 C-316.35 244.91 -311.42 245.06 -305.94 241.64 C-301.01 239.62 -295.21 240.36 -289.93 240.37 C-287.7 240.37 -285.47 240.35 -283.24 240.33 C-281.82 240.32 -280.4 240.32 -278.97 240.32 C-277.68 240.32 -276.39 240.32 -275.07 240.32 C-271.39 240.71 -269.64 241.64 -266.62 243.69 C-262.65 244.68 -260.56 245.12 -256.81 243.38 C-254.58 241.73 -254.58 241.73 -252.62 239.69 C-251.63 239.69 -250.64 239.69 -249.62 239.69 C-249.54 239.07 -249.46 238.45 -249.38 237.81 C-248.62 235.69 -248.62 235.69 -246.69 234.62 C-246.01 234.32 -245.33 234.01 -244.62 233.69 C-243.97 232.7 -243.3 231.71 -242.62 230.69 C-241.63 230.36 -240.64 230.03 -239.62 229.69 C-238.78 228.84 -237.93 228 -237.06 227.12 C-236.26 226.32 -235.45 225.52 -234.62 224.69 C-233.97 224.69 -233.3 224.69 -232.62 224.69 C-232.29 223.7 -231.97 222.71 -231.62 221.69 C-229.92 220.12 -229.92 220.12 -227.81 218.56 C-227.13 218.04 -226.44 217.53 -225.73 216.99 C-223.66 215.71 -222.01 215.13 -219.62 214.69 C-219.54 214.07 -219.46 213.45 -219.38 212.81 C-218.62 210.69 -218.62 210.69 -216.69 209.62 C-216.01 209.32 -215.33 209.01 -214.62 208.69 C-213.97 207.7 -213.3 206.71 -212.62 205.69 C-211.63 205.36 -210.64 205.03 -209.62 204.69 C-207.93 203.05 -206.27 201.38 -204.62 199.69 C-202.79 198.08 -200.94 196.49 -199.06 194.94 C-198.13 194.16 -197.2 193.38 -196.25 192.58 C-193.88 190.87 -192.46 190.09 -189.62 189.69 C-189.54 189.07 -189.46 188.45 -189.38 187.81 C-188.62 185.69 -188.62 185.69 -186.69 184.62 C-186.01 184.32 -185.33 184.01 -184.62 183.69 C-183.97 182.7 -183.3 181.71 -182.62 180.69 C-181.63 180.36 -180.64 180.03 -179.62 179.69 C-178.78 178.84 -177.93 178 -177.06 177.12 C-176.26 176.32 -175.45 175.52 -174.62 174.69 C-173.97 174.69 -173.3 174.69 -172.62 174.69 C-172.29 173.7 -171.97 172.71 -171.62 171.69 C-169.92 170.12 -169.92 170.12 -167.81 168.56 C-167.13 168.04 -166.44 167.53 -165.73 166.99 C-163.66 165.71 -162.01 165.13 -159.62 164.69 C-159.54 164.07 -159.46 163.45 -159.38 162.81 C-158.62 160.69 -158.62 160.69 -156.69 159.62 C-156.01 159.32 -155.33 159.01 -154.62 158.69 C-153.97 157.7 -153.3 156.71 -152.62 155.69 C-151.63 155.36 -150.64 155.03 -149.62 154.69 C-148.78 153.84 -147.93 153 -147.06 152.12 C-146.26 151.32 -145.45 150.52 -144.62 149.69 C-143.97 149.69 -143.3 149.69 -142.62 149.69 C-142.29 148.7 -141.97 147.71 -141.62 146.69 C-139.92 145.12 -139.92 145.12 -137.81 143.56 C-137.13 143.04 -136.44 142.53 -135.73 141.99 C-133.66 140.71 -132.01 140.13 -129.62 139.69 C-129.54 139.07 -129.46 138.45 -129.38 137.81 C-128.62 135.69 -128.62 135.69 -126.69 134.62 C-126.01 134.32 -125.33 134.01 -124.62 133.69 C-123.97 132.7 -123.3 131.71 -122.62 130.69 C-121.63 130.36 -120.64 130.03 -119.62 129.69 C-118.78 128.84 -117.93 128 -117.06 127.12 C-116.26 126.32 -115.45 125.52 -114.62 124.69 C-113.97 124.69 -113.3 124.69 -112.62 124.69 C-112.29 123.7 -111.97 122.71 -111.62 121.69 C-109.92 120.12 -109.92 120.12 -107.81 118.56 C-107.13 118.04 -106.44 117.53 -105.73 116.99 C-103.66 115.71 -102.01 115.13 -99.62 114.69 C-99.54 114.07 -99.46 113.45 -99.38 112.81 C-98.62 110.69 -98.62 110.69 -96.69 109.62 C-96.01 109.32 -95.33 109.01 -94.62 108.69 C-93.97 107.7 -93.3 106.71 -92.62 105.69 C-91.14 105.19 -91.14 105.19 -89.62 104.69 C-88.78 103.84 -87.93 103 -87.06 102.12 C-86.26 101.32 -85.45 100.52 -84.62 99.69 C-83.97 99.69 -83.3 99.69 -82.62 99.69 C-82.29 98.7 -81.97 97.71 -81.62 96.69 C-79.92 95.12 -79.92 95.12 -77.81 93.56 C-77.13 93.04 -76.44 92.53 -75.73 91.99 C-73.66 90.71 -72.01 90.13 -69.62 89.69 C-69.5 89.07 -69.38 88.45 -69.25 87.81 C-68.62 85.69 -68.62 85.69 -66.62 83.69 C-66.95 83.02 -67.27 82.36 -67.61 81.67 C-68.85 78.04 -68.91 74.69 -68.89 70.9 C-68.89 69.8 -68.89 69.8 -68.9 68.67 C-68.9 67.11 -68.89 65.56 -68.89 64 C-68.88 61.63 -68.89 59.26 -68.9 56.88 C-68.9 55.37 -68.89 53.85 -68.89 52.34 C-68.89 51.63 -68.9 50.93 -68.9 50.2 C-68.87 46.53 -68.64 43.81 -66.62 40.69 C-65.97 40.69 -65.3 40.69 -64.62 40.69 C-64.52 39.43 -64.42 38.17 -64.31 36.88 C-63.88 33.36 -63.36 32 -60.62 29.69 C-60.19 28.78 -59.76 27.87 -59.31 26.94 C-55.31 19.22 -48 11.48 -39.62 8.69 C-39.23 8.19 -38.84 7.7 -38.44 7.19 C-35.51 4.76 -32.36 4.99 -28.62 4.69 C-28.62 4.03 -28.62 3.37 -28.62 2.69 C-20.62 -2.03 -8.99 -0.4 0 0 Z M-23.62 52.38 C-26.23 57.07 -26.64 61.44 -25.62 66.69 C-23.54 72.18 -19.98 76 -14.86 78.84 C-9.96 80.7 -5.29 80.7 -0.39 78.84 C4.73 76 8.29 72.18 10.38 66.69 C11.39 61.44 10.98 57.07 8.38 52.38 C4.89 47.57 0.82 44.35 -5.08 43.21 C-13.18 42.74 -18.9 45.86 -23.62 52.38 Z M-583.62 92.38 C-586.23 97.07 -586.64 101.44 -585.62 106.69 C-583.54 112.18 -579.98 116 -574.86 118.84 C-569.96 120.7 -565.29 120.7 -560.39 118.84 C-555.27 116 -551.71 112.18 -549.62 106.69 C-548.61 101.44 -549.02 97.07 -551.62 92.38 C-555.11 87.57 -559.18 84.35 -565.08 83.21 C-573.18 82.74 -578.9 85.86 -583.62 92.38 Z M-863.62 212.38 C-866.23 217.07 -866.64 221.44 -865.62 226.69 C-863.54 232.18 -859.98 236 -854.86 238.84 C-849.96 240.7 -845.29 240.7 -840.39 238.84 C-835.27 236 -831.71 232.18 -829.62 226.69 C-828.61 221.44 -829.02 217.07 -831.62 212.38 C-835.11 207.57 -839.18 204.35 -845.08 203.21 C-853.18 202.74 -858.9 205.86 -863.62 212.38 Z M-303.62 292.38 C-306.23 297.07 -306.64 301.44 -305.62 306.69 C-303.54 312.18 -299.98 316 -294.86 318.84 C-289.96 320.7 -285.29 320.7 -280.39 318.84 C-275.27 316 -271.71 312.18 -269.62 306.69 C-268.61 301.44 -269.02 297.07 -271.62 292.38 C-275.11 287.57 -279.18 284.35 -285.08 283.21 C-293.18 282.74 -298.9 285.86 -303.62 292.38 Z " fill="#f0f0f0" transform="translate(1067.625,358.3125)"/>
<path d="M0 0 C1.14 -0 2.29 -0 3.47 -0 C7.29 -0.01 11.11 -0.01 14.93 -0 C17.68 -0 20.42 -0.01 23.17 -0.01 C29.84 -0.01 36.51 -0.01 43.19 -0.01 C48.61 -0.01 54.04 -0.01 59.46 -0.01 C60.62 -0.01 60.62 -0.01 61.81 -0.01 C63.38 -0.01 64.95 -0.01 66.52 -0.01 C81.24 -0.01 95.96 -0.01 110.68 -0 C123.3 0 135.92 0 148.53 -0 C163.2 -0.01 177.87 -0.01 192.54 -0.01 C194.1 -0.01 195.67 -0.01 197.23 -0.01 C198 -0.01 198.77 -0.01 199.57 -0.01 C204.98 -0.01 210.4 -0.01 215.82 -0.01 C222.42 -0.01 229.03 -0.01 235.63 -0.01 C239 -0 242.36 -0 245.73 -0.01 C249.39 -0.01 253.04 -0 256.7 0 C258.28 -0 258.28 -0 259.9 -0.01 C275.71 0.03 275.71 0.03 280.35 3.13 C280.35 3.79 280.35 4.45 280.35 5.13 C280.97 5.21 281.59 5.29 282.22 5.38 C284.35 6.13 284.35 6.13 285.41 8 C285.87 9.05 285.87 9.05 286.35 10.13 C286.85 10.59 287.35 11.05 287.86 11.53 C292.89 16.94 290.49 30.53 290.48 37.69 C290.48 39.26 290.48 40.82 290.48 42.38 C290.49 46.61 290.49 50.83 290.48 55.05 C290.48 59.48 290.48 63.92 290.48 68.35 C290.49 75.79 290.48 83.23 290.48 90.67 C290.47 99.26 290.48 107.84 290.48 116.43 C290.49 123.82 290.49 131.21 290.48 138.6 C290.48 143.01 290.48 147.41 290.48 151.82 C290.49 155.96 290.49 160.11 290.48 164.25 C290.48 165.76 290.48 167.28 290.48 168.8 C290.51 189.35 290.51 189.35 287.47 194 C286.77 194.7 286.07 195.4 285.35 196.13 C284.64 196.9 284.64 196.9 283.91 197.69 C283.4 198.16 282.88 198.64 282.35 199.13 C281.65 199.83 280.95 200.53 280.22 201.25 C273.77 205.46 264.19 204.27 256.7 204.25 C255.55 204.26 254.41 204.26 253.23 204.26 C249.41 204.26 245.59 204.26 241.77 204.26 C239.02 204.26 236.28 204.26 233.53 204.26 C226.86 204.27 220.18 204.27 213.51 204.26 C208.08 204.26 202.66 204.26 197.23 204.26 C196.07 204.26 196.07 204.26 194.89 204.26 C193.32 204.26 191.75 204.26 190.18 204.26 C175.46 204.27 160.74 204.26 146.02 204.26 C133.4 204.25 120.78 204.25 108.16 204.26 C93.49 204.26 78.83 204.26 64.16 204.26 C62.59 204.26 61.03 204.26 59.46 204.26 C58.69 204.26 57.92 204.26 57.13 204.26 C51.71 204.26 46.3 204.26 40.88 204.26 C34.28 204.27 27.67 204.27 21.07 204.26 C17.7 204.26 14.33 204.26 10.97 204.26 C7.31 204.26 3.66 204.26 0 204.25 C-1.59 204.26 -1.59 204.26 -3.2 204.26 C-20.41 204.22 -20.41 204.22 -25.65 199.13 C-26.64 198.47 -27.63 197.81 -28.65 197.13 C-28.65 196.14 -28.65 195.15 -28.65 194.13 C-29.64 193.8 -30.63 193.47 -31.65 193.13 C-35.41 185.61 -33.79 174.81 -33.78 166.56 C-33.78 165 -33.78 163.43 -33.79 161.87 C-33.79 157.65 -33.79 153.43 -33.79 149.2 C-33.78 144.77 -33.79 140.34 -33.79 135.91 C-33.79 128.47 -33.79 121.02 -33.78 113.58 C-33.78 105 -33.78 96.41 -33.78 87.82 C-33.79 80.43 -33.79 73.04 -33.79 65.65 C-33.78 61.25 -33.78 56.84 -33.79 52.43 C-33.79 48.29 -33.79 44.15 -33.78 40 C-33.78 38.49 -33.78 36.97 -33.78 35.46 C-33.81 14.91 -33.81 14.91 -30.78 10.25 C-30.08 9.55 -29.37 8.85 -28.65 8.13 C-27.94 7.35 -27.94 7.35 -27.21 6.56 C-26.7 6.09 -26.18 5.62 -25.65 5.13 C-24.95 4.43 -24.25 3.72 -23.53 3 C-17.07 -1.21 -7.5 -0.02 0 0 Z M10.35 44.13 C10.35 82.41 10.35 120.69 10.35 160.13 C88.23 160.13 166.11 160.13 246.35 160.13 C246.35 121.85 246.35 83.57 246.35 44.13 C168.47 44.13 90.59 44.13 10.35 44.13 Z " fill="#f0f0f0" transform="translate(711.651611328125,57.873016357421875)"/>
<path d="M0 0 C1.14 -0 2.29 -0 3.47 -0 C7.29 -0.01 11.11 -0.01 14.93 -0 C17.68 -0 20.42 -0.01 23.17 -0.01 C29.84 -0.01 36.51 -0.01 43.19 -0.01 C48.61 -0.01 54.04 -0.01 59.46 -0.01 C60.62 -0.01 60.62 -0.01 61.81 -0.01 C63.38 -0.01 64.95 -0.01 66.52 -0.01 C81.24 -0.01 95.96 -0.01 110.68 -0 C123.3 0 135.92 0 148.53 -0 C163.2 -0.01 177.87 -0.01 192.54 -0.01 C194.1 -0.01 195.67 -0.01 197.23 -0.01 C198 -0.01 198.77 -0.01 199.57 -0.01 C204.98 -0.01 210.4 -0.01 215.82 -0.01 C222.42 -0.01 229.03 -0.01 235.63 -0.01 C239 -0 242.36 -0 245.73 -0.01 C249.39 -0.01 253.04 -0 256.7 0 C258.28 -0 258.28 -0 259.9 -0.01 C275.71 0.03 275.71 0.03 280.35 3.13 C280.35 3.79 280.35 4.45 280.35 5.13 C280.97 5.21 281.59 5.29 282.22 5.38 C284.35 6.13 284.35 6.13 285.41 8 C285.87 9.05 285.87 9.05 286.35 10.13 C286.85 10.59 287.35 11.05 287.86 11.53 C292.89 16.94 290.49 30.53 290.48 37.69 C290.48 39.26 290.48 40.82 290.48 42.38 C290.49 46.61 290.49 50.83 290.48 55.05 C290.48 59.48 290.48 63.92 290.48 68.35 C290.49 75.79 290.48 83.23 290.48 90.67 C290.47 99.26 290.48 107.84 290.48 116.43 C290.49 123.82 290.49 131.21 290.48 138.6 C290.48 143.01 290.48 147.41 290.48 151.82 C290.49 155.96 290.49 160.11 290.48 164.25 C290.48 165.76 290.48 167.28 290.48 168.8 C290.51 189.35 290.51 189.35 287.47 194 C286.77 194.7 286.07 195.4 285.35 196.13 C284.64 196.9 284.64 196.9 283.91 197.69 C283.4 198.16 282.88 198.64 282.35 199.13 C281.65 199.83 280.95 200.53 280.22 201.25 C273.77 205.46 264.19 204.27 256.7 204.25 C255.55 204.26 254.41 204.26 253.23 204.26 C249.41 204.26 245.59 204.26 241.77 204.26 C239.02 204.26 236.28 204.26 233.53 204.26 C226.86 204.27 220.18 204.27 213.51 204.26 C208.08 204.26 202.66 204.26 197.23 204.26 C196.07 204.26 196.07 204.26 194.89 204.26 C193.32 204.26 191.75 204.26 190.18 204.26 C175.46 204.27 160.74 204.26 146.02 204.26 C133.4 204.25 120.78 204.25 108.16 204.26 C93.49 204.26 78.83 204.26 64.16 204.26 C62.59 204.26 61.03 204.26 59.46 204.26 C58.69 204.26 57.92 204.26 57.13 204.26 C51.71 204.26 46.3 204.26 40.88 204.26 C34.28 204.27 27.67 204.27 21.07 204.26 C17.7 204.26 14.33 204.26 10.97 204.26 C7.31 204.26 3.66 204.26 0 204.25 C-1.59 204.26 -1.59 204.26 -3.2 204.26 C-20.41 204.22 -20.41 204.22 -25.65 199.13 C-26.64 198.47 -27.63 197.81 -28.65 197.13 C-28.65 196.14 -28.65 195.15 -28.65 194.13 C-29.64 193.8 -30.63 193.47 -31.65 193.13 C-35.41 185.61 -33.79 174.81 -33.78 166.56 C-33.78 165 -33.78 163.43 -33.79 161.87 C-33.79 157.65 -33.79 153.43 -33.79 149.2 C-33.78 144.77 -33.79 140.34 -33.79 135.91 C-33.79 128.47 -33.79 121.02 -33.78 113.58 C-33.78 105 -33.78 96.41 -33.78 87.82 C-33.79 80.43 -33.79 73.04 -33.79 65.65 C-33.78 61.25 -33.78 56.84 -33.79 52.43 C-33.79 48.29 -33.79 44.15 -33.78 40 C-33.78 38.49 -33.78 36.97 -33.78 35.46 C-33.81 14.91 -33.81 14.91 -30.78 10.25 C-30.08 9.55 -29.37 8.85 -28.65 8.13 C-27.94 7.35 -27.94 7.35 -27.21 6.56 C-26.7 6.09 -26.18 5.62 -25.65 5.13 C-24.95 4.43 -24.25 3.72 -23.53 3 C-17.07 -1.21 -7.5 -0.02 0 0 Z M10.35 44.13 C10.35 82.41 10.35 120.69 10.35 160.13 C88.23 160.13 166.11 160.13 246.35 160.13 C246.35 121.85 246.35 83.57 246.35 44.13 C168.47 44.13 90.59 44.13 10.35 44.13 Z " fill="#f0f0f0" transform="translate(71.651611328125,57.873016357421875)"/>
<path d="M0 0 C0.8 -0.01 1.6 -0.01 2.43 -0.02 C5.11 -0.03 7.8 -0.02 10.49 -0.01 C12.41 -0.02 14.34 -0.02 16.26 -0.03 C21.49 -0.05 26.73 -0.04 31.96 -0.03 C37.43 -0.02 42.9 -0.03 48.37 -0.03 C57.55 -0.04 66.74 -0.03 75.93 -0.01 C86.55 0.01 97.18 0 107.81 -0.02 C116.93 -0.04 126.04 -0.04 135.16 -0.03 C140.61 -0.02 146.06 -0.02 151.51 -0.04 C156.63 -0.05 161.75 -0.04 166.87 -0.02 C168.75 -0.01 170.63 -0.01 172.52 -0.02 C175.08 -0.03 177.65 -0.02 180.21 0 C181.33 -0.01 181.33 -0.01 182.48 -0.03 C185.88 0.02 187.79 0.28 190.57 2.31 C192.85 5.58 192.68 8.79 192.64 12.63 C192.64 13.42 192.64 14.2 192.65 15.01 C192.65 16.66 192.64 18.32 192.63 19.97 C192.61 22.5 192.63 25.03 192.65 27.55 C192.65 29.16 192.64 30.77 192.64 32.38 C192.64 33.14 192.65 33.89 192.66 34.67 C192.6 37.88 192.43 40.04 190.57 42.71 C187.2 45.17 184.23 45.06 180.21 45.02 C179.41 45.02 178.61 45.03 177.78 45.03 C175.1 45.05 172.41 45.04 169.72 45.03 C167.8 45.03 165.87 45.04 163.95 45.05 C158.72 45.07 153.48 45.06 148.25 45.05 C142.78 45.04 137.31 45.04 131.84 45.05 C122.66 45.06 113.47 45.05 104.28 45.03 C93.66 45.01 83.03 45.01 72.4 45.04 C63.28 45.05 54.17 45.06 45.05 45.05 C39.6 45.04 34.15 45.04 28.7 45.05 C23.58 45.06 18.46 45.06 13.34 45.03 C11.46 45.03 9.58 45.03 7.69 45.04 C5.13 45.05 2.56 45.04 0 45.02 C-0.75 45.02 -1.5 45.03 -2.27 45.04 C-5.67 44.99 -7.58 44.74 -10.36 42.71 C-12.64 39.44 -12.47 36.23 -12.43 32.38 C-12.43 31.6 -12.43 30.82 -12.44 30.01 C-12.44 28.35 -12.43 26.7 -12.42 25.05 C-12.4 22.52 -12.42 19.99 -12.44 17.46 C-12.44 15.85 -12.43 14.24 -12.43 12.63 C-12.43 11.88 -12.44 11.12 -12.45 10.35 C-12.39 7.14 -12.22 4.97 -10.36 2.31 C-6.99 -0.16 -4.02 -0.05 0 0 Z " fill="#f0f0f0" transform="translate(1049.89501953125,177.4920654296875)"/>
<path d="M0 0 C0.8 -0.01 1.6 -0.01 2.43 -0.02 C5.11 -0.03 7.8 -0.02 10.49 -0.01 C12.41 -0.02 14.34 -0.02 16.26 -0.03 C21.49 -0.05 26.73 -0.04 31.96 -0.03 C37.43 -0.02 42.9 -0.03 48.37 -0.03 C57.55 -0.04 66.74 -0.03 75.93 -0.01 C86.55 0.01 97.18 0 107.81 -0.02 C116.93 -0.04 126.04 -0.04 135.16 -0.03 C140.61 -0.02 146.06 -0.02 151.51 -0.04 C156.63 -0.05 161.75 -0.04 166.87 -0.02 C168.75 -0.01 170.63 -0.01 172.52 -0.02 C175.08 -0.03 177.65 -0.02 180.21 0 C181.33 -0.01 181.33 -0.01 182.48 -0.03 C185.88 0.02 187.79 0.28 190.57 2.31 C192.85 5.58 192.68 8.79 192.64 12.63 C192.64 13.42 192.64 14.2 192.65 15.01 C192.65 16.66 192.64 18.32 192.63 19.97 C192.61 22.5 192.63 25.03 192.65 27.55 C192.65 29.16 192.64 30.77 192.64 32.38 C192.64 33.14 192.65 33.89 192.66 34.67 C192.6 37.88 192.43 40.04 190.57 42.71 C187.2 45.17 184.23 45.06 180.21 45.02 C179.41 45.02 178.61 45.03 177.78 45.03 C175.1 45.05 172.41 45.04 169.72 45.03 C167.8 45.03 165.87 45.04 163.95 45.05 C158.72 45.07 153.48 45.06 148.25 45.05 C142.78 45.04 137.31 45.04 131.84 45.05 C122.66 45.06 113.47 45.05 104.28 45.03 C93.66 45.01 83.03 45.01 72.4 45.04 C63.28 45.05 54.17 45.06 45.05 45.05 C39.6 45.04 34.15 45.04 28.7 45.05 C23.58 45.06 18.46 45.06 13.34 45.03 C11.46 45.03 9.58 45.03 7.69 45.04 C5.13 45.05 2.56 45.04 0 45.02 C-0.75 45.02 -1.5 45.03 -2.27 45.04 C-5.67 44.99 -7.58 44.74 -10.36 42.71 C-12.64 39.44 -12.47 36.23 -12.43 32.38 C-12.43 31.6 -12.43 30.82 -12.44 30.01 C-12.44 28.35 -12.43 26.7 -12.42 25.05 C-12.4 22.52 -12.42 19.99 -12.44 17.46 C-12.44 15.85 -12.43 14.24 -12.43 12.63 C-12.43 11.88 -12.44 11.12 -12.45 10.35 C-12.39 7.14 -12.22 4.97 -10.36 2.31 C-6.99 -0.16 -4.02 -0.05 0 0 Z " fill="#f0f0f0" transform="translate(409.89501953125,177.4920654296875)"/>
<path d="M0 0 C0.8 -0.01 1.6 -0.01 2.43 -0.02 C5.11 -0.03 7.8 -0.02 10.49 -0.01 C12.41 -0.02 14.34 -0.02 16.26 -0.03 C21.49 -0.05 26.73 -0.04 31.96 -0.03 C37.43 -0.02 42.9 -0.03 48.37 -0.03 C57.55 -0.04 66.74 -0.03 75.93 -0.01 C86.55 0.01 97.18 0 107.81 -0.02 C116.93 -0.04 126.04 -0.04 135.16 -0.03 C140.61 -0.02 146.06 -0.02 151.51 -0.04 C156.63 -0.05 161.75 -0.04 166.87 -0.02 C168.75 -0.01 170.63 -0.01 172.52 -0.02 C175.08 -0.03 177.65 -0.02 180.21 0 C181.33 -0.01 181.33 -0.01 182.48 -0.03 C185.88 0.02 187.79 0.28 190.57 2.31 C192.85 5.58 192.68 8.79 192.64 12.63 C192.64 13.42 192.64 14.2 192.65 15.01 C192.65 16.66 192.64 18.32 192.63 19.97 C192.61 22.5 192.63 25.03 192.65 27.55 C192.65 29.16 192.64 30.77 192.64 32.38 C192.64 33.14 192.65 33.89 192.66 34.67 C192.6 37.88 192.43 40.04 190.57 42.71 C187.2 45.17 184.23 45.06 180.21 45.02 C179.41 45.02 178.61 45.03 177.78 45.03 C175.1 45.05 172.41 45.04 169.72 45.03 C167.8 45.03 165.87 45.04 163.95 45.05 C158.72 45.07 153.48 45.06 148.25 45.05 C142.78 45.04 137.31 45.04 131.84 45.05 C122.66 45.06 113.47 45.05 104.28 45.03 C93.66 45.01 83.03 45.01 72.4 45.04 C63.28 45.05 54.17 45.06 45.05 45.05 C39.6 45.04 34.15 45.04 28.7 45.05 C23.58 45.06 18.46 45.06 13.34 45.03 C11.46 45.03 9.58 45.03 7.69 45.04 C5.13 45.05 2.56 45.04 0 45.02 C-0.75 45.02 -1.5 45.03 -2.27 45.04 C-5.67 44.99 -7.58 44.74 -10.36 42.71 C-12.64 39.44 -12.47 36.23 -12.43 32.38 C-12.43 31.6 -12.43 30.82 -12.44 30.01 C-12.44 28.35 -12.43 26.7 -12.42 25.05 C-12.4 22.52 -12.42 19.99 -12.44 17.46 C-12.44 15.85 -12.43 14.24 -12.43 12.63 C-12.43 11.88 -12.44 11.12 -12.45 10.35 C-12.39 7.14 -12.22 4.97 -10.36 2.31 C-6.99 -0.16 -4.02 -0.05 0 0 Z " fill="#f0f0f0" transform="translate(1049.89501953125,97.4920654296875)"/>
<path d="M0 0 C0.8 -0.01 1.6 -0.01 2.43 -0.02 C5.11 -0.03 7.8 -0.02 10.49 -0.01 C12.41 -0.02 14.34 -0.02 16.26 -0.03 C21.49 -0.05 26.73 -0.04 31.96 -0.03 C37.43 -0.02 42.9 -0.03 48.37 -0.03 C57.55 -0.04 66.74 -0.03 75.93 -0.01 C86.55 0.01 97.18 0 107.81 -0.02 C116.93 -0.04 126.04 -0.04 135.16 -0.03 C140.61 -0.02 146.06 -0.02 151.51 -0.04 C156.63 -0.05 161.75 -0.04 166.87 -0.02 C168.75 -0.01 170.63 -0.01 172.52 -0.02 C175.08 -0.03 177.65 -0.02 180.21 0 C181.33 -0.01 181.33 -0.01 182.48 -0.03 C185.88 0.02 187.79 0.28 190.57 2.31 C192.85 5.58 192.68 8.79 192.64 12.63 C192.64 13.42 192.64 14.2 192.65 15.01 C192.65 16.66 192.64 18.32 192.63 19.97 C192.61 22.5 192.63 25.03 192.65 27.55 C192.65 29.16 192.64 30.77 192.64 32.38 C192.64 33.14 192.65 33.89 192.66 34.67 C192.6 37.88 192.43 40.04 190.57 42.71 C187.2 45.17 184.23 45.06 180.21 45.02 C179.41 45.02 178.61 45.03 177.78 45.03 C175.1 45.05 172.41 45.04 169.72 45.03 C167.8 45.03 165.87 45.04 163.95 45.05 C158.72 45.07 153.48 45.06 148.25 45.05 C142.78 45.04 137.31 45.04 131.84 45.05 C122.66 45.06 113.47 45.05 104.28 45.03 C93.66 45.01 83.03 45.01 72.4 45.04 C63.28 45.05 54.17 45.06 45.05 45.05 C39.6 45.04 34.15 45.04 28.7 45.05 C23.58 45.06 18.46 45.06 13.34 45.03 C11.46 45.03 9.58 45.03 7.69 45.04 C5.13 45.05 2.56 45.04 0 45.02 C-0.75 45.02 -1.5 45.03 -2.27 45.04 C-5.67 44.99 -7.58 44.74 -10.36 42.71 C-12.64 39.44 -12.47 36.23 -12.43 32.38 C-12.43 31.6 -12.43 30.82 -12.44 30.01 C-12.44 28.35 -12.43 26.7 -12.42 25.05 C-12.4 22.52 -12.42 19.99 -12.44 17.46 C-12.44 15.85 -12.43 14.24 -12.43 12.63 C-12.43 11.88 -12.44 11.12 -12.45 10.35 C-12.39 7.14 -12.22 4.97 -10.36 2.31 C-6.99 -0.16 -4.02 -0.05 0 0 Z " fill="#f0f0f0" transform="translate(409.89501953125,97.4920654296875)"/>
<path d="M0 0 C1.97 -0.02 1.97 -0.02 3.98 -0.03 C5.43 -0.03 6.88 -0.02 8.33 -0.01 C9.87 -0.02 11.4 -0.02 12.93 -0.03 C17.08 -0.05 21.24 -0.04 25.4 -0.03 C29.75 -0.02 34.1 -0.03 38.45 -0.03 C45.75 -0.04 53.05 -0.03 60.36 -0.01 C68.8 0.01 77.25 0 85.69 -0.02 C92.94 -0.04 100.19 -0.04 107.44 -0.03 C111.77 -0.02 116.1 -0.02 120.43 -0.04 C124.5 -0.05 128.57 -0.04 132.65 -0.02 C134.14 -0.01 135.64 -0.01 137.13 -0.02 C139.17 -0.03 141.21 -0.02 143.25 0 C144.96 0 144.96 0 146.71 0 C150.29 0.62 151.47 1.61 153.62 4.51 C154.02 7.35 154.19 9.79 154.15 12.63 C154.16 13.42 154.16 14.2 154.17 15.01 C154.17 16.66 154.16 18.32 154.15 19.97 C154.12 22.5 154.14 25.03 154.17 27.55 C154.17 29.16 154.16 30.77 154.15 32.38 C154.16 33.14 154.17 33.89 154.18 34.67 C154.12 37.94 153.97 40.04 151.99 42.71 C148.9 45.06 147.1 45.01 143.25 45.02 C141.28 45.03 141.28 45.03 139.27 45.05 C137.82 45.04 136.37 45.03 134.91 45.03 C133.38 45.03 131.85 45.04 130.32 45.05 C126.16 45.06 122.01 45.06 117.85 45.05 C113.5 45.04 109.15 45.04 104.8 45.05 C97.5 45.06 90.19 45.05 82.89 45.03 C74.45 45.01 66 45.01 57.55 45.04 C50.3 45.05 43.06 45.06 35.81 45.05 C31.48 45.04 27.15 45.04 22.81 45.05 C18.74 45.06 14.67 45.06 10.6 45.03 C9.11 45.03 7.61 45.03 6.12 45.04 C4.08 45.05 2.04 45.03 0 45.02 C-1.14 45.01 -2.28 45.01 -3.46 45.01 C-7.04 44.39 -8.23 43.4 -10.38 40.51 C-10.77 37.67 -10.94 35.22 -10.91 32.38 C-10.91 31.6 -10.92 30.82 -10.92 30.01 C-10.92 28.35 -10.91 26.7 -10.9 25.05 C-10.88 22.52 -10.9 19.99 -10.92 17.46 C-10.92 15.85 -10.92 14.24 -10.91 12.63 C-10.92 11.88 -10.92 11.12 -10.93 10.35 C-10.87 7.08 -10.72 4.97 -8.74 2.31 C-5.66 -0.04 -3.86 0.01 0 0 Z " fill="#f0f0f0" transform="translate(768.37646484375,137.4920654296875)"/>
<path d="M0 0 C1.97 -0.02 1.97 -0.02 3.98 -0.03 C5.43 -0.03 6.88 -0.02 8.33 -0.01 C9.87 -0.02 11.4 -0.02 12.93 -0.03 C17.08 -0.05 21.24 -0.04 25.4 -0.03 C29.75 -0.02 34.1 -0.03 38.45 -0.03 C45.75 -0.04 53.05 -0.03 60.36 -0.01 C68.8 0.01 77.25 0 85.69 -0.02 C92.94 -0.04 100.19 -0.04 107.44 -0.03 C111.77 -0.02 116.1 -0.02 120.43 -0.04 C124.5 -0.05 128.57 -0.04 132.65 -0.02 C134.14 -0.01 135.64 -0.01 137.13 -0.02 C139.17 -0.03 141.21 -0.02 143.25 0 C144.96 0 144.96 0 146.71 0 C150.29 0.62 151.47 1.61 153.62 4.51 C154.02 7.35 154.19 9.79 154.15 12.63 C154.16 13.42 154.16 14.2 154.17 15.01 C154.17 16.66 154.16 18.32 154.15 19.97 C154.12 22.5 154.14 25.03 154.17 27.55 C154.17 29.16 154.16 30.77 154.15 32.38 C154.16 33.14 154.17 33.89 154.18 34.67 C154.12 37.94 153.97 40.04 151.99 42.71 C148.9 45.06 147.1 45.01 143.25 45.02 C141.28 45.03 141.28 45.03 139.27 45.05 C137.82 45.04 136.37 45.03 134.91 45.03 C133.38 45.03 131.85 45.04 130.32 45.05 C126.16 45.06 122.01 45.06 117.85 45.05 C113.5 45.04 109.15 45.04 104.8 45.05 C97.5 45.06 90.19 45.05 82.89 45.03 C74.45 45.01 66 45.01 57.55 45.04 C50.3 45.05 43.06 45.06 35.81 45.05 C31.48 45.04 27.15 45.04 22.81 45.05 C18.74 45.06 14.67 45.06 10.6 45.03 C9.11 45.03 7.61 45.03 6.12 45.04 C4.08 45.05 2.04 45.03 0 45.02 C-1.14 45.01 -2.28 45.01 -3.46 45.01 C-7.04 44.39 -8.23 43.4 -10.38 40.51 C-10.77 37.67 -10.94 35.22 -10.91 32.38 C-10.91 31.6 -10.92 30.82 -10.92 30.01 C-10.92 28.35 -10.91 26.7 -10.9 25.05 C-10.88 22.52 -10.9 19.99 -10.92 17.46 C-10.92 15.85 -10.92 14.24 -10.91 12.63 C-10.92 11.88 -10.92 11.12 -10.93 10.35 C-10.87 7.08 -10.72 4.97 -8.74 2.31 C-5.66 -0.04 -3.86 0.01 0 0 Z " fill="#f0f0f0" transform="translate(128.37646484375,137.4920654296875)"/>
</svg>
