<?xml version="1.0" standalone="no"?>
<!DOCTYPE svg PUBLIC "-//W3C//DTD SVG 20010904//EN"
 "http://www.w3.org/TR/2001/REC-SVG-20010904/DTD/svg10.dtd">
<svg version="1.0" xmlns="http://www.w3.org/2000/svg"
 width="256.000000pt" height="256.000000pt" viewBox="0 0 256.000000 256.000000"
 preserveAspectRatio="xMidYMid meet">

<g transform="translate(0.000000,256.000000) scale(0.100000,-0.100000)"
fill="#fff" stroke="none">
<path d="M12 2548 c-17 -17 -17 -599 0 -616 8 -8 47 -12 108 -12 61 0 100 4
108 12 8 8 12 67 12 200 l0 188 188 0 c133 0 192 4 200 12 16 16 16 200 0 216
-17 17 -599 17 -616 0z m548 -108 l0 -40 -188 0 c-133 0 -192 -4 -200 -12 -8
-8 -12 -67 -12 -200 l0 -188 -40 0 -40 0 0 240 0 240 240 0 240 0 0 -40z"/>
<path d="M1932 2548 c-8 -8 -12 -47 -12 -108 0 -61 4 -100 12 -108 8 -8 67
-12 200 -12 l188 0 0 -188 c0 -133 4 -192 12 -200 16 -16 200 -16 216 0 17 17
17 599 0 616 -17 17 -599 17 -616 0z m548 -308 l0 -240 -40 0 -40 0 0 188 c0
133 -4 192 -12 200 -8 8 -67 12 -200 12 l-188 0 0 40 0 40 240 0 240 0 0 -240z"/>
<path d="M1155 2150 c-145 -27 -271 -94 -381 -204 -90 -90 -142 -175 -182
-294 -24 -73 -26 -89 -26 -289 l-1 -213 33 -32 c28 -28 39 -33 82 -33 43 0 54
5 82 33 l33 32 6 198 c6 211 13 243 73 346 32 55 125 140 187 172 276 139 605
-11 684 -311 12 -46 15 -119 15 -327 0 -412 2 -408 -282 -694 l-199 -201 3
-158 c3 -138 5 -159 21 -169 12 -8 22 -8 35 0 15 10 17 31 20 155 l3 144 193
195 c282 284 286 294 286 716 0 149 -5 297 -11 330 -29 163 -150 320 -303 394
-311 151 -664 -1 -782 -335 -13 -38 -19 -96 -23 -239 -5 -165 -8 -190 -24
-200 -12 -8 -22 -8 -35 0 -15 10 -17 32 -20 172 -3 197 11 273 70 392 74 147
220 271 378 321 91 29 226 35 320 15 219 -46 409 -218 482 -436 21 -60 22 -88
26 -400 2 -229 0 -354 -8 -395 -23 -115 -58 -165 -252 -361 l-179 -181 3 -58
c2 -42 8 -61 21 -69 29 -18 52 4 55 55 3 42 10 51 176 219 268 271 269 274
264 785 -4 348 -4 350 -31 430 -38 115 -91 199 -182 290 -139 140 -284 203
-475 210 -58 2 -127 0 -155 -5z"/>
<path d="M1186 1830 c-63 -16 -153 -70 -197 -117 -22 -24 -55 -74 -72 -111
-30 -64 -32 -74 -35 -213 l-4 -147 33 -36 c42 -46 90 -56 143 -31 20 10 42 27
49 39 7 12 14 77 17 152 5 125 6 132 34 168 68 90 190 86 260 -8 19 -25 21
-44 24 -209 6 -333 4 -337 -339 -682 l-259 -261 0 -67 c0 -67 0 -67 -28 -67
-15 0 -33 -5 -40 -12 -16 -16 -16 -200 0 -216 16 -16 200 -16 216 0 16 16 16
200 0 216 -7 7 -25 12 -40 12 -27 0 -28 2 -28 52 l0 52 254 256 c338 340 346
355 346 689 0 221 -6 248 -75 316 -93 94 -218 101 -315 17 -68 -58 -83 -99
-90 -241 -4 -103 -8 -126 -22 -135 -13 -8 -23 -8 -35 0 -26 16 -31 216 -7 289
24 78 78 142 154 184 60 33 71 36 150 36 72 -1 93 -5 136 -27 75 -39 107 -70
145 -140 l34 -63 3 -235 c6 -384 3 -391 -280 -676 l-199 -201 3 -78 c2 -61 7
-80 21 -89 33 -21 52 4 55 75 l3 64 193 195 c282 284 289 303 284 705 l-3 251
-37 76 c-68 136 -188 217 -336 224 -42 2 -94 -1 -116 -6z m-266 -1710 l0 -40
-40 0 -40 0 0 40 0 40 40 0 40 0 0 -40z"/>
<path d="M1235 1551 c-11 -5 -31 -21 -45 -35 -22 -25 -25 -37 -31 -149 -5
-104 -9 -129 -31 -172 -31 -59 -66 -94 -128 -126 -41 -22 -60 -24 -209 -27
l-165 -4 -57 -39 -57 -39 -168 -2 c-146 -3 -168 -5 -178 -20 -8 -13 -8 -23 0
-35 10 -16 32 -18 188 -21 l176 -2 58 39 58 39 160 4 c150 3 163 5 219 31 79
37 147 104 181 181 24 51 29 79 34 175 4 94 8 116 23 125 12 8 22 8 35 0 14
-9 18 -28 20 -99 4 -109 -9 -172 -52 -263 -61 -125 -179 -220 -323 -257 -37
-10 -104 -15 -188 -15 -89 0 -135 -4 -143 -12 -7 -7 -12 -43 -12 -93 l0 -81
-47 -46 c-35 -33 -59 -47 -88 -51 -25 -4 -50 -17 -70 -37 -25 -26 -30 -38 -30
-80 0 -43 5 -54 33 -82 28 -28 39 -33 82 -33 42 0 54 5 80 30 37 38 48 91 27
133 -14 30 -14 30 39 83 l54 53 0 68 0 68 103 0 c56 0 132 7 170 15 162 34
312 153 385 305 49 102 65 186 60 315 -3 90 -4 96 -34 126 -33 33 -92 46 -129
30z m-725 -1086 c15 -18 10 -45 -12 -59 -35 -22 -74 27 -48 59 16 19 44 19 60
0z"/>
<path d="M10 945 c-26 -32 13 -81 48 -59 34 22 22 74 -18 74 -10 0 -23 -7 -30
-15z"/>
<path d="M12 628 c-17 -17 -17 -599 0 -616 17 -17 599 -17 616 0 16 16 16 200
0 216 -8 8 -67 12 -200 12 l-188 0 0 188 c0 133 -4 192 -12 200 -16 16 -200
16 -216 0z m148 -256 c0 -133 4 -192 12 -200 8 -8 67 -12 200 -12 l188 0 0
-40 0 -40 -240 0 -240 0 0 240 0 240 40 0 40 0 0 -188z"/>
<path d="M2332 628 c-8 -8 -12 -67 -12 -200 l0 -188 -188 0 c-133 0 -192 -4
-200 -12 -8 -8 -12 -47 -12 -108 0 -61 4 -100 12 -108 17 -17 599 -17 616 0
17 17 17 599 0 616 -16 16 -200 16 -216 0z m148 -308 l0 -240 -240 0 -240 0 0
40 0 40 188 0 c133 0 192 4 200 12 8 8 12 67 12 200 l0 188 40 0 40 0 0 -240z"/>
<path d="M1130 145 c-26 -32 13 -81 48 -59 9 6 18 19 20 28 8 38 -43 61 -68
31z"/>
<path d="M1490 65 c-15 -18 -10 -45 13 -59 34 -22 73 27 47 59 -16 19 -44 19
-60 0z"/>
</g>
</svg>
