<?xml version="1.0" standalone="no"?>
<!DOCTYPE svg PUBLIC "-//W3C//DTD SVG 20010904//EN"
 "http://www.w3.org/TR/2001/REC-SVG-20010904/DTD/svg10.dtd">
<svg version="1.0" xmlns="http://www.w3.org/2000/svg"
 width="512.000000pt" height="512.000000pt" viewBox="0 0 512.000000 512.000000"
 preserveAspectRatio="xMidYMid meet">

<g transform="translate(0.000000,512.000000) scale(0.100000,-0.100000)"
fill="#fff" stroke="none">
<path d="M1163 4788 c-26 -13 -843 -1315 -843 -1343 0 -11 49 -215 109 -453
l109 -432 -27 -7 c-49 -11 -99 -42 -133 -83 -85 -98 -75 -235 22 -323 44 -40
103 -67 144 -67 14 0 16 -29 16 -295 l0 -296 25 -24 24 -25 255 0 254 0 4
-267 c4 -257 5 -271 31 -348 38 -115 91 -199 182 -290 91 -91 175 -144 290
-182 75 -25 92 -27 255 -27 163 0 180 2 255 27 115 38 199 91 290 182 91 91
143 174 183 290 l27 80 5 1645 c5 1569 6 1647 24 1695 35 95 81 168 144 231
219 217 569 216 786 -2 76 -75 138 -190 155 -288 7 -39 11 -331 11 -843 l0
-783 -34 0 c-65 0 -210 -31 -285 -61 -285 -114 -494 -369 -546 -664 -21 -125
-21 -665 0 -790 59 -336 309 -605 650 -698 71 -19 105 -22 295 -22 190 0 224
3 295 22 321 88 550 317 638 638 21 76 22 100 22 455 0 355 -1 379 -22 455
-99 361 -388 614 -752 657 l-100 12 -3 826 -3 825 -26 77 c-41 120 -94 204
-183 294 -90 90 -175 143 -294 182 -67 22 -94 26 -212 26 -118 0 -145 -4 -212
-26 -119 -39 -204 -92 -294 -182 -89 -90 -142 -174 -183 -294 l-26 -77 -5
-1645 -5 -1645 -22 -58 c-69 -181 -194 -303 -373 -363 -79 -27 -321 -27 -400
0 -156 53 -275 154 -340 290 -52 110 -60 163 -60 423 l0 223 255 0 256 0 24
25 25 24 0 296 c0 266 2 295 16 295 108 0 224 125 224 240 0 106 -83 207 -191
233 l-27 7 110 437 c60 241 107 447 105 458 -7 36 -816 1319 -840 1332 -27 15
-45 15 -74 1z m-43 -742 l0 -384 -30 -12 c-42 -17 -104 -90 -118 -138 -34
-112 18 -235 120 -288 42 -22 124 -29 177 -14 90 24 171 132 171 228 0 83 -62
184 -130 212 l-30 12 0 386 c0 213 4 382 8 377 5 -6 148 -232 317 -504 l309
-494 -108 -434 -108 -433 -498 0 -498 0 -108 434 -108 433 313 502 c172 275
315 501 317 501 2 0 4 -173 4 -384z m135 -551 c50 -49 15 -135 -55 -135 -41 0
-80 39 -80 80 0 41 39 80 80 80 19 0 40 -9 55 -25z m640 -1120 c33 -32 33 -78
0 -110 l-24 -25 -671 0 -671 0 -24 25 c-16 15 -25 36 -25 55 0 19 9 40 25 55
l24 25 671 0 671 0 24 -25z m2240 -8 c114 -38 198 -90 290 -182 91 -91 143
-174 183 -290 l27 -80 0 -375 0 -375 -27 -80 c-40 -116 -92 -199 -183 -290
-91 -91 -175 -144 -290 -182 -77 -26 -88 -27 -295 -27 -207 0 -218 1 -295 27
-115 38 -199 91 -290 182 -91 91 -143 174 -183 290 l-27 80 0 375 0 375 26 77
c76 221 245 396 455 468 96 34 149 39 344 36 168 -3 192 -6 265 -29z m-2455
-527 l0 -240 -480 0 -480 0 0 240 0 240 480 0 480 0 0 -240z"/>
<path d="M3760 2147 c-49 -16 -133 -102 -148 -153 -7 -23 -12 -74 -12 -114 0
-103 16 -146 75 -205 102 -103 243 -101 338 5 52 57 67 103 67 200 0 97 -15
143 -67 200 -65 72 -158 97 -253 67z m135 -172 c22 -21 25 -33 25 -95 0 -62
-3 -74 -25 -95 -15 -16 -36 -25 -55 -25 -19 0 -40 9 -55 25 -22 21 -25 33 -25
95 0 62 3 74 25 95 15 16 36 25 55 25 19 0 40 -9 55 -25z"/>
</g>
</svg>
