<?xml version="1.0" standalone="no"?>
<!DOCTYPE svg PUBLIC "-//W3C//DTD SVG 20010904//EN"
 "http://www.w3.org/TR/2001/REC-SVG-20010904/DTD/svg10.dtd">
<svg version="1.0" xmlns="http://www.w3.org/2000/svg"
 width="256.000000pt" height="256.000000pt" viewBox="0 0 256.000000 256.000000"
 preserveAspectRatio="xMidYMid meet">

<g transform="translate(0.000000,256.000000) scale(0.100000,-0.100000)"
fill="#fff" stroke="none">
<path d="M155 2471 c-11 -5 -31 -21 -45 -36 l-25 -27 0 -889 0 -889 33 -32 32
-33 420 -3 c231 -1 420 -6 420 -10 0 -4 -14 -93 -31 -199 l-32 -192 -95 -3
c-77 -2 -97 -6 -106 -20 -8 -13 -8 -23 0 -35 10 -17 48 -18 554 -18 506 0 544
1 554 18 8 12 8 22 0 35 -9 14 -29 18 -106 20 l-95 3 -32 192 c-17 106 -31
195 -31 200 0 4 77 7 172 7 l172 0 191 -190 191 -190 48 0 c41 0 53 5 82 34
29 29 34 41 34 81 0 47 -1 49 -106 155 l-106 108 81 3 c76 4 83 6 113 37 l33
32 0 890 0 890 -33 32 -32 33 -1118 2 c-614 1 -1126 -2 -1137 -6z m2233 -83
c8 -8 12 -49 12 -120 l0 -108 -1120 0 -1120 0 0 108 c0 71 4 112 12 120 17 17
2199 17 2216 0z m12 -828 l0 -520 -318 0 -318 0 -31 33 c-23 23 -37 52 -49
102 -20 84 -33 112 -70 148 -38 39 -65 48 -237 87 -198 45 -192 51 -147 -147
18 -81 42 -165 52 -185 l18 -38 -570 0 -570 0 0 520 0 520 1120 0 1120 0 0
-520z m-969 -246 c127 -30 143 -44 170 -141 l19 -68 -43 -42 -42 -43 -68 19
c-97 27 -111 43 -141 170 -14 59 -26 113 -26 119 0 16 9 16 131 -14z m376
-481 l-27 -28 -85 85 -85 84 27 28 27 29 85 -86 86 -85 -28 -27z m-313 116
c36 -9 66 -34 192 -160 l149 -149 -826 0 c-628 0 -828 3 -837 12 -8 8 -12 58
-12 160 l0 148 646 0 c428 0 660 -4 688 -11z m906 -137 c0 -102 -4 -152 -12
-160 -8 -8 -49 -12 -118 -12 l-105 0 -160 160 -160 160 278 0 277 0 0 -148z
m-262 -255 c202 -202 243 -248 240 -268 -2 -17 -10 -25 -28 -27 -21 -2 -66 38
-270 242 l-244 245 24 26 c13 14 26 25 29 25 4 0 116 -110 249 -243z m-619
-189 c17 -106 31 -196 31 -200 0 -10 -540 -10 -540 0 0 4 14 94 31 200 l32
192 207 0 207 0 32 -192z"/>
<path d="M250 2305 c-26 -32 13 -81 48 -59 34 22 22 74 -18 74 -10 0 -23 -7
-30 -15z"/>
<path d="M410 2305 c-26 -32 13 -81 48 -59 34 22 22 74 -18 74 -10 0 -23 -7
-30 -15z"/>
<path d="M570 2305 c-26 -32 13 -81 48 -59 34 22 22 74 -18 74 -10 0 -23 -7
-30 -15z"/>
<path d="M251 1986 c-19 -22 -10 -126 12 -140 25 -16 51 4 55 42 3 26 8 31 34
34 38 4 58 30 42 56 -15 23 -125 30 -143 8z"/>
<path d="M492 1988 c-16 -16 -15 -43 2 -57 22 -19 126 -10 140 12 8 12 8 22 0
35 -14 21 -122 30 -142 10z"/>
<path d="M732 1988 c-16 -16 -15 -43 2 -57 22 -19 126 -10 140 12 8 12 8 22 0
35 -14 21 -122 30 -142 10z"/>
<path d="M972 1988 c-28 -28 -6 -68 39 -68 24 0 28 -5 31 -31 4 -39 30 -59 56
-43 21 14 30 118 11 140 -14 18 -120 19 -137 2z"/>
<path d="M1212 1988 c-17 -17 -17 -279 0 -296 17 -17 1079 -17 1096 0 8 8 12
56 12 148 0 92 -4 140 -12 148 -17 17 -1079 17 -1096 0z m1028 -148 l0 -80
-480 0 -480 0 0 80 0 80 480 0 480 0 0 -80z"/>
<path d="M412 1828 c-17 -17 -17 -519 0 -536 17 -17 519 -17 536 0 17 17 17
519 0 536 -17 17 -519 17 -536 0z m468 -268 l0 -200 -200 0 -200 0 0 200 0
200 200 0 200 0 0 -200z"/>
<path d="M251 1746 c-19 -22 -10 -126 12 -140 32 -20 52 4 55 68 3 61 -8 86
-38 86 -10 0 -23 -6 -29 -14z"/>
<path d="M1051 1746 c-19 -22 -10 -126 12 -140 32 -20 52 4 55 68 3 61 -8 86
-38 86 -10 0 -23 -6 -29 -14z"/>
<path d="M1212 1588 c-6 -6 -12 -20 -12 -29 0 -34 24 -40 165 -37 119 3 139 5
149 21 8 12 8 22 0 35 -10 15 -31 17 -150 20 -100 2 -143 -1 -152 -10z"/>
<path d="M1612 1588 c-16 -16 -15 -43 2 -57 9 -8 110 -11 351 -9 309 3 339 4
349 21 8 12 8 22 0 35 -10 16 -40 17 -350 20 -256 2 -343 -1 -352 -10z"/>
<path d="M251 1506 c-19 -22 -10 -126 12 -140 32 -20 52 4 55 68 3 61 -8 86
-38 86 -10 0 -23 -6 -29 -14z"/>
<path d="M1051 1506 c-19 -22 -10 -126 12 -140 32 -20 52 4 55 68 3 61 -8 86
-38 86 -10 0 -23 -6 -29 -14z"/>
<path d="M1692 1428 c-16 -16 -15 -43 2 -57 9 -8 100 -11 311 -9 271 3 299 5
309 21 8 12 8 22 0 35 -10 15 -38 17 -310 20 -225 2 -303 -1 -312 -10z"/>
<path d="M252 1268 c-17 -17 -16 -123 2 -137 22 -19 126 -10 140 11 16 26 -4
52 -43 56 -26 3 -31 7 -31 31 0 30 -16 51 -40 51 -9 0 -21 -5 -28 -12z"/>
<path d="M1052 1268 c-7 -7 -12 -24 -12 -39 0 -24 -5 -28 -31 -31 -39 -4 -59
-30 -43 -55 14 -22 118 -31 140 -12 18 14 19 120 2 137 -7 7 -19 12 -28 12 -9
0 -21 -5 -28 -12z"/>
<path d="M492 1188 c-16 -16 -15 -43 2 -57 22 -19 126 -10 140 12 8 12 8 22 0
35 -14 21 -122 30 -142 10z"/>
<path d="M732 1188 c-16 -16 -15 -43 2 -57 22 -19 126 -10 140 12 8 12 8 22 0
35 -14 21 -122 30 -142 10z"/>
<path d="M1172 868 c-6 -6 -12 -20 -12 -29 0 -32 25 -40 125 -37 80 2 100 6
109 21 8 12 8 22 0 35 -9 14 -29 18 -110 20 -69 2 -103 -1 -112 -10z"/>
</g>
</svg>
