<svg id="visual" viewBox="0 0 900 600" width="900" height="600" xmlns="http://www.w3.org/2000/svg" xmlns:xlink="http://www.w3.org/1999/xlink" version="1.1"><rect x="0" y="0" width="900" height="600" fill="#850091"></rect><defs><linearGradient id="grad1_0" x1="33.3%" y1="0%" x2="100%" y2="100%"><stop offset="20%" stop-color="#eaeaea" stop-opacity="1"></stop><stop offset="80%" stop-color="#eaeaea" stop-opacity="1"></stop></linearGradient></defs><defs><linearGradient id="grad1_1" x1="33.3%" y1="0%" x2="100%" y2="100%"><stop offset="20%" stop-color="#eaeaea" stop-opacity="1"></stop><stop offset="80%" stop-color="#850091" stop-opacity="1"></stop></linearGradient></defs><defs><linearGradient id="grad2_0" x1="0%" y1="0%" x2="66.7%" y2="100%"><stop offset="20%" stop-color="#eaeaea" stop-opacity="1"></stop><stop offset="80%" stop-color="#eaeaea" stop-opacity="1"></stop></linearGradient></defs><defs><linearGradient id="grad2_1" x1="0%" y1="0%" x2="66.7%" y2="100%"><stop offset="20%" stop-color="#850091" stop-opacity="1"></stop><stop offset="80%" stop-color="#eaeaea" stop-opacity="1"></stop></linearGradient></defs><g transform="translate(900, 0)"><path d="M0 540.8C-91.4 522.1 -182.9 503.5 -266 460.7C-349.1 418 -424 351.2 -468.4 270.4C-512.8 189.6 -526.8 94.8 -540.8 0L0 0Z" fill="#bc84be"></path><path d="M0 270.4C-45.7 261.1 -91.4 251.7 -133 230.4C-174.6 209 -212 175.6 -234.2 135.2C-256.4 94.8 -263.4 47.4 -270.4 0L0 0Z" fill="#eaeaea"></path></g><g transform="translate(0, 600)"><path d="M0 -540.8C96 -527.5 191.9 -514.1 270.4 -468.4C348.9 -422.6 409.9 -344.5 452.1 -261C494.2 -177.5 517.5 -88.8 540.8 0L0 0Z" fill="#bc84be"></path><path d="M0 -270.4C48 -263.7 96 -257.1 135.2 -234.2C174.5 -211.3 205 -172.2 226 -130.5C247.1 -88.8 258.8 -44.4 270.4 0L0 0Z" fill="#eaeaea"></path></g></svg>