<svg id="visual" viewBox="0 0 900 600" width="900" height="600" xmlns="http://www.w3.org/2000/svg" xmlns:xlink="http://www.w3.org/1999/xlink" version="1.1"><rect x="0" y="0" width="900" height="600" fill="#CA9ECE"></rect><defs><linearGradient id="grad1_0" x1="33.3%" y1="0%" x2="100%" y2="100%"><stop offset="20%" stop-color="#ca9ece" stop-opacity="1"></stop><stop offset="80%" stop-color="#ca9ece" stop-opacity="1"></stop></linearGradient></defs><defs><linearGradient id="grad2_0" x1="0%" y1="0%" x2="66.7%" y2="100%"><stop offset="20%" stop-color="#ca9ece" stop-opacity="1"></stop><stop offset="80%" stop-color="#ca9ece" stop-opacity="1"></stop></linearGradient></defs><g transform="translate(900, 0)"><path d="M0 540.8C-43.4 524.4 -86.8 507.9 -133.8 499.4C-180.8 490.9 -231.5 490.2 -270.4 468.4C-309.3 446.5 -336.5 403.4 -367 367C-397.5 330.6 -431.3 300.9 -457.3 264C-483.2 227.1 -501.3 182.9 -513.9 137.7C-526.5 92.5 -533.7 46.2 -540.8 0L0 0Z" fill="#EAEAEA"></path></g><g transform="translate(0, 600)"><path d="M0 -540.8C46.5 -534.9 93.1 -529 138.7 -517.7C184.4 -506.5 229.1 -489.9 269.5 -466.8C309.9 -443.6 346 -413.9 381.1 -381.1C416.3 -348.4 450.4 -312.7 468.4 -270.4C486.3 -228.2 488.1 -179.4 497.5 -133.3C506.8 -87.1 523.8 -43.6 540.8 0L0 0Z" fill="#EAEAEA"></path></g></svg>