<svg id="visual" viewBox="0 0 900 600" width="900" height="600" xmlns="http://www.w3.org/2000/svg" xmlns:xlink="http://www.w3.org/1999/xlink" version="1.1"><rect x="0" y="0" width="900" height="600" fill="#850091"></rect><defs><linearGradient id="grad1_0" x1="33.3%" y1="0%" x2="100%" y2="100%"><stop offset="20%" stop-color="#eaeaea" stop-opacity="1"></stop><stop offset="80%" stop-color="#eaeaea" stop-opacity="1"></stop></linearGradient></defs><defs><linearGradient id="grad1_1" x1="33.3%" y1="0%" x2="100%" y2="100%"><stop offset="20%" stop-color="#eaeaea" stop-opacity="1"></stop><stop offset="80%" stop-color="#850091" stop-opacity="1"></stop></linearGradient></defs><defs><linearGradient id="grad2_0" x1="0%" y1="0%" x2="66.7%" y2="100%"><stop offset="20%" stop-color="#eaeaea" stop-opacity="1"></stop><stop offset="80%" stop-color="#eaeaea" stop-opacity="1"></stop></linearGradient></defs><defs><linearGradient id="grad2_1" x1="0%" y1="0%" x2="66.7%" y2="100%"><stop offset="20%" stop-color="#850091" stop-opacity="1"></stop><stop offset="80%" stop-color="#eaeaea" stop-opacity="1"></stop></linearGradient></defs><g transform="translate(900, 0)"><path d="M0 540.8C-57.8 536.5 -115.5 532.2 -167.1 514.4C-218.7 496.5 -264.2 465 -313.3 431.2C-362.4 397.4 -415.3 361.2 -425.5 309.2C-435.8 257.1 -403.5 189.2 -415.6 135C-427.7 80.9 -484.3 40.4 -540.8 0L0 0Z" fill="#bc84be"></path><path d="M0 270.4C-28.9 268.3 -57.8 266.1 -83.6 257.2C-109.4 248.2 -132.1 232.5 -156.6 215.6C-181.2 198.7 -207.6 180.6 -212.8 154.6C-217.9 128.6 -201.7 94.6 -207.8 67.5C-213.9 40.4 -242.1 20.2 -270.4 0L0 0Z" fill="#eaeaea"></path></g><g transform="translate(0, 600)"><path d="M0 -540.8C42.7 -494.1 85.3 -447.4 142.5 -438.4C199.6 -429.5 271.2 -458.4 317.9 -437.5C364.6 -416.7 386.3 -346 396.4 -288C406.5 -230 404.9 -184.6 427 -138.7C449.1 -92.9 495 -46.4 540.8 0L0 0Z" fill="#bc84be"></path><path d="M0 -270.4C21.3 -247 42.7 -223.7 71.2 -219.2C99.8 -214.8 135.6 -229.2 158.9 -218.8C182.3 -208.3 193.2 -173 198.2 -144C203.2 -115 202.5 -92.3 213.5 -69.4C224.6 -46.4 247.5 -23.2 270.4 0L0 0Z" fill="#eaeaea"></path></g></svg>